{"glyphs":{"0":{"ha":694,"x_min":0,"x_max":556,"o":"m 161 75 q 150 78 161 75 q 139 104 139 81 q 161 133 139 128 q 278 139 183 139 q 394 133 372 139 q 417 104 417 128 q 394 75 417 81 q 278 69 372 69 q 161 75 183 69 m 360 215 q 354 218 360 215 q 347 243 347 221 q 360 272 347 265 q 417 278 374 278 q 473 272 460 278 q 486 243 486 265 q 473 215 486 221 q 417 208 460 208 q 360 215 374 208 m 83 215 q 76 218 83 215 q 69 243 69 221 q 83 272 69 265 q 139 278 96 278 q 195 272 182 278 q 208 243 208 265 q 195 215 208 221 q 139 208 182 208 q 83 215 96 208 m 430 353 q 423 357 430 353 q 417 382 417 360 q 430 410 417 404 q 486 417 443 417 q 542 410 529 417 q 556 382 556 404 q 542 353 556 360 q 486 347 529 347 q 430 353 443 347 m 13 353 q 7 357 13 353 q 0 382 0 360 q 13 410 0 404 q 69 417 26 417 q 126 410 113 417 q 139 382 139 404 q 126 353 139 360 q 69 347 113 347 q 13 353 26 347 m 430 492 q 423 495 430 492 q 417 521 417 499 q 430 549 417 543 q 486 556 443 556 q 542 549 529 556 q 556 521 556 543 q 542 492 556 499 q 486 486 529 486 q 430 492 443 486 m 13 492 q 7 495 13 492 q 0 521 0 499 q 13 549 0 543 q 69 556 26 556 q 126 549 113 556 q 139 521 139 543 q 126 492 139 499 q 69 486 113 486 q 13 492 26 486 m 430 631 q 423 634 430 631 q 417 660 417 638 q 430 688 417 682 q 486 694 443 694 q 542 688 529 694 q 556 660 556 682 q 542 631 556 638 q 486 625 529 625 q 430 631 443 625 m 13 631 q 7 634 13 631 q 0 660 0 638 q 13 688 0 682 q 69 694 26 694 q 126 688 113 694 q 139 660 139 682 q 126 631 139 638 q 69 625 113 625 q 13 631 26 625 m 360 770 q 354 773 360 770 q 347 799 347 776 q 360 827 347 821 q 417 833 374 833 q 473 827 460 833 q 486 799 486 821 q 473 770 486 776 q 417 764 460 764 q 360 770 374 764 m 83 770 q 76 773 83 770 q 69 799 69 776 q 83 827 69 821 q 139 833 96 833 q 195 827 182 833 q 208 799 208 821 q 195 770 208 776 q 139 764 182 764 q 83 770 96 764 m 161 908 q 150 911 161 908 q 139 938 139 914 q 161 967 139 961 q 278 972 183 972 q 394 967 372 972 q 417 938 417 961 q 394 908 417 914 q 278 903 372 903 q 161 908 183 903 z "},"1":{"ha":694,"x_min":69,"x_max":486,"o":"m 69 104 q 90 132 69 126 q 278 139 117 139 q 476 126 457 139 q 486 104 486 121 q 465 76 486 82 q 278 69 439 69 q 79 82 99 69 q 69 104 69 88 m 222 215 q 215 218 222 215 q 208 243 208 221 q 222 272 208 265 q 278 278 235 278 q 334 272 321 278 q 347 243 347 265 q 334 215 347 221 q 278 208 321 208 q 222 215 235 208 m 222 353 q 215 357 222 353 q 208 382 208 360 q 222 410 208 404 q 278 417 235 417 q 334 410 321 417 q 347 382 347 404 q 334 353 347 360 q 278 347 321 347 q 222 353 235 347 m 222 492 q 215 495 222 492 q 208 521 208 499 q 222 549 208 543 q 278 556 235 556 q 334 549 321 556 q 347 521 347 543 q 334 492 347 499 q 278 486 321 486 q 222 492 235 486 m 92 631 q 81 633 92 631 q 69 660 69 636 q 92 689 69 683 q 208 694 114 694 q 325 689 303 694 q 347 660 347 683 q 325 631 347 636 q 208 625 303 625 q 92 631 114 625 m 157 769 q 148 772 157 769 q 139 799 139 775 q 157 828 139 822 q 243 833 175 833 q 329 828 311 833 q 347 799 347 822 q 329 769 347 775 q 243 764 311 764 q 157 769 175 764 m 222 909 q 215 912 222 909 q 208 938 208 915 q 222 966 208 960 q 278 972 235 972 q 334 966 321 972 q 347 938 347 960 q 334 909 347 915 q 278 903 321 903 q 222 909 235 903 z "},"2":{"ha":694,"x_min":0,"x_max":556,"o":"m 0 104 q 21 131 0 125 q 278 139 54 139 q 543 126 518 139 q 556 104 556 121 q 535 78 556 83 q 278 69 501 69 q 13 82 38 69 q 0 104 0 88 m 13 215 q 7 218 13 215 q 0 243 0 221 q 13 272 0 265 q 69 278 26 278 q 126 272 113 278 q 139 243 139 265 q 126 215 139 221 q 69 208 113 208 q 13 215 26 208 m 88 353 q 78 356 88 353 q 69 382 69 358 q 88 411 69 406 q 174 417 106 417 q 260 411 242 417 q 278 382 278 406 q 260 353 278 358 q 174 347 242 347 q 88 353 106 347 m 231 492 q 219 494 231 492 q 208 521 208 497 q 231 550 208 544 q 347 556 253 556 q 464 550 442 556 q 486 521 486 544 q 464 492 486 497 q 347 486 442 486 q 231 492 253 486 m 430 631 q 423 634 430 631 q 417 660 417 638 q 430 688 417 682 q 486 694 443 694 q 542 688 529 694 q 556 660 556 682 q 542 631 556 638 q 486 625 529 625 q 430 631 443 625 m 430 770 q 423 773 430 770 q 417 799 417 776 q 430 827 417 821 q 486 833 443 833 q 542 827 529 833 q 556 799 556 821 q 542 770 556 776 q 486 764 529 764 q 430 770 443 764 m 13 770 q 7 773 13 770 q 0 799 0 776 q 13 827 0 821 q 69 833 26 833 q 126 827 113 833 q 139 799 139 821 q 126 770 139 776 q 69 764 113 764 q 13 770 26 764 m 69 938 q 90 965 69 960 q 278 972 117 972 q 476 960 457 972 q 486 938 486 954 q 465 910 486 915 q 278 903 439 903 q 79 915 99 903 q 69 938 69 921 z "},"3":{"ha":694,"x_min":0,"x_max":556,"o":"m 69 104 q 90 132 69 126 q 278 139 117 139 q 476 126 457 139 q 486 104 486 121 q 465 76 486 82 q 278 69 439 69 q 79 82 99 69 q 69 104 69 88 m 430 215 q 423 218 430 215 q 417 243 417 221 q 430 272 417 265 q 486 278 443 278 q 542 272 529 278 q 556 243 556 265 q 542 215 556 221 q 486 208 529 208 q 430 215 443 208 m 13 215 q 7 218 13 215 q 0 243 0 221 q 13 272 0 265 q 69 278 26 278 q 126 272 113 278 q 139 243 139 265 q 126 215 139 221 q 69 208 113 208 q 13 215 26 208 m 430 353 q 423 357 430 353 q 417 382 417 360 q 430 410 417 404 q 486 417 443 417 q 542 410 529 417 q 556 382 556 404 q 542 353 556 360 q 486 347 529 347 q 430 353 443 347 m 231 492 q 219 494 231 492 q 208 521 208 497 q 231 550 208 544 q 347 556 253 556 q 464 550 442 556 q 486 521 486 544 q 464 492 486 497 q 347 486 442 486 q 231 492 253 486 m 291 631 q 284 634 291 631 q 278 660 278 638 q 291 688 278 682 q 347 694 304 694 q 403 688 390 694 q 417 660 417 682 q 403 631 417 638 q 347 625 390 625 q 291 631 304 625 m 360 770 q 354 773 360 770 q 347 799 347 776 q 360 827 347 821 q 417 833 374 833 q 473 827 460 833 q 486 799 486 821 q 473 770 486 776 q 417 764 460 764 q 360 770 374 764 m 0 938 q 21 964 0 958 q 278 972 54 972 q 543 960 518 972 q 556 938 556 954 q 535 911 556 917 q 278 903 501 903 q 13 915 38 903 q 0 938 0 921 z "},"4":{"ha":694,"x_min":0,"x_max":556,"o":"m 291 76 q 284 79 291 76 q 278 104 278 82 q 291 133 278 126 q 347 139 304 139 q 403 133 390 139 q 417 104 417 126 q 403 76 417 82 q 347 69 390 69 q 291 76 304 69 m 291 215 q 284 218 291 215 q 278 243 278 221 q 291 272 278 265 q 347 278 304 278 q 403 272 390 278 q 417 243 417 265 q 403 215 417 221 q 347 208 390 208 q 291 215 304 208 m 0 382 q 21 408 0 403 q 278 417 54 417 q 543 404 518 417 q 556 382 556 399 q 535 356 556 361 q 278 347 501 347 q 13 360 38 347 q 0 382 0 365 m 291 492 q 284 495 291 492 q 278 521 278 499 q 291 549 278 543 q 347 556 304 556 q 403 549 390 556 q 417 521 417 543 q 403 492 417 499 q 347 486 390 486 q 291 492 304 486 m 83 492 q 76 495 83 492 q 69 521 69 499 q 83 549 69 543 q 139 556 96 556 q 195 549 182 556 q 208 521 208 543 q 195 492 208 499 q 139 486 182 486 q 83 492 96 486 m 161 631 q 150 633 161 631 q 139 660 139 636 q 161 689 139 683 q 278 694 183 694 q 394 689 372 694 q 417 660 417 683 q 394 631 417 636 q 278 625 372 625 q 161 631 183 625 m 226 769 q 217 772 226 769 q 208 799 208 775 q 226 828 208 822 q 313 833 244 833 q 399 828 381 833 q 417 799 417 822 q 399 769 417 775 q 313 764 381 764 q 226 769 244 764 m 291 909 q 284 912 291 909 q 278 938 278 915 q 291 966 278 960 q 347 972 304 972 q 403 966 390 972 q 417 938 417 960 q 403 909 417 915 q 347 903 390 903 q 291 909 304 903 z "},"5":{"ha":694,"x_min":0,"x_max":556,"o":"m 69 104 q 90 132 69 126 q 278 139 117 139 q 476 126 457 139 q 486 104 486 121 q 465 76 486 82 q 278 69 439 69 q 79 82 99 69 q 69 104 69 88 m 430 215 q 423 218 430 215 q 417 243 417 221 q 430 272 417 265 q 486 278 443 278 q 542 272 529 278 q 556 243 556 265 q 542 215 556 221 q 486 208 529 208 q 430 215 443 208 m 13 215 q 7 218 13 215 q 0 243 0 221 q 13 272 0 265 q 69 278 26 278 q 126 272 113 278 q 139 243 139 265 q 126 215 139 221 q 69 208 113 208 q 13 215 26 208 m 430 353 q 423 357 430 353 q 417 382 417 360 q 430 410 417 404 q 486 417 443 417 q 542 410 529 417 q 556 382 556 404 q 542 353 556 360 q 486 347 529 347 q 430 353 443 347 m 430 492 q 423 495 430 492 q 417 521 417 499 q 430 549 417 543 q 486 556 443 556 q 542 549 529 556 q 556 521 556 543 q 542 492 556 499 q 486 486 529 486 q 430 492 443 486 m 18 492 q 9 494 18 492 q 0 521 0 497 q 18 550 0 544 q 104 556 36 556 q 190 550 172 556 q 208 521 208 544 q 190 492 208 497 q 104 486 172 486 q 18 492 36 486 m 0 660 q 21 686 0 681 q 243 694 51 694 q 475 682 453 694 q 486 660 486 676 q 465 633 486 639 q 243 625 435 625 q 11 638 33 625 q 0 660 0 643 m 13 770 q 7 773 13 770 q 0 799 0 776 q 13 827 0 821 q 69 833 26 833 q 126 827 113 833 q 139 799 139 821 q 126 770 139 776 q 69 764 113 764 q 13 770 26 764 m 0 938 q 21 964 0 958 q 278 972 54 972 q 543 960 518 972 q 556 938 556 954 q 535 911 556 917 q 278 903 501 903 q 13 915 38 903 q 0 938 0 921 z "},"6":{"ha":694,"x_min":0,"x_max":556,"o":"m 69 104 q 90 132 69 126 q 278 139 117 139 q 476 126 457 139 q 486 104 486 121 q 465 76 486 82 q 278 69 439 69 q 79 82 99 69 q 69 104 69 88 m 430 215 q 423 218 430 215 q 417 243 417 221 q 430 272 417 265 q 486 278 443 278 q 542 272 529 278 q 556 243 556 265 q 542 215 556 221 q 486 208 529 208 q 430 215 443 208 m 13 215 q 7 218 13 215 q 0 243 0 221 q 13 272 0 265 q 69 278 26 278 q 126 272 113 278 q 139 243 139 265 q 126 215 139 221 q 69 208 113 208 q 13 215 26 208 m 430 353 q 423 357 430 353 q 417 382 417 360 q 430 410 417 404 q 486 417 443 417 q 542 410 529 417 q 556 382 556 404 q 542 353 556 360 q 486 347 529 347 q 430 353 443 347 m 18 353 q 9 356 18 353 q 0 382 0 358 q 18 411 0 406 q 104 417 36 417 q 190 411 172 417 q 208 382 208 406 q 190 353 208 358 q 104 347 172 347 q 18 353 36 347 m 0 521 q 21 547 0 542 q 243 556 51 556 q 475 543 453 556 q 486 521 486 538 q 465 494 486 500 q 243 486 435 486 q 11 499 33 486 q 0 521 0 504 m 13 631 q 7 634 13 631 q 0 660 0 638 q 13 688 0 682 q 69 694 26 694 q 126 688 113 694 q 139 660 139 682 q 126 631 139 638 q 69 625 113 625 q 13 631 26 625 m 83 770 q 76 773 83 770 q 69 799 69 776 q 83 827 69 821 q 139 833 96 833 q 195 827 182 833 q 208 799 208 821 q 195 770 208 776 q 139 764 182 764 q 83 770 96 764 m 142 919 q 141 922 142 919 q 139 938 139 925 q 142 956 139 950 q 166 967 146 963 q 217 972 186 971 q 313 972 247 972 q 408 972 378 972 q 459 967 439 971 q 483 956 479 963 q 486 938 486 950 q 483 919 486 925 q 459 908 479 913 q 408 903 439 904 q 313 903 378 903 q 217 903 247 903 q 166 908 186 904 q 142 919 146 913 z "},"7":{"ha":694,"x_min":0,"x_max":556,"o":"m 152 76 q 145 79 152 76 q 139 104 139 82 q 152 133 139 126 q 208 139 165 139 q 265 133 251 139 q 278 104 278 126 q 265 76 278 82 q 208 69 251 69 q 152 76 165 69 m 152 215 q 145 218 152 215 q 139 243 139 221 q 152 272 139 265 q 208 278 165 278 q 265 272 251 278 q 278 243 278 265 q 265 215 278 221 q 208 208 251 208 q 152 215 165 208 m 222 353 q 215 357 222 353 q 208 382 208 360 q 222 410 208 404 q 278 417 235 417 q 334 410 321 417 q 347 382 347 404 q 334 353 347 360 q 278 347 321 347 q 222 353 235 347 m 291 492 q 284 495 291 492 q 278 521 278 499 q 291 549 278 543 q 347 556 304 556 q 403 549 390 556 q 417 521 417 543 q 403 492 417 499 q 347 486 390 486 q 291 492 304 486 m 360 631 q 354 634 360 631 q 347 660 347 638 q 360 688 347 682 q 417 694 374 694 q 473 688 460 694 q 486 660 486 682 q 473 631 486 638 q 417 625 460 625 q 360 631 374 625 m 430 770 q 423 773 430 770 q 417 799 417 776 q 430 827 417 821 q 486 833 443 833 q 542 827 529 833 q 556 799 556 821 q 542 770 556 776 q 486 764 529 764 q 430 770 443 764 m 0 938 q 21 964 0 958 q 278 972 54 972 q 543 960 518 972 q 556 938 556 954 q 535 911 556 917 q 278 903 501 903 q 13 915 38 903 q 0 938 0 921 z "},"8":{"ha":694,"x_min":0,"x_max":556,"o":"m 69 104 q 90 132 69 126 q 278 139 117 139 q 476 126 457 139 q 486 104 486 121 q 465 76 486 82 q 278 69 439 69 q 79 82 99 69 q 69 104 69 88 m 430 215 q 423 218 430 215 q 417 243 417 221 q 430 272 417 265 q 486 278 443 278 q 542 272 529 278 q 556 243 556 265 q 542 215 556 221 q 486 208 529 208 q 430 215 443 208 m 13 215 q 7 218 13 215 q 0 243 0 221 q 13 272 0 265 q 69 278 26 278 q 126 272 113 278 q 139 243 139 265 q 126 215 139 221 q 69 208 113 208 q 13 215 26 208 m 430 353 q 423 357 430 353 q 417 382 417 360 q 430 410 417 404 q 486 417 443 417 q 542 410 529 417 q 556 382 556 404 q 542 353 556 360 q 486 347 529 347 q 430 353 443 347 m 13 353 q 7 357 13 353 q 0 382 0 360 q 13 410 0 404 q 69 417 26 417 q 126 410 113 417 q 139 382 139 404 q 126 353 139 360 q 69 347 113 347 q 13 353 26 347 m 69 521 q 90 549 69 543 q 278 556 117 556 q 476 543 457 556 q 486 521 486 538 q 465 493 486 499 q 278 486 439 486 q 79 499 99 486 q 69 521 69 504 m 430 631 q 423 634 430 631 q 417 660 417 638 q 430 688 417 682 q 486 694 443 694 q 542 688 529 694 q 556 660 556 682 q 542 631 556 638 q 486 625 529 625 q 430 631 443 625 m 13 631 q 7 634 13 631 q 0 660 0 638 q 13 688 0 682 q 69 694 26 694 q 126 688 113 694 q 139 660 139 682 q 126 631 139 638 q 69 625 113 625 q 13 631 26 625 m 430 770 q 423 773 430 770 q 417 799 417 776 q 430 827 417 821 q 486 833 443 833 q 542 827 529 833 q 556 799 556 821 q 542 770 556 776 q 486 764 529 764 q 430 770 443 764 m 13 770 q 7 773 13 770 q 0 799 0 776 q 13 827 0 821 q 69 833 26 833 q 126 827 113 833 q 139 799 139 821 q 126 770 139 776 q 69 764 113 764 q 13 770 26 764 m 69 938 q 90 965 69 960 q 278 972 117 972 q 476 960 457 972 q 486 938 486 954 q 465 910 486 915 q 278 903 439 903 q 79 915 99 903 q 69 938 69 921 z "},"9":{"ha":694,"x_min":0,"x_max":556,"o":"m 73 85 q 71 89 73 85 q 69 104 69 92 q 73 123 69 117 q 97 133 76 129 q 147 138 117 138 q 243 139 178 139 q 339 138 308 139 q 390 133 369 138 q 413 123 410 129 q 417 104 417 117 q 413 85 417 92 q 390 75 410 79 q 339 70 369 71 q 243 69 308 69 q 147 70 178 69 q 97 75 117 71 q 73 85 76 79 m 360 215 q 354 218 360 215 q 347 243 347 221 q 360 272 347 265 q 417 278 374 278 q 473 272 460 278 q 486 243 486 265 q 473 215 486 221 q 417 208 460 208 q 360 215 374 208 m 430 353 q 423 357 430 353 q 417 382 417 360 q 430 410 417 404 q 486 417 443 417 q 542 410 529 417 q 556 382 556 404 q 542 353 556 360 q 486 347 529 347 q 430 353 443 347 m 69 521 q 90 547 69 542 q 313 556 121 556 q 544 543 522 556 q 556 521 556 538 q 535 494 556 500 q 313 486 504 486 q 81 499 103 486 q 69 521 69 504 m 365 631 q 356 633 365 631 q 347 660 347 636 q 365 689 347 683 q 451 694 383 694 q 538 689 521 694 q 556 660 556 683 q 538 631 556 636 q 451 625 521 625 q 365 631 383 625 m 13 631 q 7 634 13 631 q 0 660 0 638 q 13 688 0 682 q 69 694 26 694 q 126 688 113 694 q 139 660 139 682 q 126 631 139 638 q 69 625 113 625 q 13 631 26 625 m 430 770 q 423 773 430 770 q 417 799 417 776 q 430 827 417 821 q 486 833 443 833 q 542 827 529 833 q 556 799 556 821 q 542 770 556 776 q 486 764 529 764 q 430 770 443 764 m 13 770 q 7 773 13 770 q 0 799 0 776 q 13 827 0 821 q 69 833 26 833 q 126 827 113 833 q 139 799 139 821 q 126 770 139 776 q 69 764 113 764 q 13 770 26 764 m 69 938 q 90 965 69 960 q 278 972 117 972 q 476 960 457 972 q 486 938 486 954 q 465 910 486 915 q 278 903 439 903 q 79 915 99 903 q 69 938 69 921 z "},"\u0000":{"ha":694,"x_min":0,"x_max":556,"o":"m 222 76 q 215 79 222 76 q 208 104 208 82 q 222 133 208 126 q 278 139 235 139 q 334 133 321 139 q 347 104 347 126 q 334 76 347 82 q 278 69 321 69 q 222 76 235 69 m 222 353 q 215 357 222 353 q 208 382 208 360 q 222 410 208 404 q 278 417 235 417 q 334 410 321 417 q 347 382 347 404 q 334 353 347 360 q 278 347 321 347 q 222 353 235 347 m 222 492 q 215 495 222 492 q 208 521 208 499 q 222 549 208 543 q 278 556 235 556 q 334 549 321 556 q 347 521 347 543 q 334 492 347 499 q 278 486 321 486 q 222 492 235 486 m 88 631 q 78 633 88 631 q 69 660 69 636 q 88 689 69 683 q 174 694 106 694 q 260 689 242 694 q 278 660 278 683 q 260 631 278 636 q 174 625 242 625 q 88 631 106 625 m 430 770 q 423 773 430 770 q 417 799 417 776 q 430 827 417 821 q 486 833 443 833 q 542 827 529 833 q 556 799 556 821 q 542 770 556 776 q 486 764 529 764 q 430 770 443 764 m 13 770 q 7 773 13 770 q 0 799 0 776 q 13 827 0 821 q 69 833 26 833 q 126 827 113 833 q 139 799 139 821 q 126 770 139 776 q 69 764 113 764 q 13 770 26 764 m 69 938 q 90 965 69 960 q 278 972 117 972 q 476 960 457 972 q 486 938 486 954 q 465 910 486 915 q 278 903 439 903 q 79 915 99 903 q 69 938 69 921 z "},"\r":{"ha":694,"x_min":208,"x_max":556,"o":"m 222 -202 q 215 -199 222 -202 q 208 -174 208 -196 q 222 -145 208 -151 q 278 -139 235 -139 q 334 -145 321 -139 q 347 -174 347 -151 q 334 -202 347 -196 q 278 -208 321 -208 q 222 -202 235 -208 m 222 -63 q 215 -60 222 -63 q 208 -35 208 -57 q 222 -6 208 -12 q 278 0 235 0 q 334 -6 321 0 q 347 -35 347 -12 q 334 -63 347 -57 q 278 -69 321 -69 q 222 -63 235 -69 m 222 76 q 215 79 222 76 q 208 104 208 82 q 222 133 208 126 q 278 139 235 139 q 334 133 321 139 q 347 104 347 126 q 334 76 347 82 q 278 69 321 69 q 222 76 235 69 m 222 215 q 215 218 222 215 q 208 243 208 221 q 222 272 208 265 q 278 278 235 278 q 334 272 321 278 q 347 243 347 265 q 334 215 347 221 q 278 208 321 208 q 222 215 235 208 m 222 353 q 215 357 222 353 q 208 382 208 360 q 222 410 208 404 q 278 417 235 417 q 334 410 321 417 q 347 382 347 404 q 334 353 347 360 q 278 347 321 347 q 222 353 235 347 m 212 502 q 210 505 212 502 q 208 521 208 508 q 212 540 208 533 q 235 550 215 546 q 286 555 256 554 q 382 556 317 556 q 478 555 447 556 q 528 550 508 554 q 552 540 549 546 q 556 521 556 533 q 552 502 556 508 q 528 492 549 496 q 478 487 508 488 q 382 486 447 486 q 286 487 317 486 q 235 492 256 488 q 212 502 215 496 z "},"\u0001":{"ha":694,"x_min":0,"x_max":556,"o":"m 222 76 q 215 79 222 76 q 208 104 208 82 q 222 133 208 126 q 278 139 235 139 q 334 133 321 139 q 347 104 347 126 q 334 76 347 82 q 278 69 321 69 q 222 76 235 69 m 161 214 q 150 217 161 214 q 139 243 139 219 q 161 272 139 267 q 278 278 183 278 q 394 272 372 278 q 417 243 417 267 q 394 214 417 219 q 278 208 372 208 q 161 214 183 208 m 69 382 q 90 410 69 404 q 278 417 117 417 q 476 404 457 417 q 486 382 486 399 q 465 354 486 360 q 278 347 439 347 q 79 360 99 347 q 69 382 69 365 m 0 521 q 21 547 0 542 q 278 556 54 556 q 543 543 518 556 q 556 521 556 538 q 535 494 556 500 q 278 486 501 486 q 13 499 38 486 q 0 521 0 504 m 69 660 q 90 688 69 682 q 278 694 117 694 q 476 682 457 694 q 486 660 486 676 q 465 632 486 638 q 278 625 439 625 q 79 638 99 625 q 69 660 69 643 m 161 769 q 150 772 161 769 q 139 799 139 775 q 161 828 139 822 q 278 833 183 833 q 394 828 372 833 q 417 799 417 822 q 394 769 417 775 q 278 764 372 764 q 161 769 183 764 m 222 909 q 215 912 222 909 q 208 938 208 915 q 222 966 208 960 q 278 972 235 972 q 334 966 321 972 q 347 938 347 960 q 334 909 347 915 q 278 903 321 903 q 222 909 235 903 z "},"\u0002":{"ha":694,"x_min":0,"x_max":556,"o":"m 430 76 q 423 79 430 76 q 417 104 417 82 q 430 133 417 126 q 486 139 443 139 q 542 133 529 139 q 556 104 556 126 q 542 76 556 82 q 486 69 529 69 q 430 76 443 69 m 222 76 q 215 79 222 76 q 208 104 208 82 q 222 133 208 126 q 278 139 235 139 q 334 133 321 139 q 347 104 347 126 q 334 76 347 82 q 278 69 321 69 q 222 76 235 69 m 13 76 q 7 79 13 76 q 0 104 0 82 q 13 133 0 126 q 69 139 26 139 q 126 133 113 139 q 139 104 139 126 q 126 76 139 82 q 69 69 113 69 q 13 76 26 69 m 360 215 q 354 218 360 215 q 347 243 347 221 q 360 272 347 265 q 417 278 374 278 q 473 272 460 278 q 486 243 486 265 q 473 215 486 221 q 417 208 460 208 q 360 215 374 208 m 83 215 q 76 218 83 215 q 69 243 69 221 q 83 272 69 265 q 139 278 96 278 q 195 272 182 278 q 208 243 208 265 q 195 215 208 221 q 139 208 182 208 q 83 215 96 208 m 430 353 q 423 357 430 353 q 417 382 417 360 q 430 410 417 404 q 486 417 443 417 q 542 410 529 417 q 556 382 556 404 q 542 353 556 360 q 486 347 529 347 q 430 353 443 347 m 222 353 q 215 357 222 353 q 208 382 208 360 q 222 410 208 404 q 278 417 235 417 q 334 410 321 417 q 347 382 347 404 q 334 353 347 360 q 278 347 321 347 q 222 353 235 347 m 13 353 q 7 357 13 353 q 0 382 0 360 q 13 410 0 404 q 69 417 26 417 q 126 410 113 417 q 139 382 139 404 q 126 353 139 360 q 69 347 113 347 q 13 353 26 347 m 360 492 q 354 495 360 492 q 347 521 347 499 q 360 549 347 543 q 417 556 374 556 q 473 549 460 556 q 486 521 486 543 q 473 492 486 499 q 417 486 460 486 q 360 492 374 486 m 83 492 q 76 495 83 492 q 69 521 69 499 q 83 549 69 543 q 139 556 96 556 q 195 549 182 556 q 208 521 208 543 q 195 492 208 499 q 139 486 182 486 q 83 492 96 486 m 430 631 q 423 634 430 631 q 417 660 417 638 q 430 688 417 682 q 486 694 443 694 q 542 688 529 694 q 556 660 556 682 q 542 631 556 638 q 486 625 529 625 q 430 631 443 625 m 222 631 q 215 634 222 631 q 208 660 208 638 q 222 688 208 682 q 278 694 235 694 q 334 688 321 694 q 347 660 347 682 q 334 631 347 638 q 278 625 321 625 q 222 631 235 625 m 13 631 q 7 634 13 631 q 0 660 0 638 q 13 688 0 682 q 69 694 26 694 q 126 688 113 694 q 139 660 139 682 q 126 631 139 638 q 69 625 113 625 q 13 631 26 625 m 360 770 q 354 773 360 770 q 347 799 347 776 q 360 827 347 821 q 417 833 374 833 q 473 827 460 833 q 486 799 486 821 q 473 770 486 776 q 417 764 460 764 q 360 770 374 764 m 83 770 q 76 773 83 770 q 69 799 69 776 q 83 827 69 821 q 139 833 96 833 q 195 827 182 833 q 208 799 208 821 q 195 770 208 776 q 139 764 182 764 q 83 770 96 764 m 430 909 q 423 912 430 909 q 417 938 417 915 q 430 966 417 960 q 486 972 443 972 q 542 966 529 972 q 556 938 556 960 q 542 909 556 915 q 486 903 529 903 q 430 909 443 903 m 222 909 q 215 912 222 909 q 208 938 208 915 q 222 966 208 960 q 278 972 235 972 q 334 966 321 972 q 347 938 347 960 q 334 909 347 915 q 278 903 321 903 q 222 909 235 903 m 13 909 q 7 912 13 909 q 0 938 0 915 q 13 966 0 960 q 69 972 26 972 q 126 966 113 972 q 139 938 139 960 q 126 909 139 915 q 69 903 113 903 q 13 909 26 903 z "},"\u0003":{"ha":694,"x_min":0,"x_max":556,"o":"m 291 -202 q 284 -199 291 -202 q 278 -174 278 -196 q 291 -145 278 -151 q 347 -139 304 -139 q 403 -145 390 -139 q 417 -174 417 -151 q 403 -202 417 -196 q 347 -208 390 -208 q 291 -202 304 -208 m 291 -63 q 284 -60 291 -63 q 278 -35 278 -57 q 291 -6 278 -12 q 347 0 304 0 q 403 -6 390 0 q 417 -35 417 -12 q 403 -63 417 -57 q 347 -69 390 -69 q 291 -63 304 -69 m 291 76 q 284 79 291 76 q 278 104 278 82 q 291 133 278 126 q 347 139 304 139 q 403 133 390 139 q 417 104 417 126 q 403 76 417 82 q 347 69 390 69 q 291 76 304 69 m 291 215 q 284 218 291 215 q 278 243 278 221 q 291 272 278 265 q 347 278 304 278 q 403 272 390 278 q 417 243 417 265 q 403 215 417 221 q 347 208 390 208 q 291 215 304 208 m 0 382 q 21 408 0 403 q 278 417 54 417 q 543 404 518 417 q 556 382 556 399 q 535 356 556 361 q 278 347 501 347 q 13 360 38 347 q 0 382 0 365 m 222 492 q 215 495 222 492 q 208 521 208 499 q 222 549 208 543 q 278 556 235 556 q 334 549 321 556 q 347 521 347 543 q 334 492 347 499 q 278 486 321 486 q 222 492 235 486 m 13 492 q 7 495 13 492 q 0 521 0 499 q 13 549 0 543 q 69 556 26 556 q 126 549 113 556 q 139 521 139 543 q 126 492 139 499 q 69 486 113 486 q 13 492 26 486 m 3 641 q 2 644 3 641 q 0 660 0 647 q 3 678 0 672 q 27 689 7 685 q 78 694 47 693 q 174 694 108 694 q 269 694 239 694 q 320 689 300 693 q 344 678 340 685 q 347 660 347 672 q 344 641 347 647 q 320 631 340 635 q 269 626 300 626 q 174 625 239 625 q 78 626 108 625 q 27 631 47 626 q 3 641 7 635 m 222 770 q 215 773 222 770 q 208 799 208 776 q 222 827 208 821 q 278 833 235 833 q 334 827 321 833 q 347 799 347 821 q 334 770 347 776 q 278 764 321 764 q 222 770 235 764 m 13 770 q 7 773 13 770 q 0 799 0 776 q 13 827 0 821 q 69 833 26 833 q 126 827 113 833 q 139 799 139 821 q 126 770 139 776 q 69 764 113 764 q 13 770 26 764 m 222 909 q 215 912 222 909 q 208 938 208 915 q 222 966 208 960 q 278 972 235 972 q 334 966 321 972 q 347 938 347 960 q 334 909 347 915 q 278 903 321 903 q 222 909 235 903 m 13 909 q 7 912 13 909 q 0 938 0 915 q 13 966 0 960 q 69 972 26 972 q 126 966 113 972 q 139 938 139 960 q 126 909 139 915 q 69 903 113 903 q 13 909 26 903 z "},"\u0004":{"ha":694,"x_min":0,"x_max":556,"o":"m 222 -202 q 215 -199 222 -202 q 208 -174 208 -196 q 222 -145 208 -151 q 278 -139 235 -139 q 334 -145 321 -139 q 347 -174 347 -151 q 334 -202 347 -196 q 278 -208 321 -208 q 222 -202 235 -208 m 222 -63 q 215 -60 222 -63 q 208 -35 208 -57 q 222 -6 208 -12 q 278 0 235 0 q 334 -6 321 0 q 347 -35 347 -12 q 334 -63 347 -57 q 278 -69 321 -69 q 222 -63 235 -69 m 231 75 q 219 78 231 75 q 208 104 208 81 q 231 133 208 128 q 347 139 253 139 q 464 133 442 139 q 486 104 486 128 q 464 75 486 81 q 347 69 442 69 q 231 75 253 69 m 222 215 q 215 218 222 215 q 208 243 208 221 q 222 272 208 265 q 278 278 235 278 q 334 272 321 278 q 347 243 347 265 q 334 215 347 221 q 278 208 321 208 q 222 215 235 208 m 212 363 q 210 366 212 363 q 208 382 208 369 q 212 401 208 394 q 235 411 215 407 q 286 416 256 415 q 382 417 317 417 q 478 416 447 417 q 528 411 508 415 q 552 401 549 407 q 556 382 556 394 q 552 363 556 369 q 528 353 549 357 q 478 348 508 349 q 382 347 447 347 q 286 348 317 347 q 235 353 256 349 q 212 363 215 357 m 13 353 q 7 357 13 353 q 0 382 0 360 q 13 410 0 404 q 69 417 26 417 q 126 410 113 417 q 139 382 139 404 q 126 353 139 360 q 69 347 113 347 q 13 353 26 347 m 13 492 q 7 495 13 492 q 0 521 0 499 q 13 549 0 543 q 69 556 26 556 q 126 549 113 556 q 139 521 139 543 q 126 492 139 499 q 69 486 113 486 q 13 492 26 486 m 22 631 q 11 633 22 631 q 0 660 0 636 q 22 689 0 683 q 139 694 44 694 q 256 689 233 694 q 278 660 278 683 q 256 631 278 636 q 139 625 233 625 q 22 631 44 625 m 13 770 q 7 773 13 770 q 0 799 0 776 q 13 827 0 821 q 69 833 26 833 q 126 827 113 833 q 139 799 139 821 q 126 770 139 776 q 69 764 113 764 q 13 770 26 764 m 3 919 q 2 922 3 919 q 0 938 0 925 q 3 956 0 950 q 27 967 7 963 q 78 972 47 971 q 174 972 108 972 q 269 972 239 972 q 320 967 300 971 q 344 956 340 963 q 347 938 347 950 q 344 919 347 925 q 320 908 340 913 q 269 903 300 904 q 174 903 239 903 q 78 903 108 903 q 27 908 47 904 q 3 919 7 913 z "},"\u0005":{"ha":694,"x_min":0,"x_max":556,"o":"m 430 -202 q 423 -199 430 -202 q 417 -174 417 -196 q 430 -145 417 -151 q 486 -139 443 -139 q 542 -145 529 -139 q 556 -174 556 -151 q 542 -202 556 -196 q 486 -208 529 -208 q 430 -202 443 -208 m 222 -202 q 215 -199 222 -202 q 208 -174 208 -196 q 222 -145 208 -151 q 278 -139 235 -139 q 334 -145 321 -139 q 347 -174 347 -151 q 334 -202 347 -196 q 278 -208 321 -208 q 222 -202 235 -208 m 430 -63 q 423 -60 430 -63 q 417 -35 417 -57 q 430 -6 417 -12 q 486 0 443 0 q 542 -6 529 0 q 556 -35 556 -12 q 542 -63 556 -57 q 486 -69 529 -69 q 430 -63 443 -69 m 222 -63 q 215 -60 222 -63 q 208 -35 208 -57 q 222 -6 208 -12 q 278 0 235 0 q 334 -6 321 0 q 347 -35 347 -12 q 334 -63 347 -57 q 278 -69 321 -69 q 222 -63 235 -69 m 231 75 q 219 78 231 75 q 208 104 208 81 q 231 133 208 128 q 347 139 253 139 q 464 133 442 139 q 486 104 486 128 q 464 75 486 81 q 347 69 442 69 q 231 75 253 69 m 430 215 q 423 218 430 215 q 417 243 417 221 q 430 272 417 265 q 486 278 443 278 q 542 272 529 278 q 556 243 556 265 q 542 215 556 221 q 486 208 529 208 q 430 215 443 208 m 222 215 q 215 218 222 215 q 208 243 208 221 q 222 272 208 265 q 278 278 235 278 q 334 272 321 278 q 347 243 347 265 q 334 215 347 221 q 278 208 321 208 q 222 215 235 208 m 69 382 q 90 410 69 404 q 278 417 117 417 q 476 404 457 417 q 486 382 486 399 q 465 354 486 360 q 278 347 439 347 q 79 360 99 347 q 69 382 69 365 m 13 492 q 7 495 13 492 q 0 521 0 499 q 13 549 0 543 q 69 556 26 556 q 126 549 113 556 q 139 521 139 543 q 126 492 139 499 q 69 486 113 486 q 13 492 26 486 m 13 631 q 7 634 13 631 q 0 660 0 638 q 13 688 0 682 q 69 694 26 694 q 126 688 113 694 q 139 660 139 682 q 126 631 139 638 q 69 625 113 625 q 13 631 26 625 m 13 770 q 7 773 13 770 q 0 799 0 776 q 13 827 0 821 q 69 833 26 833 q 126 827 113 833 q 139 799 139 821 q 126 770 139 776 q 69 764 113 764 q 13 770 26 764 m 92 908 q 81 911 92 908 q 69 938 69 914 q 92 967 69 961 q 208 972 114 972 q 325 967 303 972 q 347 938 347 961 q 325 908 347 914 q 208 903 303 903 q 92 908 114 903 z "},"\u0006":{"ha":694,"x_min":0,"x_max":556,"o":"m 222 -202 q 215 -199 222 -202 q 208 -174 208 -196 q 222 -145 208 -151 q 278 -139 235 -139 q 334 -145 321 -139 q 347 -174 347 -151 q 334 -202 347 -196 q 278 -208 321 -208 q 222 -202 235 -208 m 222 -63 q 215 -60 222 -63 q 208 -35 208 -57 q 222 -6 208 -12 q 278 0 235 0 q 334 -6 321 0 q 347 -35 347 -12 q 334 -63 347 -57 q 278 -69 321 -69 q 222 -63 235 -69 m 231 75 q 219 78 231 75 q 208 104 208 81 q 231 133 208 128 q 347 139 253 139 q 464 133 442 139 q 486 104 486 128 q 464 75 486 81 q 347 69 442 69 q 231 75 253 69 m 222 215 q 215 218 222 215 q 208 243 208 221 q 222 272 208 265 q 278 278 235 278 q 334 272 321 278 q 347 243 347 265 q 334 215 347 221 q 278 208 321 208 q 222 215 235 208 m 0 382 q 21 408 0 403 q 278 417 54 417 q 543 404 518 417 q 556 382 556 399 q 535 356 556 361 q 278 347 501 347 q 13 360 38 347 q 0 382 0 365 m 13 492 q 7 495 13 492 q 0 521 0 499 q 13 549 0 543 q 69 556 26 556 q 126 549 113 556 q 139 521 139 543 q 126 492 139 499 q 69 486 113 486 q 13 492 26 486 m 13 631 q 7 634 13 631 q 0 660 0 638 q 13 688 0 682 q 69 694 26 694 q 126 688 113 694 q 139 660 139 682 q 126 631 139 638 q 69 625 113 625 q 13 631 26 625 m 13 770 q 7 773 13 770 q 0 799 0 776 q 13 827 0 821 q 69 833 26 833 q 126 827 113 833 q 139 799 139 821 q 126 770 139 776 q 69 764 113 764 q 13 770 26 764 m 13 909 q 7 912 13 909 q 0 938 0 915 q 13 966 0 960 q 69 972 26 972 q 126 966 113 972 q 139 938 139 960 q 126 909 139 915 q 69 903 113 903 q 13 909 26 903 z "},"\u0007":{"ha":694,"x_min":69,"x_max":486,"o":"m 161 631 q 150 633 161 631 q 139 660 139 636 q 161 689 139 683 q 278 694 183 694 q 394 689 372 694 q 417 660 417 683 q 394 631 417 636 q 278 625 372 625 q 161 631 183 625 m 360 770 q 354 773 360 770 q 347 799 347 776 q 360 827 347 821 q 417 833 374 833 q 473 827 460 833 q 486 799 486 821 q 473 770 486 776 q 417 764 460 764 q 360 770 374 764 m 83 770 q 76 773 83 770 q 69 799 69 776 q 83 827 69 821 q 139 833 96 833 q 195 827 182 833 q 208 799 208 821 q 195 770 208 776 q 139 764 182 764 q 83 770 96 764 m 161 908 q 150 911 161 908 q 139 938 139 914 q 161 967 139 961 q 278 972 183 972 q 394 967 372 972 q 417 938 417 961 q 394 908 417 914 q 278 903 372 903 q 161 908 183 903 z "},"\b":{"ha":694,"x_min":0,"x_max":556,"o":"m 0 104 q 21 131 0 125 q 278 139 54 139 q 543 126 518 139 q 556 104 556 121 q 535 78 556 83 q 278 69 501 69 q 13 82 38 69 q 0 104 0 88 m 222 215 q 215 218 222 215 q 208 243 208 221 q 222 272 208 265 q 278 278 235 278 q 334 272 321 278 q 347 243 347 265 q 334 215 347 221 q 278 208 321 208 q 222 215 235 208 m 222 353 q 215 357 222 353 q 208 382 208 360 q 222 410 208 404 q 278 417 235 417 q 334 410 321 417 q 347 382 347 404 q 334 353 347 360 q 278 347 321 347 q 222 353 235 347 m 0 521 q 21 547 0 542 q 278 556 54 556 q 543 543 518 556 q 556 521 556 538 q 535 494 556 500 q 278 486 501 486 q 13 499 38 486 q 0 521 0 504 m 222 631 q 215 634 222 631 q 208 660 208 638 q 222 688 208 682 q 278 694 235 694 q 334 688 321 694 q 347 660 347 682 q 334 631 347 638 q 278 625 321 625 q 222 631 235 625 m 222 770 q 215 773 222 770 q 208 799 208 776 q 222 827 208 821 q 278 833 235 833 q 334 827 321 833 q 347 799 347 821 q 334 770 347 776 q 278 764 321 764 q 222 770 235 764 z "},"\t":{"ha":694,"x_min":0,"x_max":556,"o":"m 212 -192 q 210 -189 212 -192 q 208 -174 208 -186 q 212 -155 208 -161 q 235 -144 215 -149 q 286 -140 256 -140 q 382 -139 317 -139 q 478 -140 447 -139 q 528 -144 508 -140 q 552 -155 549 -149 q 556 -174 556 -161 q 552 -192 556 -186 q 528 -203 549 -199 q 478 -208 508 -207 q 382 -208 447 -208 q 286 -208 317 -208 q 235 -203 256 -207 q 212 -192 215 -199 m 222 -63 q 215 -60 222 -63 q 208 -35 208 -57 q 222 -6 208 -12 q 278 0 235 0 q 334 -6 321 0 q 347 -35 347 -12 q 334 -63 347 -57 q 278 -69 321 -69 q 222 -63 235 -69 m 222 76 q 215 79 222 76 q 208 104 208 82 q 222 133 208 126 q 278 139 235 139 q 334 133 321 139 q 347 104 347 126 q 334 76 347 82 q 278 69 321 69 q 222 76 235 69 m 222 215 q 215 218 222 215 q 208 243 208 221 q 222 272 208 265 q 278 278 235 278 q 334 272 321 278 q 347 243 347 265 q 334 215 347 221 q 278 208 321 208 q 222 215 235 208 m 226 353 q 217 356 226 353 q 208 382 208 358 q 226 411 208 406 q 313 417 244 417 q 399 411 381 417 q 417 382 417 406 q 399 353 417 358 q 313 347 381 347 q 226 353 244 347 m 13 353 q 7 357 13 353 q 0 382 0 360 q 13 410 0 404 q 69 417 26 417 q 126 410 113 417 q 139 382 139 404 q 126 353 139 360 q 69 347 113 347 q 13 353 26 347 m 226 492 q 217 494 226 492 q 208 521 208 497 q 226 550 208 544 q 313 556 244 556 q 399 550 381 556 q 417 521 417 544 q 399 492 417 497 q 313 486 381 486 q 226 492 244 486 m 13 492 q 7 495 13 492 q 0 521 0 499 q 13 549 0 543 q 69 556 26 556 q 126 549 113 556 q 139 521 139 543 q 126 492 139 499 q 69 486 113 486 q 13 492 26 486 m 0 660 q 21 688 0 682 q 208 694 47 694 q 407 682 388 694 q 417 660 417 676 q 396 632 417 638 q 208 625 369 625 q 10 638 29 625 q 0 660 0 643 m 291 770 q 284 773 291 770 q 278 799 278 776 q 291 827 278 821 q 347 833 304 833 q 403 827 390 833 q 417 799 417 821 q 403 770 417 776 q 347 764 390 764 q 291 770 304 764 m 18 769 q 9 772 18 769 q 0 799 0 775 q 18 828 0 822 q 104 833 36 833 q 190 828 172 833 q 208 799 208 822 q 190 769 208 775 q 104 764 172 764 q 18 769 36 764 m 291 909 q 284 912 291 909 q 278 938 278 915 q 291 966 278 960 q 347 972 304 972 q 403 966 390 972 q 417 938 417 960 q 403 909 417 915 q 347 903 390 903 q 291 909 304 903 m 13 909 q 7 912 13 909 q 0 938 0 915 q 13 966 0 960 q 69 972 26 972 q 126 966 113 972 q 139 938 139 960 q 126 909 139 915 q 69 903 113 903 q 13 909 26 903 z "},"\n":{"ha":694,"x_min":0,"x_max":556,"o":"m 291 -202 q 284 -199 291 -202 q 278 -174 278 -196 q 291 -145 278 -151 q 347 -139 304 -139 q 403 -145 390 -139 q 417 -174 417 -151 q 403 -202 417 -196 q 347 -208 390 -208 q 291 -202 304 -208 m 291 -63 q 284 -60 291 -63 q 278 -35 278 -57 q 291 -6 278 -12 q 347 0 304 0 q 403 -6 390 0 q 417 -35 417 -12 q 403 -63 417 -57 q 347 -69 390 -69 q 291 -63 304 -69 m 291 76 q 284 79 291 76 q 278 104 278 82 q 291 133 278 126 q 347 139 304 139 q 403 133 390 139 q 417 104 417 126 q 403 76 417 82 q 347 69 390 69 q 291 76 304 69 m 291 215 q 284 218 291 215 q 278 243 278 221 q 291 272 278 265 q 347 278 304 278 q 403 272 390 278 q 417 243 417 265 q 403 215 417 221 q 347 208 390 208 q 291 215 304 208 m 139 382 q 160 410 139 404 q 347 417 186 417 q 546 404 526 417 q 556 382 556 399 q 535 354 556 360 q 347 347 508 347 q 149 360 168 347 q 139 382 139 365 m 92 492 q 81 494 92 492 q 69 521 69 497 q 92 550 69 544 q 208 556 114 556 q 325 550 303 556 q 347 521 347 544 q 325 492 347 497 q 208 486 303 486 q 92 492 114 486 m 92 631 q 81 633 92 631 q 69 660 69 636 q 92 689 69 683 q 208 694 114 694 q 325 689 303 694 q 347 660 347 683 q 325 631 347 636 q 208 625 303 625 q 92 631 114 625 m 291 770 q 284 773 291 770 q 278 799 278 776 q 291 827 278 821 q 347 833 304 833 q 403 827 390 833 q 417 799 417 821 q 403 770 417 776 q 347 764 390 764 q 291 770 304 764 m 13 770 q 7 773 13 770 q 0 799 0 776 q 13 827 0 821 q 69 833 26 833 q 126 827 113 833 q 139 799 139 821 q 126 770 139 776 q 69 764 113 764 q 13 770 26 764 m 291 909 q 284 912 291 909 q 278 938 278 915 q 291 966 278 960 q 347 972 304 972 q 403 966 390 972 q 417 938 417 960 q 403 909 417 915 q 347 903 390 903 q 291 909 304 903 m 13 909 q 7 912 13 909 q 0 938 0 915 q 13 966 0 960 q 69 972 26 972 q 126 966 113 972 q 139 938 139 960 q 126 909 139 915 q 69 903 113 903 q 13 909 26 903 z "},"\u000b":{"ha":694,"x_min":0,"x_max":347,"o":"m 3 502 q 2 505 3 502 q 0 521 0 508 q 3 540 0 533 q 27 550 7 546 q 78 555 47 554 q 174 556 108 556 q 269 555 239 556 q 320 550 300 554 q 344 540 340 546 q 347 521 347 533 q 344 502 347 508 q 320 492 340 496 q 269 487 300 488 q 174 486 239 486 q 78 487 108 486 q 27 492 47 488 q 3 502 7 496 m 222 631 q 215 634 222 631 q 208 660 208 638 q 222 688 208 682 q 278 694 235 694 q 334 688 321 694 q 347 660 347 682 q 334 631 347 638 q 278 625 321 625 q 222 631 235 625 m 222 770 q 215 773 222 770 q 208 799 208 776 q 222 827 208 821 q 278 833 235 833 q 334 827 321 833 q 347 799 347 821 q 334 770 347 776 q 278 764 321 764 q 222 770 235 764 m 222 909 q 215 912 222 909 q 208 938 208 915 q 222 966 208 960 q 278 972 235 972 q 334 966 321 972 q 347 938 347 960 q 334 909 347 915 q 278 903 321 903 q 222 909 235 903 m 222 1048 q 215 1051 222 1048 q 208 1076 208 1054 q 222 1105 208 1099 q 278 1111 235 1111 q 334 1105 321 1111 q 347 1076 347 1099 q 334 1048 347 1054 q 278 1042 321 1042 q 222 1048 235 1042 z "},"\f":{"ha":694,"x_min":0,"x_max":347,"o":"m 222 -202 q 215 -199 222 -202 q 208 -174 208 -196 q 222 -145 208 -151 q 278 -139 235 -139 q 334 -145 321 -139 q 347 -174 347 -151 q 334 -202 347 -196 q 278 -208 321 -208 q 222 -202 235 -208 m 222 -63 q 215 -60 222 -63 q 208 -35 208 -57 q 222 -6 208 -12 q 278 0 235 0 q 334 -6 321 0 q 347 -35 347 -12 q 334 -63 347 -57 q 278 -69 321 -69 q 222 -63 235 -69 m 222 76 q 215 79 222 76 q 208 104 208 82 q 222 133 208 126 q 278 139 235 139 q 334 133 321 139 q 347 104 347 126 q 334 76 347 82 q 278 69 321 69 q 222 76 235 69 m 222 215 q 215 218 222 215 q 208 243 208 221 q 222 272 208 265 q 278 278 235 278 q 334 272 321 278 q 347 243 347 265 q 334 215 347 221 q 278 208 321 208 q 222 215 235 208 m 222 353 q 215 357 222 353 q 208 382 208 360 q 222 410 208 404 q 278 417 235 417 q 334 410 321 417 q 347 382 347 404 q 334 353 347 360 q 278 347 321 347 q 222 353 235 347 m 3 502 q 2 505 3 502 q 0 521 0 508 q 3 540 0 533 q 27 550 7 546 q 78 555 47 554 q 174 556 108 556 q 269 555 239 556 q 320 550 300 554 q 344 540 340 546 q 347 521 347 533 q 344 502 347 508 q 320 492 340 496 q 269 487 300 488 q 174 486 239 486 q 78 487 108 486 q 27 492 47 488 q 3 502 7 496 z "},"\u000e":{"ha":694,"x_min":208,"x_max":556,"o":"m 212 502 q 210 505 212 502 q 208 521 208 508 q 212 540 208 533 q 235 550 215 546 q 286 555 256 554 q 382 556 317 556 q 478 555 447 556 q 528 550 508 554 q 552 540 549 546 q 556 521 556 533 q 552 502 556 508 q 528 492 549 496 q 478 487 508 488 q 382 486 447 486 q 286 487 317 486 q 235 492 256 488 q 212 502 215 496 m 222 631 q 215 634 222 631 q 208 660 208 638 q 222 688 208 682 q 278 694 235 694 q 334 688 321 694 q 347 660 347 682 q 334 631 347 638 q 278 625 321 625 q 222 631 235 625 m 222 770 q 215 773 222 770 q 208 799 208 776 q 222 827 208 821 q 278 833 235 833 q 334 827 321 833 q 347 799 347 821 q 334 770 347 776 q 278 764 321 764 q 222 770 235 764 m 222 909 q 215 912 222 909 q 208 938 208 915 q 222 966 208 960 q 278 972 235 972 q 334 966 321 972 q 347 938 347 960 q 334 909 347 915 q 278 903 321 903 q 222 909 235 903 m 222 1048 q 215 1051 222 1048 q 208 1076 208 1054 q 222 1105 208 1099 q 278 1111 235 1111 q 334 1105 321 1111 q 347 1076 347 1099 q 334 1048 347 1054 q 278 1042 321 1042 q 222 1048 235 1042 z "},"\u000f":{"ha":694,"x_min":0,"x_max":556,"o":"m 222 -202 q 215 -199 222 -202 q 208 -174 208 -196 q 222 -145 208 -151 q 278 -139 235 -139 q 334 -145 321 -139 q 347 -174 347 -151 q 334 -202 347 -196 q 278 -208 321 -208 q 222 -202 235 -208 m 222 -63 q 215 -60 222 -63 q 208 -35 208 -57 q 222 -6 208 -12 q 278 0 235 0 q 334 -6 321 0 q 347 -35 347 -12 q 334 -63 347 -57 q 278 -69 321 -69 q 222 -63 235 -69 m 222 76 q 215 79 222 76 q 208 104 208 82 q 222 133 208 126 q 278 139 235 139 q 334 133 321 139 q 347 104 347 126 q 334 76 347 82 q 278 69 321 69 q 222 76 235 69 m 222 215 q 215 218 222 215 q 208 243 208 221 q 222 272 208 265 q 278 278 235 278 q 334 272 321 278 q 347 243 347 265 q 334 215 347 221 q 278 208 321 208 q 222 215 235 208 m 222 353 q 215 357 222 353 q 208 382 208 360 q 222 410 208 404 q 278 417 235 417 q 334 410 321 417 q 347 382 347 404 q 334 353 347 360 q 278 347 321 347 q 222 353 235 347 m 0 521 q 21 547 0 542 q 278 556 54 556 q 543 543 518 556 q 556 521 556 538 q 535 494 556 500 q 278 486 501 486 q 13 499 38 486 q 0 521 0 504 m 222 631 q 215 634 222 631 q 208 660 208 638 q 222 688 208 682 q 278 694 235 694 q 334 688 321 694 q 347 660 347 682 q 334 631 347 638 q 278 625 321 625 q 222 631 235 625 m 222 770 q 215 773 222 770 q 208 799 208 776 q 222 827 208 821 q 278 833 235 833 q 334 827 321 833 q 347 799 347 821 q 334 770 347 776 q 278 764 321 764 q 222 770 235 764 m 222 909 q 215 912 222 909 q 208 938 208 915 q 222 966 208 960 q 278 972 235 972 q 334 966 321 972 q 347 938 347 960 q 334 909 347 915 q 278 903 321 903 q 222 909 235 903 m 222 1048 q 215 1051 222 1048 q 208 1076 208 1054 q 222 1105 208 1099 q 278 1111 235 1111 q 334 1105 321 1111 q 347 1076 347 1099 q 334 1048 347 1054 q 278 1042 321 1042 q 222 1048 235 1042 z "},"\u0010":{"ha":694,"x_min":0,"x_max":556,"o":"m 0 1076 q 21 1103 0 1097 q 278 1111 54 1111 q 543 1099 518 1111 q 556 1076 556 1093 q 535 1050 556 1056 q 278 1042 501 1042 q 13 1054 38 1042 q 0 1076 0 1060 z "},"\u0011":{"ha":694,"x_min":0,"x_max":556,"o":"m 0 799 q 21 825 0 819 q 278 833 54 833 q 543 821 518 833 q 556 799 556 815 q 535 772 556 778 q 278 764 501 764 q 13 776 38 764 q 0 799 0 782 z "},"\u0012":{"ha":694,"x_min":0,"x_max":556,"o":"m 0 521 q 21 547 0 542 q 278 556 54 556 q 543 543 518 556 q 556 521 556 538 q 535 494 556 500 q 278 486 501 486 q 13 499 38 486 q 0 521 0 504 z "},"\u0013":{"ha":694,"x_min":0,"x_max":556,"o":"m 0 243 q 21 269 0 264 q 278 278 54 278 q 543 265 518 278 q 556 243 556 260 q 535 217 556 222 q 278 208 501 208 q 13 221 38 208 q 0 243 0 226 z "},"\u0014":{"ha":694,"x_min":0,"x_max":556,"o":"m 0 -35 q 21 -8 0 -14 q 278 0 54 0 q 543 -12 518 0 q 556 -35 556 -18 q 535 -61 556 -56 q 278 -69 501 -69 q 13 -57 38 -69 q 0 -35 0 -51 z "},"\u0015":{"ha":694,"x_min":208,"x_max":556,"o":"m 222 -202 q 215 -199 222 -202 q 208 -174 208 -196 q 222 -145 208 -151 q 278 -139 235 -139 q 334 -145 321 -139 q 347 -174 347 -151 q 334 -202 347 -196 q 278 -208 321 -208 q 222 -202 235 -208 m 222 -63 q 215 -60 222 -63 q 208 -35 208 -57 q 222 -6 208 -12 q 278 0 235 0 q 334 -6 321 0 q 347 -35 347 -12 q 334 -63 347 -57 q 278 -69 321 -69 q 222 -63 235 -69 m 222 76 q 215 79 222 76 q 208 104 208 82 q 222 133 208 126 q 278 139 235 139 q 334 133 321 139 q 347 104 347 126 q 334 76 347 82 q 278 69 321 69 q 222 76 235 69 m 222 215 q 215 218 222 215 q 208 243 208 221 q 222 272 208 265 q 278 278 235 278 q 334 272 321 278 q 347 243 347 265 q 334 215 347 221 q 278 208 321 208 q 222 215 235 208 m 222 353 q 215 357 222 353 q 208 382 208 360 q 222 410 208 404 q 278 417 235 417 q 334 410 321 417 q 347 382 347 404 q 334 353 347 360 q 278 347 321 347 q 222 353 235 347 m 212 502 q 210 505 212 502 q 208 521 208 508 q 212 540 208 533 q 235 550 215 546 q 286 555 256 554 q 382 556 317 556 q 478 555 447 556 q 528 550 508 554 q 552 540 549 546 q 556 521 556 533 q 552 502 556 508 q 528 492 549 496 q 478 487 508 488 q 382 486 447 486 q 286 487 317 486 q 235 492 256 488 q 212 502 215 496 m 222 631 q 215 634 222 631 q 208 660 208 638 q 222 688 208 682 q 278 694 235 694 q 334 688 321 694 q 347 660 347 682 q 334 631 347 638 q 278 625 321 625 q 222 631 235 625 m 222 770 q 215 773 222 770 q 208 799 208 776 q 222 827 208 821 q 278 833 235 833 q 334 827 321 833 q 347 799 347 821 q 334 770 347 776 q 278 764 321 764 q 222 770 235 764 m 222 909 q 215 912 222 909 q 208 938 208 915 q 222 966 208 960 q 278 972 235 972 q 334 966 321 972 q 347 938 347 960 q 334 909 347 915 q 278 903 321 903 q 222 909 235 903 m 222 1048 q 215 1051 222 1048 q 208 1076 208 1054 q 222 1105 208 1099 q 278 1111 235 1111 q 334 1105 321 1111 q 347 1076 347 1099 q 334 1048 347 1054 q 278 1042 321 1042 q 222 1048 235 1042 z "},"\u0016":{"ha":694,"x_min":0,"x_max":347,"o":"m 222 -202 q 215 -199 222 -202 q 208 -174 208 -196 q 222 -145 208 -151 q 278 -139 235 -139 q 334 -145 321 -139 q 347 -174 347 -151 q 334 -202 347 -196 q 278 -208 321 -208 q 222 -202 235 -208 m 222 -63 q 215 -60 222 -63 q 208 -35 208 -57 q 222 -6 208 -12 q 278 0 235 0 q 334 -6 321 0 q 347 -35 347 -12 q 334 -63 347 -57 q 278 -69 321 -69 q 222 -63 235 -69 m 222 76 q 215 79 222 76 q 208 104 208 82 q 222 133 208 126 q 278 139 235 139 q 334 133 321 139 q 347 104 347 126 q 334 76 347 82 q 278 69 321 69 q 222 76 235 69 m 222 215 q 215 218 222 215 q 208 243 208 221 q 222 272 208 265 q 278 278 235 278 q 334 272 321 278 q 347 243 347 265 q 334 215 347 221 q 278 208 321 208 q 222 215 235 208 m 222 353 q 215 357 222 353 q 208 382 208 360 q 222 410 208 404 q 278 417 235 417 q 334 410 321 417 q 347 382 347 404 q 334 353 347 360 q 278 347 321 347 q 222 353 235 347 m 3 502 q 2 505 3 502 q 0 521 0 508 q 3 540 0 533 q 27 550 7 546 q 78 555 47 554 q 174 556 108 556 q 269 555 239 556 q 320 550 300 554 q 344 540 340 546 q 347 521 347 533 q 344 502 347 508 q 320 492 340 496 q 269 487 300 488 q 174 486 239 486 q 78 487 108 486 q 27 492 47 488 q 3 502 7 496 m 222 631 q 215 634 222 631 q 208 660 208 638 q 222 688 208 682 q 278 694 235 694 q 334 688 321 694 q 347 660 347 682 q 334 631 347 638 q 278 625 321 625 q 222 631 235 625 m 222 770 q 215 773 222 770 q 208 799 208 776 q 222 827 208 821 q 278 833 235 833 q 334 827 321 833 q 347 799 347 821 q 334 770 347 776 q 278 764 321 764 q 222 770 235 764 m 222 909 q 215 912 222 909 q 208 938 208 915 q 222 966 208 960 q 278 972 235 972 q 334 966 321 972 q 347 938 347 960 q 334 909 347 915 q 278 903 321 903 q 222 909 235 903 m 222 1048 q 215 1051 222 1048 q 208 1076 208 1054 q 222 1105 208 1099 q 278 1111 235 1111 q 334 1105 321 1111 q 347 1076 347 1099 q 334 1048 347 1054 q 278 1042 321 1042 q 222 1048 235 1042 z "},"\u0017":{"ha":694,"x_min":0,"x_max":556,"o":"m 0 521 q 21 547 0 542 q 278 556 54 556 q 543 543 518 556 q 556 521 556 538 q 535 494 556 500 q 278 486 501 486 q 13 499 38 486 q 0 521 0 504 m 222 631 q 215 634 222 631 q 208 660 208 638 q 222 688 208 682 q 278 694 235 694 q 334 688 321 694 q 347 660 347 682 q 334 631 347 638 q 278 625 321 625 q 222 631 235 625 m 222 770 q 215 773 222 770 q 208 799 208 776 q 222 827 208 821 q 278 833 235 833 q 334 827 321 833 q 347 799 347 821 q 334 770 347 776 q 278 764 321 764 q 222 770 235 764 m 222 909 q 215 912 222 909 q 208 938 208 915 q 222 966 208 960 q 278 972 235 972 q 334 966 321 972 q 347 938 347 960 q 334 909 347 915 q 278 903 321 903 q 222 909 235 903 m 222 1048 q 215 1051 222 1048 q 208 1076 208 1054 q 222 1105 208 1099 q 278 1111 235 1111 q 334 1105 321 1111 q 347 1076 347 1099 q 334 1048 347 1054 q 278 1042 321 1042 q 222 1048 235 1042 z "},"\u0018":{"ha":694,"x_min":0,"x_max":556,"o":"m 222 -202 q 215 -199 222 -202 q 208 -174 208 -196 q 222 -145 208 -151 q 278 -139 235 -139 q 334 -145 321 -139 q 347 -174 347 -151 q 334 -202 347 -196 q 278 -208 321 -208 q 222 -202 235 -208 m 222 -63 q 215 -60 222 -63 q 208 -35 208 -57 q 222 -6 208 -12 q 278 0 235 0 q 334 -6 321 0 q 347 -35 347 -12 q 334 -63 347 -57 q 278 -69 321 -69 q 222 -63 235 -69 m 222 76 q 215 79 222 76 q 208 104 208 82 q 222 133 208 126 q 278 139 235 139 q 334 133 321 139 q 347 104 347 126 q 334 76 347 82 q 278 69 321 69 q 222 76 235 69 m 222 215 q 215 218 222 215 q 208 243 208 221 q 222 272 208 265 q 278 278 235 278 q 334 272 321 278 q 347 243 347 265 q 334 215 347 221 q 278 208 321 208 q 222 215 235 208 m 222 353 q 215 357 222 353 q 208 382 208 360 q 222 410 208 404 q 278 417 235 417 q 334 410 321 417 q 347 382 347 404 q 334 353 347 360 q 278 347 321 347 q 222 353 235 347 m 0 521 q 21 547 0 542 q 278 556 54 556 q 543 543 518 556 q 556 521 556 538 q 535 494 556 500 q 278 486 501 486 q 13 499 38 486 q 0 521 0 504 z "},"\u0019":{"ha":694,"x_min":208,"x_max":347,"o":"m 222 -202 q 215 -199 222 -202 q 208 -174 208 -196 q 222 -145 208 -151 q 278 -139 235 -139 q 334 -145 321 -139 q 347 -174 347 -151 q 334 -202 347 -196 q 278 -208 321 -208 q 222 -202 235 -208 m 222 -63 q 215 -60 222 -63 q 208 -35 208 -57 q 222 -6 208 -12 q 278 0 235 0 q 334 -6 321 0 q 347 -35 347 -12 q 334 -63 347 -57 q 278 -69 321 -69 q 222 -63 235 -69 m 222 76 q 215 79 222 76 q 208 104 208 82 q 222 133 208 126 q 278 139 235 139 q 334 133 321 139 q 347 104 347 126 q 334 76 347 82 q 278 69 321 69 q 222 76 235 69 m 222 215 q 215 218 222 215 q 208 243 208 221 q 222 272 208 265 q 278 278 235 278 q 334 272 321 278 q 347 243 347 265 q 334 215 347 221 q 278 208 321 208 q 222 215 235 208 m 222 353 q 215 357 222 353 q 208 382 208 360 q 222 410 208 404 q 278 417 235 417 q 334 410 321 417 q 347 382 347 404 q 334 353 347 360 q 278 347 321 347 q 222 353 235 347 m 222 492 q 215 495 222 492 q 208 521 208 499 q 222 549 208 543 q 278 556 235 556 q 334 549 321 556 q 347 521 347 543 q 334 492 347 499 q 278 486 321 486 q 222 492 235 486 m 222 631 q 215 634 222 631 q 208 660 208 638 q 222 688 208 682 q 278 694 235 694 q 334 688 321 694 q 347 660 347 682 q 334 631 347 638 q 278 625 321 625 q 222 631 235 625 m 222 770 q 215 773 222 770 q 208 799 208 776 q 222 827 208 821 q 278 833 235 833 q 334 827 321 833 q 347 799 347 821 q 334 770 347 776 q 278 764 321 764 q 222 770 235 764 m 222 909 q 215 912 222 909 q 208 938 208 915 q 222 966 208 960 q 278 972 235 972 q 334 966 321 972 q 347 938 347 960 q 334 909 347 915 q 278 903 321 903 q 222 909 235 903 m 222 1048 q 215 1051 222 1048 q 208 1076 208 1054 q 222 1105 208 1099 q 278 1111 235 1111 q 334 1105 321 1111 q 347 1076 347 1099 q 334 1048 347 1054 q 278 1042 321 1042 q 222 1048 235 1042 z "},"\u001a":{"ha":694,"x_min":0,"x_max":556,"o":"m 0 -35 q 21 -8 0 -14 q 278 0 54 0 q 543 -12 518 0 q 556 -35 556 -18 q 535 -61 556 -56 q 278 -69 501 -69 q 13 -57 38 -69 q 0 -35 0 -51 m 430 76 q 423 79 430 76 q 417 104 417 82 q 430 133 417 126 q 486 139 443 139 q 542 133 529 139 q 556 104 556 126 q 542 76 556 82 q 486 69 529 69 q 430 76 443 69 m 291 215 q 284 218 291 215 q 278 243 278 221 q 291 272 278 265 q 347 278 304 278 q 403 272 390 278 q 417 243 417 265 q 403 215 417 221 q 347 208 390 208 q 291 215 304 208 m 152 353 q 145 357 152 353 q 139 382 139 360 q 152 410 139 404 q 208 417 165 417 q 265 410 251 417 q 278 382 278 404 q 265 353 278 360 q 208 347 251 347 q 152 353 165 347 m 13 492 q 7 495 13 492 q 0 521 0 499 q 13 549 0 543 q 69 556 26 556 q 126 549 113 556 q 139 521 139 543 q 126 492 139 499 q 69 486 113 486 q 13 492 26 486 m 152 631 q 145 634 152 631 q 139 660 139 638 q 152 688 139 682 q 208 694 165 694 q 265 688 251 694 q 278 660 278 682 q 265 631 278 638 q 208 625 251 625 q 152 631 165 625 m 291 770 q 284 773 291 770 q 278 799 278 776 q 291 827 278 821 q 347 833 304 833 q 403 827 390 833 q 417 799 417 821 q 403 770 417 776 q 347 764 390 764 q 291 770 304 764 m 430 909 q 423 912 430 909 q 417 938 417 915 q 430 966 417 960 q 486 972 443 972 q 542 966 529 972 q 556 938 556 960 q 542 909 556 915 q 486 903 529 903 q 430 909 443 903 z "},"\u001b":{"ha":694,"x_min":0,"x_max":556,"o":"m 0 -35 q 21 -8 0 -14 q 278 0 54 0 q 543 -12 518 0 q 556 -35 556 -18 q 535 -61 556 -56 q 278 -69 501 -69 q 13 -57 38 -69 q 0 -35 0 -51 m 13 76 q 7 79 13 76 q 0 104 0 82 q 13 133 0 126 q 69 139 26 139 q 126 133 113 139 q 139 104 139 126 q 126 76 139 82 q 69 69 113 69 q 13 76 26 69 m 152 215 q 145 218 152 215 q 139 243 139 221 q 152 272 139 265 q 208 278 165 278 q 265 272 251 278 q 278 243 278 265 q 265 215 278 221 q 208 208 251 208 q 152 215 165 208 m 291 353 q 284 357 291 353 q 278 382 278 360 q 291 410 278 404 q 347 417 304 417 q 403 410 390 417 q 417 382 417 404 q 403 353 417 360 q 347 347 390 347 q 291 353 304 347 m 430 492 q 423 495 430 492 q 417 521 417 499 q 430 549 417 543 q 486 556 443 556 q 542 549 529 556 q 556 521 556 543 q 542 492 556 499 q 486 486 529 486 q 430 492 443 486 m 291 631 q 284 634 291 631 q 278 660 278 638 q 291 688 278 682 q 347 694 304 694 q 403 688 390 694 q 417 660 417 682 q 403 631 417 638 q 347 625 390 625 q 291 631 304 625 m 152 770 q 145 773 152 770 q 139 799 139 776 q 152 827 139 821 q 208 833 165 833 q 265 827 251 833 q 278 799 278 821 q 265 770 278 776 q 208 764 251 764 q 152 770 165 764 m 13 909 q 7 912 13 909 q 0 938 0 915 q 13 966 0 960 q 69 972 26 972 q 126 966 113 972 q 139 938 139 960 q 126 909 139 915 q 69 903 113 903 q 13 909 26 903 z "},"\u001c":{"ha":694,"x_min":0,"x_max":556,"o":"m 360 76 q 354 79 360 76 q 347 104 347 82 q 360 133 347 126 q 417 139 374 139 q 473 133 460 139 q 486 104 486 126 q 473 76 486 82 q 417 69 460 69 q 360 76 374 69 m 83 76 q 76 79 83 76 q 69 104 69 82 q 83 133 69 126 q 139 139 96 139 q 195 133 182 139 q 208 104 208 126 q 195 76 208 82 q 139 69 182 69 q 83 76 96 69 m 360 215 q 354 218 360 215 q 347 243 347 221 q 360 272 347 265 q 417 278 374 278 q 473 272 460 278 q 486 243 486 265 q 473 215 486 221 q 417 208 460 208 q 360 215 374 208 m 152 215 q 145 218 152 215 q 139 243 139 221 q 152 272 139 265 q 208 278 165 278 q 265 272 251 278 q 278 243 278 265 q 265 215 278 221 q 208 208 251 208 q 152 215 165 208 m 360 353 q 354 357 360 353 q 347 382 347 360 q 360 410 347 404 q 417 417 374 417 q 473 410 460 417 q 486 382 486 404 q 473 353 486 360 q 417 347 460 347 q 360 353 374 347 m 152 353 q 145 357 152 353 q 139 382 139 360 q 152 410 139 404 q 208 417 165 417 q 265 410 251 417 q 278 382 278 404 q 265 353 278 360 q 208 347 251 347 q 152 353 165 347 m 360 492 q 354 495 360 492 q 347 521 347 499 q 360 549 347 543 q 417 556 374 556 q 473 549 460 556 q 486 521 486 543 q 473 492 486 499 q 417 486 460 486 q 360 492 374 486 m 152 492 q 145 495 152 492 q 139 521 139 499 q 152 549 139 543 q 208 556 165 556 q 265 549 251 556 q 278 521 278 543 q 265 492 278 499 q 208 486 251 486 q 152 492 165 486 m 0 660 q 21 686 0 681 q 278 694 54 694 q 543 682 518 694 q 556 660 556 676 q 535 633 556 639 q 278 625 501 625 q 13 638 38 625 q 0 660 0 643 z "},"\u001d":{"ha":694,"x_min":0,"x_max":556,"o":"m 13 76 q 7 79 13 76 q 0 104 0 82 q 13 133 0 126 q 69 139 26 139 q 126 133 113 139 q 139 104 139 126 q 126 76 139 82 q 69 69 113 69 q 13 76 26 69 m 83 215 q 76 218 83 215 q 69 243 69 221 q 83 272 69 265 q 139 278 96 278 q 195 272 182 278 q 208 243 208 265 q 195 215 208 221 q 139 208 182 208 q 83 215 96 208 m 0 382 q 21 408 0 403 q 278 417 54 417 q 543 404 518 417 q 556 382 556 399 q 535 356 556 361 q 278 347 501 347 q 13 360 38 347 q 0 382 0 365 m 222 492 q 215 495 222 492 q 208 521 208 499 q 222 549 208 543 q 278 556 235 556 q 334 549 321 556 q 347 521 347 543 q 334 492 347 499 q 278 486 321 486 q 222 492 235 486 m 0 660 q 21 686 0 681 q 278 694 54 694 q 543 682 518 694 q 556 660 556 676 q 535 633 556 639 q 278 625 501 625 q 13 638 38 625 q 0 660 0 643 m 360 770 q 354 773 360 770 q 347 799 347 776 q 360 827 347 821 q 417 833 374 833 q 473 827 460 833 q 486 799 486 821 q 473 770 486 776 q 417 764 460 764 q 360 770 374 764 m 430 909 q 423 912 430 909 q 417 938 417 915 q 430 966 417 960 q 486 972 443 972 q 542 966 529 972 q 556 938 556 960 q 542 909 556 915 q 486 903 529 903 q 430 909 443 903 z "},"\u001e":{"ha":694,"x_min":0,"x_max":556,"o":"m 83 -63 q 76 -60 83 -63 q 69 -35 69 -57 q 83 -6 69 -12 q 139 0 96 0 q 195 -6 182 0 q 208 -35 208 -12 q 195 -63 208 -57 q 139 -69 182 -69 q 83 -63 96 -69 m 365 75 q 356 78 365 75 q 347 104 347 81 q 365 133 347 128 q 451 139 383 139 q 538 133 521 139 q 556 104 556 128 q 538 75 556 81 q 451 69 521 69 q 365 75 383 69 m 22 75 q 11 78 22 75 q 0 104 0 81 q 22 133 0 128 q 139 139 44 139 q 256 133 233 139 q 278 104 278 128 q 256 75 278 81 q 139 69 233 69 q 22 75 44 69 m 73 224 q 71 227 73 224 q 69 243 69 231 q 73 262 69 256 q 97 272 76 268 q 147 277 117 276 q 243 278 178 278 q 339 277 308 278 q 390 272 369 276 q 413 262 410 268 q 417 243 417 256 q 413 224 417 231 q 390 214 410 218 q 339 209 369 210 q 243 208 308 208 q 147 209 178 208 q 97 214 117 210 q 73 224 76 218 m 152 353 q 145 357 152 353 q 139 382 139 360 q 152 410 139 404 q 208 417 165 417 q 265 410 251 417 q 278 382 278 404 q 265 353 278 360 q 208 347 251 347 q 152 353 165 347 m 0 521 q 21 549 0 543 q 208 556 47 556 q 407 543 388 556 q 417 521 417 538 q 396 493 417 499 q 208 486 369 486 q 10 499 29 486 q 0 521 0 504 m 152 631 q 145 634 152 631 q 139 660 139 638 q 152 688 139 682 q 208 694 165 694 q 265 688 251 694 q 278 660 278 682 q 265 631 278 638 q 208 625 251 625 q 152 631 165 625 m 430 770 q 423 773 430 770 q 417 799 417 776 q 430 827 417 821 q 486 833 443 833 q 542 827 529 833 q 556 799 556 821 q 542 770 556 776 q 486 764 529 764 q 430 770 443 764 m 152 770 q 145 773 152 770 q 139 799 139 776 q 152 827 139 821 q 208 833 165 833 q 265 827 251 833 q 278 799 278 821 q 265 770 278 776 q 208 764 251 764 q 152 770 165 764 m 231 908 q 219 911 231 908 q 208 938 208 914 q 231 967 208 961 q 347 972 253 972 q 464 967 442 972 q 486 938 486 961 q 464 908 486 914 q 347 903 442 903 q 231 908 253 903 z "},"\u001f":{"ha":694,"x_min":208,"x_max":347,"o":"m 222 492 q 215 495 222 492 q 208 521 208 499 q 222 549 208 543 q 278 556 235 556 q 334 549 321 556 q 347 521 347 543 q 334 492 347 499 q 278 486 321 486 q 222 492 235 486 z "}," ":{"ha":694,"x_min":0,"x_max":0,"o":""},"!":{"ha":694,"x_min":208,"x_max":347,"o":"m 222 76 q 215 79 222 76 q 208 104 208 82 q 222 133 208 126 q 278 139 235 139 q 334 133 321 139 q 347 104 347 126 q 334 76 347 82 q 278 69 321 69 q 222 76 235 69 m 222 353 q 215 357 222 353 q 208 382 208 360 q 222 410 208 404 q 278 417 235 417 q 334 410 321 417 q 347 382 347 404 q 334 353 347 360 q 278 347 321 347 q 222 353 235 347 m 222 492 q 215 495 222 492 q 208 521 208 499 q 222 549 208 543 q 278 556 235 556 q 334 549 321 556 q 347 521 347 543 q 334 492 347 499 q 278 486 321 486 q 222 492 235 486 m 222 631 q 215 634 222 631 q 208 660 208 638 q 222 688 208 682 q 278 694 235 694 q 334 688 321 694 q 347 660 347 682 q 334 631 347 638 q 278 625 321 625 q 222 631 235 625 m 222 770 q 215 773 222 770 q 208 799 208 776 q 222 827 208 821 q 278 833 235 833 q 334 827 321 833 q 347 799 347 821 q 334 770 347 776 q 278 764 321 764 q 222 770 235 764 m 222 909 q 215 912 222 909 q 208 938 208 915 q 222 966 208 960 q 278 972 235 972 q 334 966 321 972 q 347 938 347 960 q 334 909 347 915 q 278 903 321 903 q 222 909 235 903 z "},"\"":{"ha":694,"x_min":69,"x_max":417,"o":"m 291 631 q 284 634 291 631 q 278 660 278 638 q 291 688 278 682 q 347 694 304 694 q 403 688 390 694 q 417 660 417 682 q 403 631 417 638 q 347 625 390 625 q 291 631 304 625 m 83 631 q 76 634 83 631 q 69 660 69 638 q 83 688 69 682 q 139 694 96 694 q 195 688 182 694 q 208 660 208 682 q 195 631 208 638 q 139 625 182 625 q 83 631 96 625 m 291 770 q 284 773 291 770 q 278 799 278 776 q 291 827 278 821 q 347 833 304 833 q 403 827 390 833 q 417 799 417 821 q 403 770 417 776 q 347 764 390 764 q 291 770 304 764 m 83 770 q 76 773 83 770 q 69 799 69 776 q 83 827 69 821 q 139 833 96 833 q 195 827 182 833 q 208 799 208 821 q 195 770 208 776 q 139 764 182 764 q 83 770 96 764 m 291 909 q 284 912 291 909 q 278 938 278 915 q 291 966 278 960 q 347 972 304 972 q 403 966 390 972 q 417 938 417 960 q 403 909 417 915 q 347 903 390 903 q 291 909 304 903 m 83 909 q 76 912 83 909 q 69 938 69 915 q 83 966 69 960 q 139 972 96 972 q 195 966 182 972 q 208 938 208 960 q 195 909 208 915 q 139 903 182 903 q 83 909 96 903 z "},"#":{"ha":694,"x_min":0,"x_max":486,"o":"m 291 76 q 284 79 291 76 q 278 104 278 82 q 291 133 278 126 q 347 139 304 139 q 403 133 390 139 q 417 104 417 126 q 403 76 417 82 q 347 69 390 69 q 291 76 304 69 m 83 76 q 76 79 83 76 q 69 104 69 82 q 83 133 69 126 q 139 139 96 139 q 195 133 182 139 q 208 104 208 126 q 195 76 208 82 q 139 69 182 69 q 83 76 96 69 m 291 215 q 284 218 291 215 q 278 243 278 221 q 291 272 278 265 q 347 278 304 278 q 403 272 390 278 q 417 243 417 265 q 403 215 417 221 q 347 208 390 208 q 291 215 304 208 m 83 215 q 76 218 83 215 q 69 243 69 221 q 83 272 69 265 q 139 278 96 278 q 195 272 182 278 q 208 243 208 265 q 195 215 208 221 q 139 208 182 208 q 83 215 96 208 m 0 382 q 21 408 0 403 q 243 417 51 417 q 475 404 453 417 q 486 382 486 399 q 465 356 486 361 q 243 347 435 347 q 11 360 33 347 q 0 382 0 365 m 291 492 q 284 495 291 492 q 278 521 278 499 q 291 549 278 543 q 347 556 304 556 q 403 549 390 556 q 417 521 417 543 q 403 492 417 499 q 347 486 390 486 q 291 492 304 486 m 83 492 q 76 495 83 492 q 69 521 69 499 q 83 549 69 543 q 139 556 96 556 q 195 549 182 556 q 208 521 208 543 q 195 492 208 499 q 139 486 182 486 q 83 492 96 486 m 0 660 q 21 686 0 681 q 243 694 51 694 q 475 682 453 694 q 486 660 486 676 q 465 633 486 639 q 243 625 435 625 q 11 638 33 625 q 0 660 0 643 m 291 770 q 284 773 291 770 q 278 799 278 776 q 291 827 278 821 q 347 833 304 833 q 403 827 390 833 q 417 799 417 821 q 403 770 417 776 q 347 764 390 764 q 291 770 304 764 m 83 770 q 76 773 83 770 q 69 799 69 776 q 83 827 69 821 q 139 833 96 833 q 195 827 182 833 q 208 799 208 821 q 195 770 208 776 q 139 764 182 764 q 83 770 96 764 m 291 909 q 284 912 291 909 q 278 938 278 915 q 291 966 278 960 q 347 972 304 972 q 403 966 390 972 q 417 938 417 960 q 403 909 417 915 q 347 903 390 903 q 291 909 304 903 m 83 909 q 76 912 83 909 q 69 938 69 915 q 83 966 69 960 q 139 972 96 972 q 195 966 182 972 q 208 938 208 960 q 195 909 208 915 q 139 903 182 903 q 83 909 96 903 z "},"$":{"ha":694,"x_min":0,"x_max":556,"o":"m 222 76 q 215 79 222 76 q 208 104 208 82 q 222 133 208 126 q 278 139 235 139 q 334 133 321 139 q 347 104 347 126 q 334 76 347 82 q 278 69 321 69 q 222 76 235 69 m 69 243 q 90 271 69 265 q 278 278 117 278 q 476 265 457 278 q 486 243 486 260 q 465 215 486 221 q 278 208 439 208 q 79 221 99 208 q 69 243 69 226 m 430 353 q 423 357 430 353 q 417 382 417 360 q 430 410 417 404 q 486 417 443 417 q 542 410 529 417 q 556 382 556 404 q 542 353 556 360 q 486 347 529 347 q 430 353 443 347 m 222 353 q 215 357 222 353 q 208 382 208 360 q 222 410 208 404 q 278 417 235 417 q 334 410 321 417 q 347 382 347 404 q 334 353 347 360 q 278 347 321 347 q 222 353 235 347 m 69 521 q 90 549 69 543 q 278 556 117 556 q 476 543 457 556 q 486 521 486 538 q 465 493 486 499 q 278 486 439 486 q 79 499 99 486 q 69 521 69 504 m 222 631 q 215 634 222 631 q 208 660 208 638 q 222 688 208 682 q 278 694 235 694 q 334 688 321 694 q 347 660 347 682 q 334 631 347 638 q 278 625 321 625 q 222 631 235 625 m 13 631 q 7 634 13 631 q 0 660 0 638 q 13 688 0 682 q 69 694 26 694 q 126 688 113 694 q 139 660 139 682 q 126 631 139 638 q 69 625 113 625 q 13 631 26 625 m 69 799 q 90 826 69 821 q 278 833 117 833 q 476 821 457 833 q 486 799 486 815 q 465 771 486 776 q 278 764 439 764 q 79 776 99 764 q 69 799 69 782 m 222 909 q 215 912 222 909 q 208 938 208 915 q 222 966 208 960 q 278 972 235 972 q 334 966 321 972 q 347 938 347 960 q 334 909 347 915 q 278 903 321 903 q 222 909 235 903 z "},"%":{"ha":694,"x_min":0,"x_max":556,"o":"m 360 76 q 354 79 360 76 q 347 104 347 82 q 360 133 347 126 q 417 139 374 139 q 473 133 460 139 q 486 104 486 126 q 473 76 486 82 q 417 69 460 69 q 360 76 374 69 m 13 76 q 7 79 13 76 q 0 104 0 82 q 13 133 0 126 q 69 139 26 139 q 126 133 113 139 q 139 104 139 126 q 126 76 139 82 q 69 69 113 69 q 13 76 26 69 m 300 214 q 289 217 300 214 q 278 243 278 219 q 300 272 278 267 q 417 278 322 278 q 533 272 511 278 q 556 243 556 267 q 533 214 556 219 q 417 208 511 208 q 300 214 322 208 m 83 215 q 76 218 83 215 q 69 243 69 221 q 83 272 69 265 q 139 278 96 278 q 195 272 182 278 q 208 243 208 265 q 195 215 208 221 q 139 208 182 208 q 83 215 96 208 m 360 353 q 354 357 360 353 q 347 382 347 360 q 360 410 347 404 q 417 417 374 417 q 473 410 460 417 q 486 382 486 404 q 473 353 486 360 q 417 347 460 347 q 360 353 374 347 m 152 353 q 145 357 152 353 q 139 382 139 360 q 152 410 139 404 q 208 417 165 417 q 265 410 251 417 q 278 382 278 404 q 265 353 278 360 q 208 347 251 347 q 152 353 165 347 m 222 492 q 215 495 222 492 q 208 521 208 499 q 222 549 208 543 q 278 556 235 556 q 334 549 321 556 q 347 521 347 543 q 334 492 347 499 q 278 486 321 486 q 222 492 235 486 m 291 631 q 284 634 291 631 q 278 660 278 638 q 291 688 278 682 q 347 694 304 694 q 403 688 390 694 q 417 660 417 682 q 403 631 417 638 q 347 625 390 625 q 291 631 304 625 m 83 631 q 76 634 83 631 q 69 660 69 638 q 83 688 69 682 q 139 694 96 694 q 195 688 182 694 q 208 660 208 682 q 195 631 208 638 q 139 625 182 625 q 83 631 96 625 m 360 770 q 354 773 360 770 q 347 799 347 776 q 360 827 347 821 q 417 833 374 833 q 473 827 460 833 q 486 799 486 821 q 473 770 486 776 q 417 764 460 764 q 360 770 374 764 m 22 769 q 11 772 22 769 q 0 799 0 775 q 22 828 0 822 q 139 833 44 833 q 256 828 233 833 q 278 799 278 822 q 256 769 278 775 q 139 764 233 764 q 22 769 44 764 m 430 909 q 423 912 430 909 q 417 938 417 915 q 430 966 417 960 q 486 972 443 972 q 542 966 529 972 q 556 938 556 960 q 542 909 556 915 q 486 903 529 903 q 430 909 443 903 m 83 909 q 76 912 83 909 q 69 938 69 915 q 83 966 69 960 q 139 972 96 972 q 195 966 182 972 q 208 938 208 960 q 195 909 208 915 q 139 903 182 903 q 83 909 96 903 z "},"&":{"ha":694,"x_min":0,"x_max":556,"o":"m 69 104 q 90 131 69 125 q 313 139 121 139 q 544 126 522 139 q 556 104 556 121 q 535 78 556 83 q 313 69 504 69 q 81 82 103 69 q 69 104 69 88 m 360 215 q 354 218 360 215 q 347 243 347 221 q 360 272 347 265 q 417 278 374 278 q 473 272 460 278 q 486 243 486 265 q 473 215 486 221 q 417 208 460 208 q 360 215 374 208 m 13 215 q 7 218 13 215 q 0 243 0 221 q 13 272 0 265 q 69 278 26 278 q 126 272 113 278 q 139 243 139 265 q 126 215 139 221 q 69 208 113 208 q 13 215 26 208 m 300 353 q 289 356 300 353 q 278 382 278 358 q 300 411 278 406 q 417 417 322 417 q 533 411 511 417 q 556 382 556 406 q 533 353 556 358 q 417 347 511 347 q 300 353 322 347 m 13 353 q 7 357 13 353 q 0 382 0 360 q 13 410 0 404 q 69 417 26 417 q 126 410 113 417 q 139 382 139 404 q 126 353 139 360 q 69 347 113 347 q 13 353 26 347 m 92 492 q 81 494 92 492 q 69 521 69 497 q 92 550 69 544 q 208 556 114 556 q 325 550 303 556 q 347 521 347 544 q 325 492 347 497 q 208 486 303 486 q 92 492 114 486 m 291 631 q 284 634 291 631 q 278 660 278 638 q 291 688 278 682 q 347 694 304 694 q 403 688 390 694 q 417 660 417 682 q 403 631 417 638 q 347 625 390 625 q 291 631 304 625 m 13 631 q 7 634 13 631 q 0 660 0 638 q 13 688 0 682 q 69 694 26 694 q 126 688 113 694 q 139 660 139 682 q 126 631 139 638 q 69 625 113 625 q 13 631 26 625 m 291 770 q 284 773 291 770 q 278 799 278 776 q 291 827 278 821 q 347 833 304 833 q 403 827 390 833 q 417 799 417 821 q 403 770 417 776 q 347 764 390 764 q 291 770 304 764 m 13 770 q 7 773 13 770 q 0 799 0 776 q 13 827 0 821 q 69 833 26 833 q 126 827 113 833 q 139 799 139 821 q 126 770 139 776 q 69 764 113 764 q 13 770 26 764 m 92 908 q 81 911 92 908 q 69 938 69 914 q 92 967 69 961 q 208 972 114 972 q 325 967 303 972 q 347 938 347 961 q 325 908 347 914 q 208 903 303 903 q 92 908 114 903 z "},"'":{"ha":694,"x_min":139,"x_max":417,"o":"m 152 631 q 145 634 152 631 q 139 660 139 638 q 152 688 139 682 q 208 694 165 694 q 265 688 251 694 q 278 660 278 682 q 265 631 278 638 q 208 625 251 625 q 152 631 165 625 m 222 770 q 215 773 222 770 q 208 799 208 776 q 222 827 208 821 q 278 833 235 833 q 334 827 321 833 q 347 799 347 821 q 334 770 347 776 q 278 764 321 764 q 222 770 235 764 m 226 908 q 217 911 226 908 q 208 938 208 914 q 226 967 208 961 q 313 972 244 972 q 399 967 381 972 q 417 938 417 961 q 399 908 417 914 q 313 903 381 903 q 226 908 244 903 z "},"(":{"ha":694,"x_min":139,"x_max":417,"o":"m 291 76 q 284 79 291 76 q 278 104 278 82 q 291 133 278 126 q 347 139 304 139 q 403 133 390 139 q 417 104 417 126 q 403 76 417 82 q 347 69 390 69 q 291 76 304 69 m 222 215 q 215 218 222 215 q 208 243 208 221 q 222 272 208 265 q 278 278 235 278 q 334 272 321 278 q 347 243 347 265 q 334 215 347 221 q 278 208 321 208 q 222 215 235 208 m 152 353 q 145 357 152 353 q 139 382 139 360 q 152 410 139 404 q 208 417 165 417 q 265 410 251 417 q 278 382 278 404 q 265 353 278 360 q 208 347 251 347 q 152 353 165 347 m 152 492 q 145 495 152 492 q 139 521 139 499 q 152 549 139 543 q 208 556 165 556 q 265 549 251 556 q 278 521 278 543 q 265 492 278 499 q 208 486 251 486 q 152 492 165 486 m 152 631 q 145 634 152 631 q 139 660 139 638 q 152 688 139 682 q 208 694 165 694 q 265 688 251 694 q 278 660 278 682 q 265 631 278 638 q 208 625 251 625 q 152 631 165 625 m 222 770 q 215 773 222 770 q 208 799 208 776 q 222 827 208 821 q 278 833 235 833 q 334 827 321 833 q 347 799 347 821 q 334 770 347 776 q 278 764 321 764 q 222 770 235 764 m 291 909 q 284 912 291 909 q 278 938 278 915 q 291 966 278 960 q 347 972 304 972 q 403 966 390 972 q 417 938 417 960 q 403 909 417 915 q 347 903 390 903 q 291 909 304 903 z "},")":{"ha":694,"x_min":139,"x_max":417,"o":"m 152 76 q 145 79 152 76 q 139 104 139 82 q 152 133 139 126 q 208 139 165 139 q 265 133 251 139 q 278 104 278 126 q 265 76 278 82 q 208 69 251 69 q 152 76 165 69 m 222 215 q 215 218 222 215 q 208 243 208 221 q 222 272 208 265 q 278 278 235 278 q 334 272 321 278 q 347 243 347 265 q 334 215 347 221 q 278 208 321 208 q 222 215 235 208 m 291 353 q 284 357 291 353 q 278 382 278 360 q 291 410 278 404 q 347 417 304 417 q 403 410 390 417 q 417 382 417 404 q 403 353 417 360 q 347 347 390 347 q 291 353 304 347 m 291 492 q 284 495 291 492 q 278 521 278 499 q 291 549 278 543 q 347 556 304 556 q 403 549 390 556 q 417 521 417 543 q 403 492 417 499 q 347 486 390 486 q 291 492 304 486 m 291 631 q 284 634 291 631 q 278 660 278 638 q 291 688 278 682 q 347 694 304 694 q 403 688 390 694 q 417 660 417 682 q 403 631 417 638 q 347 625 390 625 q 291 631 304 625 m 222 770 q 215 773 222 770 q 208 799 208 776 q 222 827 208 821 q 278 833 235 833 q 334 827 321 833 q 347 799 347 821 q 334 770 347 776 q 278 764 321 764 q 222 770 235 764 m 152 909 q 145 912 152 909 q 139 938 139 915 q 152 966 139 960 q 208 972 165 972 q 265 966 251 972 q 278 938 278 960 q 265 909 278 915 q 208 903 251 903 q 152 909 165 903 z "},"*":{"ha":694,"x_min":0,"x_max":556,"o":"m 360 215 q 354 218 360 215 q 347 243 347 221 q 360 272 347 265 q 417 278 374 278 q 473 272 460 278 q 486 243 486 265 q 473 215 486 221 q 417 208 460 208 q 360 215 374 208 m 83 215 q 76 218 83 215 q 69 243 69 221 q 83 272 69 265 q 139 278 96 278 q 195 272 182 278 q 208 243 208 265 q 195 215 208 221 q 139 208 182 208 q 83 215 96 208 m 161 353 q 150 356 161 353 q 139 382 139 358 q 161 411 139 406 q 278 417 183 417 q 394 411 372 417 q 417 382 417 406 q 394 353 417 358 q 278 347 372 347 q 161 353 183 347 m 0 521 q 21 547 0 542 q 278 556 54 556 q 543 543 518 556 q 556 521 556 538 q 535 494 556 500 q 278 486 501 486 q 13 499 38 486 q 0 521 0 504 m 161 631 q 150 633 161 631 q 139 660 139 636 q 161 689 139 683 q 278 694 183 694 q 394 689 372 694 q 417 660 417 683 q 394 631 417 636 q 278 625 372 625 q 161 631 183 625 m 360 770 q 354 773 360 770 q 347 799 347 776 q 360 827 347 821 q 417 833 374 833 q 473 827 460 833 q 486 799 486 821 q 473 770 486 776 q 417 764 460 764 q 360 770 374 764 m 83 770 q 76 773 83 770 q 69 799 69 776 q 83 827 69 821 q 139 833 96 833 q 195 827 182 833 q 208 799 208 821 q 195 770 208 776 q 139 764 182 764 q 83 770 96 764 z "},"+":{"ha":694,"x_min":0,"x_max":556,"o":"m 222 215 q 215 218 222 215 q 208 243 208 221 q 222 272 208 265 q 278 278 235 278 q 334 272 321 278 q 347 243 347 265 q 334 215 347 221 q 278 208 321 208 q 222 215 235 208 m 222 353 q 215 357 222 353 q 208 382 208 360 q 222 410 208 404 q 278 417 235 417 q 334 410 321 417 q 347 382 347 404 q 334 353 347 360 q 278 347 321 347 q 222 353 235 347 m 0 521 q 21 547 0 542 q 278 556 54 556 q 543 543 518 556 q 556 521 556 538 q 535 494 556 500 q 278 486 501 486 q 13 499 38 486 q 0 521 0 504 m 222 631 q 215 634 222 631 q 208 660 208 638 q 222 688 208 682 q 278 694 235 694 q 334 688 321 694 q 347 660 347 682 q 334 631 347 638 q 278 625 321 625 q 222 631 235 625 m 222 770 q 215 773 222 770 q 208 799 208 776 q 222 827 208 821 q 278 833 235 833 q 334 827 321 833 q 347 799 347 821 q 334 770 347 776 q 278 764 321 764 q 222 770 235 764 z "},",":{"ha":694,"x_min":69,"x_max":347,"o":"m 83 -63 q 76 -60 83 -63 q 69 -35 69 -57 q 83 -6 69 -12 q 139 0 96 0 q 195 -6 182 0 q 208 -35 208 -12 q 195 -63 208 -57 q 139 -69 182 -69 q 83 -63 96 -69 m 152 76 q 145 79 152 76 q 139 104 139 82 q 152 133 139 126 q 208 139 165 139 q 265 133 251 139 q 278 104 278 126 q 265 76 278 82 q 208 69 251 69 q 152 76 165 69 m 157 214 q 148 217 157 214 q 139 243 139 219 q 157 272 139 267 q 243 278 175 278 q 329 272 311 278 q 347 243 347 267 q 329 214 347 219 q 243 208 311 208 q 157 214 175 208 z "},"-":{"ha":694,"x_min":0,"x_max":556,"o":"m 0 521 q 21 547 0 542 q 278 556 54 556 q 543 543 518 556 q 556 521 556 538 q 535 494 556 500 q 278 486 501 486 q 13 499 38 486 q 0 521 0 504 z "},".":{"ha":694,"x_min":139,"x_max":347,"o":"m 157 75 q 148 78 157 75 q 139 104 139 81 q 157 133 139 128 q 243 139 175 139 q 329 133 311 139 q 347 104 347 128 q 329 75 347 81 q 243 69 311 69 q 157 75 175 69 m 157 214 q 148 217 157 214 q 139 243 139 219 q 157 272 139 267 q 243 278 175 278 q 329 272 311 278 q 347 243 347 267 q 329 214 347 219 q 243 208 311 208 q 157 214 175 208 z "},"/":{"ha":694,"x_min":0,"x_max":556,"o":"m 13 76 q 7 79 13 76 q 0 104 0 82 q 13 133 0 126 q 69 139 26 139 q 126 133 113 139 q 139 104 139 126 q 126 76 139 82 q 69 69 113 69 q 13 76 26 69 m 83 215 q 76 218 83 215 q 69 243 69 221 q 83 272 69 265 q 139 278 96 278 q 195 272 182 278 q 208 243 208 265 q 195 215 208 221 q 139 208 182 208 q 83 215 96 208 m 152 353 q 145 357 152 353 q 139 382 139 360 q 152 410 139 404 q 208 417 165 417 q 265 410 251 417 q 278 382 278 404 q 265 353 278 360 q 208 347 251 347 q 152 353 165 347 m 222 492 q 215 495 222 492 q 208 521 208 499 q 222 549 208 543 q 278 556 235 556 q 334 549 321 556 q 347 521 347 543 q 334 492 347 499 q 278 486 321 486 q 222 492 235 486 m 291 631 q 284 634 291 631 q 278 660 278 638 q 291 688 278 682 q 347 694 304 694 q 403 688 390 694 q 417 660 417 682 q 403 631 417 638 q 347 625 390 625 q 291 631 304 625 m 360 770 q 354 773 360 770 q 347 799 347 776 q 360 827 347 821 q 417 833 374 833 q 473 827 460 833 q 486 799 486 821 q 473 770 486 776 q 417 764 460 764 q 360 770 374 764 m 430 909 q 423 912 430 909 q 417 938 417 915 q 430 966 417 960 q 486 972 443 972 q 542 966 529 972 q 556 938 556 960 q 542 909 556 915 q 486 903 529 903 q 430 909 443 903 z "},":":{"ha":694,"x_min":139,"x_max":347,"o":"m 157 75 q 148 78 157 75 q 139 104 139 81 q 157 133 139 128 q 243 139 175 139 q 329 133 311 139 q 347 104 347 128 q 329 75 347 81 q 243 69 311 69 q 157 75 175 69 m 157 214 q 148 217 157 214 q 139 243 139 219 q 157 272 139 267 q 243 278 175 278 q 329 272 311 278 q 347 243 347 267 q 329 214 347 219 q 243 208 311 208 q 157 214 175 208 m 157 631 q 148 633 157 631 q 139 660 139 636 q 157 689 139 683 q 243 694 175 694 q 329 689 311 694 q 347 660 347 683 q 329 631 347 636 q 243 625 311 625 q 157 631 175 625 m 157 769 q 148 772 157 769 q 139 799 139 775 q 157 828 139 822 q 243 833 175 833 q 329 828 311 833 q 347 799 347 822 q 329 769 347 775 q 243 764 311 764 q 157 769 175 764 z "},";":{"ha":694,"x_min":69,"x_max":347,"o":"m 83 -63 q 76 -60 83 -63 q 69 -35 69 -57 q 83 -6 69 -12 q 139 0 96 0 q 195 -6 182 0 q 208 -35 208 -12 q 195 -63 208 -57 q 139 -69 182 -69 q 83 -63 96 -69 m 152 76 q 145 79 152 76 q 139 104 139 82 q 152 133 139 126 q 208 139 165 139 q 265 133 251 139 q 278 104 278 126 q 265 76 278 82 q 208 69 251 69 q 152 76 165 69 m 157 214 q 148 217 157 214 q 139 243 139 219 q 157 272 139 267 q 243 278 175 278 q 329 272 311 278 q 347 243 347 267 q 329 214 347 219 q 243 208 311 208 q 157 214 175 208 m 157 631 q 148 633 157 631 q 139 660 139 636 q 157 689 139 683 q 243 694 175 694 q 329 689 311 694 q 347 660 347 683 q 329 631 347 636 q 243 625 311 625 q 157 631 175 625 m 157 769 q 148 772 157 769 q 139 799 139 775 q 157 828 139 822 q 243 833 175 833 q 329 828 311 833 q 347 799 347 822 q 329 769 347 775 q 243 764 311 764 q 157 769 175 764 z "},"<":{"ha":694,"x_min":0,"x_max":556,"o":"m 430 76 q 423 79 430 76 q 417 104 417 82 q 430 133 417 126 q 486 139 443 139 q 542 133 529 139 q 556 104 556 126 q 542 76 556 82 q 486 69 529 69 q 430 76 443 69 m 291 215 q 284 218 291 215 q 278 243 278 221 q 291 272 278 265 q 347 278 304 278 q 403 272 390 278 q 417 243 417 265 q 403 215 417 221 q 347 208 390 208 q 291 215 304 208 m 152 353 q 145 357 152 353 q 139 382 139 360 q 152 410 139 404 q 208 417 165 417 q 265 410 251 417 q 278 382 278 404 q 265 353 278 360 q 208 347 251 347 q 152 353 165 347 m 13 492 q 7 495 13 492 q 0 521 0 499 q 13 549 0 543 q 69 556 26 556 q 126 549 113 556 q 139 521 139 543 q 126 492 139 499 q 69 486 113 486 q 13 492 26 486 m 152 631 q 145 634 152 631 q 139 660 139 638 q 152 688 139 682 q 208 694 165 694 q 265 688 251 694 q 278 660 278 682 q 265 631 278 638 q 208 625 251 625 q 152 631 165 625 m 291 770 q 284 773 291 770 q 278 799 278 776 q 291 827 278 821 q 347 833 304 833 q 403 827 390 833 q 417 799 417 821 q 403 770 417 776 q 347 764 390 764 q 291 770 304 764 m 430 909 q 423 912 430 909 q 417 938 417 915 q 430 966 417 960 q 486 972 443 972 q 542 966 529 972 q 556 938 556 960 q 542 909 556 915 q 486 903 529 903 q 430 909 443 903 z "},"=":{"ha":694,"x_min":0,"x_max":556,"o":"m 0 382 q 21 408 0 403 q 278 417 54 417 q 543 404 518 417 q 556 382 556 399 q 535 356 556 361 q 278 347 501 347 q 13 360 38 347 q 0 382 0 365 m 0 660 q 21 686 0 681 q 278 694 54 694 q 543 682 518 694 q 556 660 556 676 q 535 633 556 639 q 278 625 501 625 q 13 638 38 625 q 0 660 0 643 z "},">":{"ha":694,"x_min":0,"x_max":556,"o":"m 13 76 q 7 79 13 76 q 0 104 0 82 q 13 133 0 126 q 69 139 26 139 q 126 133 113 139 q 139 104 139 126 q 126 76 139 82 q 69 69 113 69 q 13 76 26 69 m 152 215 q 145 218 152 215 q 139 243 139 221 q 152 272 139 265 q 208 278 165 278 q 265 272 251 278 q 278 243 278 265 q 265 215 278 221 q 208 208 251 208 q 152 215 165 208 m 291 353 q 284 357 291 353 q 278 382 278 360 q 291 410 278 404 q 347 417 304 417 q 403 410 390 417 q 417 382 417 404 q 403 353 417 360 q 347 347 390 347 q 291 353 304 347 m 430 492 q 423 495 430 492 q 417 521 417 499 q 430 549 417 543 q 486 556 443 556 q 542 549 529 556 q 556 521 556 543 q 542 492 556 499 q 486 486 529 486 q 430 492 443 486 m 291 631 q 284 634 291 631 q 278 660 278 638 q 291 688 278 682 q 347 694 304 694 q 403 688 390 694 q 417 660 417 682 q 403 631 417 638 q 347 625 390 625 q 291 631 304 625 m 152 770 q 145 773 152 770 q 139 799 139 776 q 152 827 139 821 q 208 833 165 833 q 265 827 251 833 q 278 799 278 821 q 265 770 278 776 q 208 764 251 764 q 152 770 165 764 m 13 909 q 7 912 13 909 q 0 938 0 915 q 13 966 0 960 q 69 972 26 972 q 126 966 113 972 q 139 938 139 960 q 126 909 139 915 q 69 903 113 903 q 13 909 26 903 z "},"?":{"ha":694,"x_min":0,"x_max":556,"o":"m 222 76 q 215 79 222 76 q 208 104 208 82 q 222 133 208 126 q 278 139 235 139 q 334 133 321 139 q 347 104 347 126 q 334 76 347 82 q 278 69 321 69 q 222 76 235 69 m 222 353 q 215 357 222 353 q 208 382 208 360 q 222 410 208 404 q 278 417 235 417 q 334 410 321 417 q 347 382 347 404 q 334 353 347 360 q 278 347 321 347 q 222 353 235 347 m 222 492 q 215 495 222 492 q 208 521 208 499 q 222 549 208 543 q 278 556 235 556 q 334 549 321 556 q 347 521 347 543 q 334 492 347 499 q 278 486 321 486 q 222 492 235 486 m 296 631 q 287 633 296 631 q 278 660 278 636 q 296 689 278 683 q 382 694 314 694 q 468 689 450 694 q 486 660 486 683 q 468 631 486 636 q 382 625 450 625 q 296 631 314 625 m 430 770 q 423 773 430 770 q 417 799 417 776 q 430 827 417 821 q 486 833 443 833 q 542 827 529 833 q 556 799 556 821 q 542 770 556 776 q 486 764 529 764 q 430 770 443 764 m 13 770 q 7 773 13 770 q 0 799 0 776 q 13 827 0 821 q 69 833 26 833 q 126 827 113 833 q 139 799 139 821 q 126 770 139 776 q 69 764 113 764 q 13 770 26 764 m 69 938 q 90 965 69 960 q 278 972 117 972 q 476 960 457 972 q 486 938 486 954 q 465 910 486 915 q 278 903 439 903 q 79 915 99 903 q 69 938 69 921 z "},"@":{"ha":694,"x_min":0,"x_max":556,"o":"m 69 104 q 90 132 69 126 q 278 139 117 139 q 476 126 457 139 q 486 104 486 121 q 465 76 486 82 q 278 69 439 69 q 79 82 99 69 q 69 104 69 88 m 13 215 q 7 218 13 215 q 0 243 0 221 q 13 272 0 265 q 69 278 26 278 q 126 272 113 278 q 139 243 139 265 q 126 215 139 221 q 69 208 113 208 q 13 215 26 208 m 212 363 q 210 366 212 363 q 208 382 208 369 q 212 401 208 394 q 235 411 215 407 q 286 416 256 415 q 382 417 317 417 q 478 416 447 417 q 528 411 508 415 q 552 401 549 407 q 556 382 556 394 q 552 363 556 369 q 528 353 549 357 q 478 348 508 349 q 382 347 447 347 q 286 348 317 347 q 235 353 256 349 q 212 363 215 357 m 13 353 q 7 357 13 353 q 0 382 0 360 q 13 410 0 404 q 69 417 26 417 q 126 410 113 417 q 139 382 139 404 q 126 353 139 360 q 69 347 113 347 q 13 353 26 347 m 365 492 q 356 494 365 492 q 347 521 347 497 q 365 550 347 544 q 451 556 383 556 q 538 550 521 556 q 556 521 556 544 q 538 492 556 497 q 451 486 521 486 q 365 492 383 486 m 22 492 q 11 494 22 492 q 0 521 0 497 q 22 550 0 544 q 139 556 44 556 q 256 550 233 556 q 278 521 278 544 q 256 492 278 497 q 139 486 233 486 q 22 492 44 486 m 212 641 q 210 644 212 641 q 208 660 208 647 q 212 678 208 672 q 235 689 215 685 q 286 694 256 693 q 382 694 317 694 q 478 694 447 694 q 528 689 508 693 q 552 678 549 685 q 556 660 556 672 q 552 641 556 647 q 528 631 549 635 q 478 626 508 626 q 382 625 447 625 q 286 626 317 625 q 235 631 256 626 q 212 641 215 635 m 13 631 q 7 634 13 631 q 0 660 0 638 q 13 688 0 682 q 69 694 26 694 q 126 688 113 694 q 139 660 139 682 q 126 631 139 638 q 69 625 113 625 q 13 631 26 625 m 430 770 q 423 773 430 770 q 417 799 417 776 q 430 827 417 821 q 486 833 443 833 q 542 827 529 833 q 556 799 556 821 q 542 770 556 776 q 486 764 529 764 q 430 770 443 764 m 13 770 q 7 773 13 770 q 0 799 0 776 q 13 827 0 821 q 69 833 26 833 q 126 827 113 833 q 139 799 139 821 q 126 770 139 776 q 69 764 113 764 q 13 770 26 764 m 69 938 q 90 965 69 960 q 278 972 117 972 q 476 960 457 972 q 486 938 486 954 q 465 910 486 915 q 278 903 439 903 q 79 915 99 903 q 69 938 69 921 z "},"A":{"ha":694,"x_min":0,"x_max":556,"o":"m 430 76 q 423 79 430 76 q 417 104 417 82 q 430 133 417 126 q 486 139 443 139 q 542 133 529 139 q 556 104 556 126 q 542 76 556 82 q 486 69 529 69 q 430 76 443 69 m 13 76 q 7 79 13 76 q 0 104 0 82 q 13 133 0 126 q 69 139 26 139 q 126 133 113 139 q 139 104 139 126 q 126 76 139 82 q 69 69 113 69 q 13 76 26 69 m 430 215 q 423 218 430 215 q 417 243 417 221 q 430 272 417 265 q 486 278 443 278 q 542 272 529 278 q 556 243 556 265 q 542 215 556 221 q 486 208 529 208 q 430 215 443 208 m 13 215 q 7 218 13 215 q 0 243 0 221 q 13 272 0 265 q 69 278 26 278 q 126 272 113 278 q 139 243 139 265 q 126 215 139 221 q 69 208 113 208 q 13 215 26 208 m 0 382 q 21 408 0 403 q 278 417 54 417 q 543 404 518 417 q 556 382 556 399 q 535 356 556 361 q 278 347 501 347 q 13 360 38 347 q 0 382 0 365 m 430 492 q 423 495 430 492 q 417 521 417 499 q 430 549 417 543 q 486 556 443 556 q 542 549 529 556 q 556 521 556 543 q 542 492 556 499 q 486 486 529 486 q 430 492 443 486 m 13 492 q 7 495 13 492 q 0 521 0 499 q 13 549 0 543 q 69 556 26 556 q 126 549 113 556 q 139 521 139 543 q 126 492 139 499 q 69 486 113 486 q 13 492 26 486 m 360 631 q 354 634 360 631 q 347 660 347 638 q 360 688 347 682 q 417 694 374 694 q 473 688 460 694 q 486 660 486 682 q 473 631 486 638 q 417 625 460 625 q 360 631 374 625 m 83 631 q 76 634 83 631 q 69 660 69 638 q 83 688 69 682 q 139 694 96 694 q 195 688 182 694 q 208 660 208 682 q 195 631 208 638 q 139 625 182 625 q 83 631 96 625 m 161 769 q 150 772 161 769 q 139 799 139 775 q 161 828 139 822 q 278 833 183 833 q 394 828 372 833 q 417 799 417 822 q 394 769 417 775 q 278 764 372 764 q 161 769 183 764 m 222 909 q 215 912 222 909 q 208 938 208 915 q 222 966 208 960 q 278 972 235 972 q 334 966 321 972 q 347 938 347 960 q 334 909 347 915 q 278 903 321 903 q 222 909 235 903 z "},"B":{"ha":694,"x_min":0,"x_max":556,"o":"m 0 104 q 21 131 0 125 q 243 139 51 139 q 475 126 453 139 q 486 104 486 121 q 465 78 486 83 q 243 69 435 69 q 11 82 33 69 q 0 104 0 88 m 430 215 q 423 218 430 215 q 417 243 417 221 q 430 272 417 265 q 486 278 443 278 q 542 272 529 278 q 556 243 556 265 q 542 215 556 221 q 486 208 529 208 q 430 215 443 208 m 83 215 q 76 218 83 215 q 69 243 69 221 q 83 272 69 265 q 139 278 96 278 q 195 272 182 278 q 208 243 208 265 q 195 215 208 221 q 139 208 182 208 q 83 215 96 208 m 430 353 q 423 357 430 353 q 417 382 417 360 q 430 410 417 404 q 486 417 443 417 q 542 410 529 417 q 556 382 556 404 q 542 353 556 360 q 486 347 529 347 q 430 353 443 347 m 83 353 q 76 357 83 353 q 69 382 69 360 q 83 410 69 404 q 139 417 96 417 q 195 410 182 417 q 208 382 208 404 q 195 353 208 360 q 139 347 182 347 q 83 353 96 347 m 69 521 q 90 549 69 543 q 278 556 117 556 q 476 543 457 556 q 486 521 486 538 q 465 493 486 499 q 278 486 439 486 q 79 499 99 486 q 69 521 69 504 m 430 631 q 423 634 430 631 q 417 660 417 638 q 430 688 417 682 q 486 694 443 694 q 542 688 529 694 q 556 660 556 682 q 542 631 556 638 q 486 625 529 625 q 430 631 443 625 m 83 631 q 76 634 83 631 q 69 660 69 638 q 83 688 69 682 q 139 694 96 694 q 195 688 182 694 q 208 660 208 682 q 195 631 208 638 q 139 625 182 625 q 83 631 96 625 m 430 770 q 423 773 430 770 q 417 799 417 776 q 430 827 417 821 q 486 833 443 833 q 542 827 529 833 q 556 799 556 821 q 542 770 556 776 q 486 764 529 764 q 430 770 443 764 m 83 770 q 76 773 83 770 q 69 799 69 776 q 83 827 69 821 q 139 833 96 833 q 195 827 182 833 q 208 799 208 821 q 195 770 208 776 q 139 764 182 764 q 83 770 96 764 m 0 938 q 21 964 0 958 q 243 972 51 972 q 475 960 453 972 q 486 938 486 954 q 465 911 486 917 q 243 903 435 903 q 11 915 33 903 q 0 938 0 921 z "},"C":{"ha":694,"x_min":0,"x_max":556,"o":"m 142 85 q 141 89 142 85 q 139 104 139 92 q 142 123 139 117 q 166 133 146 129 q 217 138 186 138 q 313 139 247 139 q 408 138 378 139 q 459 133 439 138 q 483 123 479 129 q 486 104 486 117 q 483 85 486 92 q 459 75 479 79 q 408 70 439 71 q 313 69 378 69 q 217 70 247 69 q 166 75 186 71 q 142 85 146 79 m 430 215 q 423 218 430 215 q 417 243 417 221 q 430 272 417 265 q 486 278 443 278 q 542 272 529 278 q 556 243 556 265 q 542 215 556 221 q 486 208 529 208 q 430 215 443 208 m 83 215 q 76 218 83 215 q 69 243 69 221 q 83 272 69 265 q 139 278 96 278 q 195 272 182 278 q 208 243 208 265 q 195 215 208 221 q 139 208 182 208 q 83 215 96 208 m 13 353 q 7 357 13 353 q 0 382 0 360 q 13 410 0 404 q 69 417 26 417 q 126 410 113 417 q 139 382 139 404 q 126 353 139 360 q 69 347 113 347 q 13 353 26 347 m 13 492 q 7 495 13 492 q 0 521 0 499 q 13 549 0 543 q 69 556 26 556 q 126 549 113 556 q 139 521 139 543 q 126 492 139 499 q 69 486 113 486 q 13 492 26 486 m 13 631 q 7 634 13 631 q 0 660 0 638 q 13 688 0 682 q 69 694 26 694 q 126 688 113 694 q 139 660 139 682 q 126 631 139 638 q 69 625 113 625 q 13 631 26 625 m 430 770 q 423 773 430 770 q 417 799 417 776 q 430 827 417 821 q 486 833 443 833 q 542 827 529 833 q 556 799 556 821 q 542 770 556 776 q 486 764 529 764 q 430 770 443 764 m 83 770 q 76 773 83 770 q 69 799 69 776 q 83 827 69 821 q 139 833 96 833 q 195 827 182 833 q 208 799 208 821 q 195 770 208 776 q 139 764 182 764 q 83 770 96 764 m 142 919 q 141 922 142 919 q 139 938 139 925 q 142 956 139 950 q 166 967 146 963 q 217 972 186 971 q 313 972 247 972 q 408 972 378 972 q 459 967 439 971 q 483 956 479 963 q 486 938 486 950 q 483 919 486 925 q 459 908 479 913 q 408 903 439 904 q 313 903 378 903 q 217 903 247 903 q 166 908 186 904 q 142 919 146 913 z "},"D":{"ha":694,"x_min":0,"x_max":556,"o":"m 0 104 q 21 132 0 126 q 208 139 47 139 q 407 126 388 139 q 417 104 417 121 q 396 76 417 82 q 208 69 369 69 q 10 82 29 69 q 0 104 0 88 m 360 215 q 354 218 360 215 q 347 243 347 221 q 360 272 347 265 q 417 278 374 278 q 473 272 460 278 q 486 243 486 265 q 473 215 486 221 q 417 208 460 208 q 360 215 374 208 m 83 215 q 76 218 83 215 q 69 243 69 221 q 83 272 69 265 q 139 278 96 278 q 195 272 182 278 q 208 243 208 265 q 195 215 208 221 q 139 208 182 208 q 83 215 96 208 m 430 353 q 423 357 430 353 q 417 382 417 360 q 430 410 417 404 q 486 417 443 417 q 542 410 529 417 q 556 382 556 404 q 542 353 556 360 q 486 347 529 347 q 430 353 443 347 m 83 353 q 76 357 83 353 q 69 382 69 360 q 83 410 69 404 q 139 417 96 417 q 195 410 182 417 q 208 382 208 404 q 195 353 208 360 q 139 347 182 347 q 83 353 96 347 m 430 492 q 423 495 430 492 q 417 521 417 499 q 430 549 417 543 q 486 556 443 556 q 542 549 529 556 q 556 521 556 543 q 542 492 556 499 q 486 486 529 486 q 430 492 443 486 m 83 492 q 76 495 83 492 q 69 521 69 499 q 83 549 69 543 q 139 556 96 556 q 195 549 182 556 q 208 521 208 543 q 195 492 208 499 q 139 486 182 486 q 83 492 96 486 m 430 631 q 423 634 430 631 q 417 660 417 638 q 430 688 417 682 q 486 694 443 694 q 542 688 529 694 q 556 660 556 682 q 542 631 556 638 q 486 625 529 625 q 430 631 443 625 m 83 631 q 76 634 83 631 q 69 660 69 638 q 83 688 69 682 q 139 694 96 694 q 195 688 182 694 q 208 660 208 682 q 195 631 208 638 q 139 625 182 625 q 83 631 96 625 m 360 770 q 354 773 360 770 q 347 799 347 776 q 360 827 347 821 q 417 833 374 833 q 473 827 460 833 q 486 799 486 821 q 473 770 486 776 q 417 764 460 764 q 360 770 374 764 m 83 770 q 76 773 83 770 q 69 799 69 776 q 83 827 69 821 q 139 833 96 833 q 195 827 182 833 q 208 799 208 821 q 195 770 208 776 q 139 764 182 764 q 83 770 96 764 m 0 938 q 21 965 0 960 q 208 972 47 972 q 407 960 388 972 q 417 938 417 954 q 396 910 417 915 q 208 903 369 903 q 10 915 29 903 q 0 938 0 921 z "},"E":{"ha":694,"x_min":0,"x_max":556,"o":"m 0 104 q 21 131 0 125 q 278 139 54 139 q 543 126 518 139 q 556 104 556 121 q 535 78 556 83 q 278 69 501 69 q 13 82 38 69 q 0 104 0 88 m 13 215 q 7 218 13 215 q 0 243 0 221 q 13 272 0 265 q 69 278 26 278 q 126 272 113 278 q 139 243 139 265 q 126 215 139 221 q 69 208 113 208 q 13 215 26 208 m 13 353 q 7 357 13 353 q 0 382 0 360 q 13 410 0 404 q 69 417 26 417 q 126 410 113 417 q 139 382 139 404 q 126 353 139 360 q 69 347 113 347 q 13 353 26 347 m 0 521 q 21 549 0 543 q 208 556 47 556 q 407 543 388 556 q 417 521 417 538 q 396 493 417 499 q 208 486 369 486 q 10 499 29 486 q 0 521 0 504 m 13 631 q 7 634 13 631 q 0 660 0 638 q 13 688 0 682 q 69 694 26 694 q 126 688 113 694 q 139 660 139 682 q 126 631 139 638 q 69 625 113 625 q 13 631 26 625 m 13 770 q 7 773 13 770 q 0 799 0 776 q 13 827 0 821 q 69 833 26 833 q 126 827 113 833 q 139 799 139 821 q 126 770 139 776 q 69 764 113 764 q 13 770 26 764 m 0 938 q 21 964 0 958 q 278 972 54 972 q 543 960 518 972 q 556 938 556 954 q 535 911 556 917 q 278 903 501 903 q 13 915 38 903 q 0 938 0 921 z "},"F":{"ha":694,"x_min":0,"x_max":556,"o":"m 13 76 q 7 79 13 76 q 0 104 0 82 q 13 133 0 126 q 69 139 26 139 q 126 133 113 139 q 139 104 139 126 q 126 76 139 82 q 69 69 113 69 q 13 76 26 69 m 13 215 q 7 218 13 215 q 0 243 0 221 q 13 272 0 265 q 69 278 26 278 q 126 272 113 278 q 139 243 139 265 q 126 215 139 221 q 69 208 113 208 q 13 215 26 208 m 13 353 q 7 357 13 353 q 0 382 0 360 q 13 410 0 404 q 69 417 26 417 q 126 410 113 417 q 139 382 139 404 q 126 353 139 360 q 69 347 113 347 q 13 353 26 347 m 0 521 q 21 549 0 543 q 208 556 47 556 q 407 543 388 556 q 417 521 417 538 q 396 493 417 499 q 208 486 369 486 q 10 499 29 486 q 0 521 0 504 m 13 631 q 7 634 13 631 q 0 660 0 638 q 13 688 0 682 q 69 694 26 694 q 126 688 113 694 q 139 660 139 682 q 126 631 139 638 q 69 625 113 625 q 13 631 26 625 m 13 770 q 7 773 13 770 q 0 799 0 776 q 13 827 0 821 q 69 833 26 833 q 126 827 113 833 q 139 799 139 821 q 126 770 139 776 q 69 764 113 764 q 13 770 26 764 m 0 938 q 21 964 0 958 q 278 972 54 972 q 543 960 518 972 q 556 938 556 954 q 535 911 556 917 q 278 903 501 903 q 13 915 38 903 q 0 938 0 921 z "},"G":{"ha":694,"x_min":0,"x_max":556,"o":"m 142 85 q 141 89 142 85 q 139 104 139 92 q 142 123 139 117 q 166 133 146 129 q 217 138 186 138 q 313 139 247 139 q 408 138 378 139 q 459 133 439 138 q 483 123 479 129 q 486 104 486 117 q 483 85 486 92 q 459 75 479 79 q 408 70 439 71 q 313 69 378 69 q 217 70 247 69 q 166 75 186 71 q 142 85 146 79 m 430 215 q 423 218 430 215 q 417 243 417 221 q 430 272 417 265 q 486 278 443 278 q 542 272 529 278 q 556 243 556 265 q 542 215 556 221 q 486 208 529 208 q 430 215 443 208 m 83 215 q 76 218 83 215 q 69 243 69 221 q 83 272 69 265 q 139 278 96 278 q 195 272 182 278 q 208 243 208 265 q 195 215 208 221 q 139 208 182 208 q 83 215 96 208 m 300 353 q 289 356 300 353 q 278 382 278 358 q 300 411 278 406 q 417 417 322 417 q 533 411 511 417 q 556 382 556 406 q 533 353 556 358 q 417 347 511 347 q 300 353 322 347 m 13 353 q 7 357 13 353 q 0 382 0 360 q 13 410 0 404 q 69 417 26 417 q 126 410 113 417 q 139 382 139 404 q 126 353 139 360 q 69 347 113 347 q 13 353 26 347 m 13 492 q 7 495 13 492 q 0 521 0 499 q 13 549 0 543 q 69 556 26 556 q 126 549 113 556 q 139 521 139 543 q 126 492 139 499 q 69 486 113 486 q 13 492 26 486 m 13 631 q 7 634 13 631 q 0 660 0 638 q 13 688 0 682 q 69 694 26 694 q 126 688 113 694 q 139 660 139 682 q 126 631 139 638 q 69 625 113 625 q 13 631 26 625 m 430 770 q 423 773 430 770 q 417 799 417 776 q 430 827 417 821 q 486 833 443 833 q 542 827 529 833 q 556 799 556 821 q 542 770 556 776 q 486 764 529 764 q 430 770 443 764 m 83 770 q 76 773 83 770 q 69 799 69 776 q 83 827 69 821 q 139 833 96 833 q 195 827 182 833 q 208 799 208 821 q 195 770 208 776 q 139 764 182 764 q 83 770 96 764 m 142 919 q 141 922 142 919 q 139 938 139 925 q 142 956 139 950 q 166 967 146 963 q 217 972 186 971 q 313 972 247 972 q 408 972 378 972 q 459 967 439 971 q 483 956 479 963 q 486 938 486 950 q 483 919 486 925 q 459 908 479 913 q 408 903 439 904 q 313 903 378 903 q 217 903 247 903 q 166 908 186 904 q 142 919 146 913 z "},"H":{"ha":694,"x_min":0,"x_max":556,"o":"m 430 76 q 423 79 430 76 q 417 104 417 82 q 430 133 417 126 q 486 139 443 139 q 542 133 529 139 q 556 104 556 126 q 542 76 556 82 q 486 69 529 69 q 430 76 443 69 m 13 76 q 7 79 13 76 q 0 104 0 82 q 13 133 0 126 q 69 139 26 139 q 126 133 113 139 q 139 104 139 126 q 126 76 139 82 q 69 69 113 69 q 13 76 26 69 m 430 215 q 423 218 430 215 q 417 243 417 221 q 430 272 417 265 q 486 278 443 278 q 542 272 529 278 q 556 243 556 265 q 542 215 556 221 q 486 208 529 208 q 430 215 443 208 m 13 215 q 7 218 13 215 q 0 243 0 221 q 13 272 0 265 q 69 278 26 278 q 126 272 113 278 q 139 243 139 265 q 126 215 139 221 q 69 208 113 208 q 13 215 26 208 m 430 353 q 423 357 430 353 q 417 382 417 360 q 430 410 417 404 q 486 417 443 417 q 542 410 529 417 q 556 382 556 404 q 542 353 556 360 q 486 347 529 347 q 430 353 443 347 m 13 353 q 7 357 13 353 q 0 382 0 360 q 13 410 0 404 q 69 417 26 417 q 126 410 113 417 q 139 382 139 404 q 126 353 139 360 q 69 347 113 347 q 13 353 26 347 m 0 521 q 21 547 0 542 q 278 556 54 556 q 543 543 518 556 q 556 521 556 538 q 535 494 556 500 q 278 486 501 486 q 13 499 38 486 q 0 521 0 504 m 430 631 q 423 634 430 631 q 417 660 417 638 q 430 688 417 682 q 486 694 443 694 q 542 688 529 694 q 556 660 556 682 q 542 631 556 638 q 486 625 529 625 q 430 631 443 625 m 13 631 q 7 634 13 631 q 0 660 0 638 q 13 688 0 682 q 69 694 26 694 q 126 688 113 694 q 139 660 139 682 q 126 631 139 638 q 69 625 113 625 q 13 631 26 625 m 430 770 q 423 773 430 770 q 417 799 417 776 q 430 827 417 821 q 486 833 443 833 q 542 827 529 833 q 556 799 556 821 q 542 770 556 776 q 486 764 529 764 q 430 770 443 764 m 13 770 q 7 773 13 770 q 0 799 0 776 q 13 827 0 821 q 69 833 26 833 q 126 827 113 833 q 139 799 139 821 q 126 770 139 776 q 69 764 113 764 q 13 770 26 764 m 430 909 q 423 912 430 909 q 417 938 417 915 q 430 966 417 960 q 486 972 443 972 q 542 966 529 972 q 556 938 556 960 q 542 909 556 915 q 486 903 529 903 q 430 909 443 903 m 13 909 q 7 912 13 909 q 0 938 0 915 q 13 966 0 960 q 69 972 26 972 q 126 966 113 972 q 139 938 139 960 q 126 909 139 915 q 69 903 113 903 q 13 909 26 903 z "},"I":{"ha":694,"x_min":69,"x_max":486,"o":"m 69 104 q 90 132 69 126 q 278 139 117 139 q 476 126 457 139 q 486 104 486 121 q 465 76 486 82 q 278 69 439 69 q 79 82 99 69 q 69 104 69 88 m 222 215 q 215 218 222 215 q 208 243 208 221 q 222 272 208 265 q 278 278 235 278 q 334 272 321 278 q 347 243 347 265 q 334 215 347 221 q 278 208 321 208 q 222 215 235 208 m 222 353 q 215 357 222 353 q 208 382 208 360 q 222 410 208 404 q 278 417 235 417 q 334 410 321 417 q 347 382 347 404 q 334 353 347 360 q 278 347 321 347 q 222 353 235 347 m 222 492 q 215 495 222 492 q 208 521 208 499 q 222 549 208 543 q 278 556 235 556 q 334 549 321 556 q 347 521 347 543 q 334 492 347 499 q 278 486 321 486 q 222 492 235 486 m 222 631 q 215 634 222 631 q 208 660 208 638 q 222 688 208 682 q 278 694 235 694 q 334 688 321 694 q 347 660 347 682 q 334 631 347 638 q 278 625 321 625 q 222 631 235 625 m 222 770 q 215 773 222 770 q 208 799 208 776 q 222 827 208 821 q 278 833 235 833 q 334 827 321 833 q 347 799 347 821 q 334 770 347 776 q 278 764 321 764 q 222 770 235 764 m 69 938 q 90 965 69 960 q 278 972 117 972 q 476 960 457 972 q 486 938 486 954 q 465 910 486 915 q 278 903 439 903 q 79 915 99 903 q 69 938 69 921 z "},"J":{"ha":694,"x_min":0,"x_max":556,"o":"m 73 85 q 71 89 73 85 q 69 104 69 92 q 73 123 69 117 q 97 133 76 129 q 147 138 117 138 q 243 139 178 139 q 339 138 308 139 q 390 133 369 138 q 413 123 410 129 q 417 104 417 117 q 413 85 417 92 q 390 75 410 79 q 339 70 369 71 q 243 69 308 69 q 147 70 178 69 q 97 75 117 71 q 73 85 76 79 m 360 215 q 354 218 360 215 q 347 243 347 221 q 360 272 347 265 q 417 278 374 278 q 473 272 460 278 q 486 243 486 265 q 473 215 486 221 q 417 208 460 208 q 360 215 374 208 m 13 215 q 7 218 13 215 q 0 243 0 221 q 13 272 0 265 q 69 278 26 278 q 126 272 113 278 q 139 243 139 265 q 126 215 139 221 q 69 208 113 208 q 13 215 26 208 m 360 353 q 354 357 360 353 q 347 382 347 360 q 360 410 347 404 q 417 417 374 417 q 473 410 460 417 q 486 382 486 404 q 473 353 486 360 q 417 347 460 347 q 360 353 374 347 m 360 492 q 354 495 360 492 q 347 521 347 499 q 360 549 347 543 q 417 556 374 556 q 473 549 460 556 q 486 521 486 543 q 473 492 486 499 q 417 486 460 486 q 360 492 374 486 m 360 631 q 354 634 360 631 q 347 660 347 638 q 360 688 347 682 q 417 694 374 694 q 473 688 460 694 q 486 660 486 682 q 473 631 486 638 q 417 625 460 625 q 360 631 374 625 m 360 770 q 354 773 360 770 q 347 799 347 776 q 360 827 347 821 q 417 833 374 833 q 473 827 460 833 q 486 799 486 821 q 473 770 486 776 q 417 764 460 764 q 360 770 374 764 m 300 908 q 289 911 300 908 q 278 938 278 914 q 300 967 278 961 q 417 972 322 972 q 533 967 511 972 q 556 938 556 961 q 533 908 556 914 q 417 903 511 903 q 300 908 322 903 z "},"K":{"ha":694,"x_min":0,"x_max":556,"o":"m 430 76 q 423 79 430 76 q 417 104 417 82 q 430 133 417 126 q 486 139 443 139 q 542 133 529 139 q 556 104 556 126 q 542 76 556 82 q 486 69 529 69 q 430 76 443 69 m 13 76 q 7 79 13 76 q 0 104 0 82 q 13 133 0 126 q 69 139 26 139 q 126 133 113 139 q 139 104 139 126 q 126 76 139 82 q 69 69 113 69 q 13 76 26 69 m 296 214 q 287 217 296 214 q 278 243 278 219 q 296 272 278 267 q 382 278 314 278 q 468 272 450 278 q 486 243 486 267 q 468 214 486 219 q 382 208 450 208 q 296 214 314 208 m 13 215 q 7 218 13 215 q 0 243 0 221 q 13 272 0 265 q 69 278 26 278 q 126 272 113 278 q 139 243 139 265 q 126 215 139 221 q 69 208 113 208 q 13 215 26 208 m 3 363 q 2 366 3 363 q 0 382 0 369 q 3 401 0 394 q 27 411 7 407 q 78 416 47 415 q 174 417 108 417 q 269 416 239 417 q 320 411 300 415 q 344 401 340 407 q 347 382 347 394 q 344 363 347 369 q 320 353 340 357 q 269 348 300 349 q 174 347 239 347 q 78 348 108 347 q 27 353 47 349 q 3 363 7 357 m 18 492 q 9 494 18 492 q 0 521 0 497 q 18 550 0 544 q 104 556 36 556 q 190 550 172 556 q 208 521 208 544 q 190 492 208 497 q 104 486 172 486 q 18 492 36 486 m 3 641 q 2 644 3 641 q 0 660 0 647 q 3 678 0 672 q 27 689 7 685 q 78 694 47 693 q 174 694 108 694 q 269 694 239 694 q 320 689 300 693 q 344 678 340 685 q 347 660 347 672 q 344 641 347 647 q 320 631 340 635 q 269 626 300 626 q 174 625 239 625 q 78 626 108 625 q 27 631 47 626 q 3 641 7 635 m 296 769 q 287 772 296 769 q 278 799 278 775 q 296 828 278 822 q 382 833 314 833 q 468 828 450 833 q 486 799 486 822 q 468 769 486 775 q 382 764 450 764 q 296 769 314 764 m 13 770 q 7 773 13 770 q 0 799 0 776 q 13 827 0 821 q 69 833 26 833 q 126 827 113 833 q 139 799 139 821 q 126 770 139 776 q 69 764 113 764 q 13 770 26 764 m 430 909 q 423 912 430 909 q 417 938 417 915 q 430 966 417 960 q 486 972 443 972 q 542 966 529 972 q 556 938 556 960 q 542 909 556 915 q 486 903 529 903 q 430 909 443 903 m 13 909 q 7 912 13 909 q 0 938 0 915 q 13 966 0 960 q 69 972 26 972 q 126 966 113 972 q 139 938 139 960 q 126 909 139 915 q 69 903 113 903 q 13 909 26 903 z "},"L":{"ha":694,"x_min":0,"x_max":556,"o":"m 0 104 q 21 131 0 125 q 278 139 54 139 q 543 126 518 139 q 556 104 556 121 q 535 78 556 83 q 278 69 501 69 q 13 82 38 69 q 0 104 0 88 m 13 215 q 7 218 13 215 q 0 243 0 221 q 13 272 0 265 q 69 278 26 278 q 126 272 113 278 q 139 243 139 265 q 126 215 139 221 q 69 208 113 208 q 13 215 26 208 m 13 353 q 7 357 13 353 q 0 382 0 360 q 13 410 0 404 q 69 417 26 417 q 126 410 113 417 q 139 382 139 404 q 126 353 139 360 q 69 347 113 347 q 13 353 26 347 m 13 492 q 7 495 13 492 q 0 521 0 499 q 13 549 0 543 q 69 556 26 556 q 126 549 113 556 q 139 521 139 543 q 126 492 139 499 q 69 486 113 486 q 13 492 26 486 m 13 631 q 7 634 13 631 q 0 660 0 638 q 13 688 0 682 q 69 694 26 694 q 126 688 113 694 q 139 660 139 682 q 126 631 139 638 q 69 625 113 625 q 13 631 26 625 m 13 770 q 7 773 13 770 q 0 799 0 776 q 13 827 0 821 q 69 833 26 833 q 126 827 113 833 q 139 799 139 821 q 126 770 139 776 q 69 764 113 764 q 13 770 26 764 m 13 909 q 7 912 13 909 q 0 938 0 915 q 13 966 0 960 q 69 972 26 972 q 126 966 113 972 q 139 938 139 960 q 126 909 139 915 q 69 903 113 903 q 13 909 26 903 z "},"M":{"ha":694,"x_min":0,"x_max":556,"o":"m 430 76 q 423 79 430 76 q 417 104 417 82 q 430 133 417 126 q 486 139 443 139 q 542 133 529 139 q 556 104 556 126 q 542 76 556 82 q 486 69 529 69 q 430 76 443 69 m 13 76 q 7 79 13 76 q 0 104 0 82 q 13 133 0 126 q 69 139 26 139 q 126 133 113 139 q 139 104 139 126 q 126 76 139 82 q 69 69 113 69 q 13 76 26 69 m 430 215 q 423 218 430 215 q 417 243 417 221 q 430 272 417 265 q 486 278 443 278 q 542 272 529 278 q 556 243 556 265 q 542 215 556 221 q 486 208 529 208 q 430 215 443 208 m 13 215 q 7 218 13 215 q 0 243 0 221 q 13 272 0 265 q 69 278 26 278 q 126 272 113 278 q 139 243 139 265 q 126 215 139 221 q 69 208 113 208 q 13 215 26 208 m 430 353 q 423 357 430 353 q 417 382 417 360 q 430 410 417 404 q 486 417 443 417 q 542 410 529 417 q 556 382 556 404 q 542 353 556 360 q 486 347 529 347 q 430 353 443 347 m 13 353 q 7 357 13 353 q 0 382 0 360 q 13 410 0 404 q 69 417 26 417 q 126 410 113 417 q 139 382 139 404 q 126 353 139 360 q 69 347 113 347 q 13 353 26 347 m 430 492 q 423 495 430 492 q 417 521 417 499 q 430 549 417 543 q 486 556 443 556 q 542 549 529 556 q 556 521 556 543 q 542 492 556 499 q 486 486 529 486 q 430 492 443 486 m 222 492 q 215 495 222 492 q 208 521 208 499 q 222 549 208 543 q 278 556 235 556 q 334 549 321 556 q 347 521 347 543 q 334 492 347 499 q 278 486 321 486 q 222 492 235 486 m 13 492 q 7 495 13 492 q 0 521 0 499 q 13 549 0 543 q 69 556 26 556 q 126 549 113 556 q 139 521 139 543 q 126 492 139 499 q 69 486 113 486 q 13 492 26 486 m 0 660 q 21 686 0 681 q 278 694 54 694 q 543 682 518 694 q 556 660 556 676 q 535 633 556 639 q 278 625 501 625 q 13 638 38 625 q 0 660 0 643 m 365 769 q 356 772 365 769 q 347 799 347 775 q 365 828 347 822 q 451 833 383 833 q 538 828 521 833 q 556 799 556 822 q 538 769 556 775 q 451 764 521 764 q 365 769 383 764 m 18 769 q 9 772 18 769 q 0 799 0 775 q 18 828 0 822 q 104 833 36 833 q 190 828 172 833 q 208 799 208 822 q 190 769 208 775 q 104 764 172 764 q 18 769 36 764 m 430 909 q 423 912 430 909 q 417 938 417 915 q 430 966 417 960 q 486 972 443 972 q 542 966 529 972 q 556 938 556 960 q 542 909 556 915 q 486 903 529 903 q 430 909 443 903 m 13 909 q 7 912 13 909 q 0 938 0 915 q 13 966 0 960 q 69 972 26 972 q 126 966 113 972 q 139 938 139 960 q 126 909 139 915 q 69 903 113 903 q 13 909 26 903 z "},"N":{"ha":694,"x_min":0,"x_max":556,"o":"m 430 76 q 423 79 430 76 q 417 104 417 82 q 430 133 417 126 q 486 139 443 139 q 542 133 529 139 q 556 104 556 126 q 542 76 556 82 q 486 69 529 69 q 430 76 443 69 m 13 76 q 7 79 13 76 q 0 104 0 82 q 13 133 0 126 q 69 139 26 139 q 126 133 113 139 q 139 104 139 126 q 126 76 139 82 q 69 69 113 69 q 13 76 26 69 m 365 214 q 356 217 365 214 q 347 243 347 219 q 365 272 347 267 q 451 278 383 278 q 538 272 521 278 q 556 243 556 267 q 538 214 556 219 q 451 208 521 208 q 365 214 383 208 m 13 215 q 7 218 13 215 q 0 243 0 221 q 13 272 0 265 q 69 278 26 278 q 126 272 113 278 q 139 243 139 265 q 126 215 139 221 q 69 208 113 208 q 13 215 26 208 m 300 353 q 289 356 300 353 q 278 382 278 358 q 300 411 278 406 q 417 417 322 417 q 533 411 511 417 q 556 382 556 406 q 533 353 556 358 q 417 347 511 347 q 300 353 322 347 m 13 353 q 7 357 13 353 q 0 382 0 360 q 13 410 0 404 q 69 417 26 417 q 126 410 113 417 q 139 382 139 404 q 126 353 139 360 q 69 347 113 347 q 13 353 26 347 m 430 492 q 423 495 430 492 q 417 521 417 499 q 430 549 417 543 q 486 556 443 556 q 542 549 529 556 q 556 521 556 543 q 542 492 556 499 q 486 486 529 486 q 430 492 443 486 m 222 492 q 215 495 222 492 q 208 521 208 499 q 222 549 208 543 q 278 556 235 556 q 334 549 321 556 q 347 521 347 543 q 334 492 347 499 q 278 486 321 486 q 222 492 235 486 m 13 492 q 7 495 13 492 q 0 521 0 499 q 13 549 0 543 q 69 556 26 556 q 126 549 113 556 q 139 521 139 543 q 126 492 139 499 q 69 486 113 486 q 13 492 26 486 m 430 631 q 423 634 430 631 q 417 660 417 638 q 430 688 417 682 q 486 694 443 694 q 542 688 529 694 q 556 660 556 682 q 542 631 556 638 q 486 625 529 625 q 430 631 443 625 m 22 631 q 11 633 22 631 q 0 660 0 636 q 22 689 0 683 q 139 694 44 694 q 256 689 233 694 q 278 660 278 683 q 256 631 278 636 q 139 625 233 625 q 22 631 44 625 m 430 770 q 423 773 430 770 q 417 799 417 776 q 430 827 417 821 q 486 833 443 833 q 542 827 529 833 q 556 799 556 821 q 542 770 556 776 q 486 764 529 764 q 430 770 443 764 m 18 769 q 9 772 18 769 q 0 799 0 775 q 18 828 0 822 q 104 833 36 833 q 190 828 172 833 q 208 799 208 822 q 190 769 208 775 q 104 764 172 764 q 18 769 36 764 m 430 909 q 423 912 430 909 q 417 938 417 915 q 430 966 417 960 q 486 972 443 972 q 542 966 529 972 q 556 938 556 960 q 542 909 556 915 q 486 903 529 903 q 430 909 443 903 m 13 909 q 7 912 13 909 q 0 938 0 915 q 13 966 0 960 q 69 972 26 972 q 126 966 113 972 q 139 938 139 960 q 126 909 139 915 q 69 903 113 903 q 13 909 26 903 z "},"O":{"ha":694,"x_min":0,"x_max":556,"o":"m 69 104 q 90 132 69 126 q 278 139 117 139 q 476 126 457 139 q 486 104 486 121 q 465 76 486 82 q 278 69 439 69 q 79 82 99 69 q 69 104 69 88 m 430 215 q 423 218 430 215 q 417 243 417 221 q 430 272 417 265 q 486 278 443 278 q 542 272 529 278 q 556 243 556 265 q 542 215 556 221 q 486 208 529 208 q 430 215 443 208 m 13 215 q 7 218 13 215 q 0 243 0 221 q 13 272 0 265 q 69 278 26 278 q 126 272 113 278 q 139 243 139 265 q 126 215 139 221 q 69 208 113 208 q 13 215 26 208 m 430 353 q 423 357 430 353 q 417 382 417 360 q 430 410 417 404 q 486 417 443 417 q 542 410 529 417 q 556 382 556 404 q 542 353 556 360 q 486 347 529 347 q 430 353 443 347 m 13 353 q 7 357 13 353 q 0 382 0 360 q 13 410 0 404 q 69 417 26 417 q 126 410 113 417 q 139 382 139 404 q 126 353 139 360 q 69 347 113 347 q 13 353 26 347 m 430 492 q 423 495 430 492 q 417 521 417 499 q 430 549 417 543 q 486 556 443 556 q 542 549 529 556 q 556 521 556 543 q 542 492 556 499 q 486 486 529 486 q 430 492 443 486 m 13 492 q 7 495 13 492 q 0 521 0 499 q 13 549 0 543 q 69 556 26 556 q 126 549 113 556 q 139 521 139 543 q 126 492 139 499 q 69 486 113 486 q 13 492 26 486 m 430 631 q 423 634 430 631 q 417 660 417 638 q 430 688 417 682 q 486 694 443 694 q 542 688 529 694 q 556 660 556 682 q 542 631 556 638 q 486 625 529 625 q 430 631 443 625 m 13 631 q 7 634 13 631 q 0 660 0 638 q 13 688 0 682 q 69 694 26 694 q 126 688 113 694 q 139 660 139 682 q 126 631 139 638 q 69 625 113 625 q 13 631 26 625 m 430 770 q 423 773 430 770 q 417 799 417 776 q 430 827 417 821 q 486 833 443 833 q 542 827 529 833 q 556 799 556 821 q 542 770 556 776 q 486 764 529 764 q 430 770 443 764 m 13 770 q 7 773 13 770 q 0 799 0 776 q 13 827 0 821 q 69 833 26 833 q 126 827 113 833 q 139 799 139 821 q 126 770 139 776 q 69 764 113 764 q 13 770 26 764 m 69 938 q 90 965 69 960 q 278 972 117 972 q 476 960 457 972 q 486 938 486 954 q 465 910 486 915 q 278 903 439 903 q 79 915 99 903 q 69 938 69 921 z "},"P":{"ha":694,"x_min":0,"x_max":556,"o":"m 13 76 q 7 79 13 76 q 0 104 0 82 q 13 133 0 126 q 69 139 26 139 q 126 133 113 139 q 139 104 139 126 q 126 76 139 82 q 69 69 113 69 q 13 76 26 69 m 13 215 q 7 218 13 215 q 0 243 0 221 q 13 272 0 265 q 69 278 26 278 q 126 272 113 278 q 139 243 139 265 q 126 215 139 221 q 69 208 113 208 q 13 215 26 208 m 13 353 q 7 357 13 353 q 0 382 0 360 q 13 410 0 404 q 69 417 26 417 q 126 410 113 417 q 139 382 139 404 q 126 353 139 360 q 69 347 113 347 q 13 353 26 347 m 0 521 q 21 547 0 542 q 243 556 51 556 q 475 543 453 556 q 486 521 486 538 q 465 494 486 500 q 243 486 435 486 q 11 499 33 486 q 0 521 0 504 m 430 631 q 423 634 430 631 q 417 660 417 638 q 430 688 417 682 q 486 694 443 694 q 542 688 529 694 q 556 660 556 682 q 542 631 556 638 q 486 625 529 625 q 430 631 443 625 m 13 631 q 7 634 13 631 q 0 660 0 638 q 13 688 0 682 q 69 694 26 694 q 126 688 113 694 q 139 660 139 682 q 126 631 139 638 q 69 625 113 625 q 13 631 26 625 m 430 770 q 423 773 430 770 q 417 799 417 776 q 430 827 417 821 q 486 833 443 833 q 542 827 529 833 q 556 799 556 821 q 542 770 556 776 q 486 764 529 764 q 430 770 443 764 m 13 770 q 7 773 13 770 q 0 799 0 776 q 13 827 0 821 q 69 833 26 833 q 126 827 113 833 q 139 799 139 821 q 126 770 139 776 q 69 764 113 764 q 13 770 26 764 m 0 938 q 21 964 0 958 q 243 972 51 972 q 475 960 453 972 q 486 938 486 954 q 465 911 486 917 q 243 903 435 903 q 11 915 33 903 q 0 938 0 921 z "},"Q":{"ha":694,"x_min":0,"x_max":556,"o":"m 69 104 q 90 131 69 125 q 313 139 121 139 q 544 126 522 139 q 556 104 556 121 q 535 78 556 83 q 313 69 504 69 q 81 82 103 69 q 69 104 69 88 m 360 215 q 354 218 360 215 q 347 243 347 221 q 360 272 347 265 q 417 278 374 278 q 473 272 460 278 q 486 243 486 265 q 473 215 486 221 q 417 208 460 208 q 360 215 374 208 m 13 215 q 7 218 13 215 q 0 243 0 221 q 13 272 0 265 q 69 278 26 278 q 126 272 113 278 q 139 243 139 265 q 126 215 139 221 q 69 208 113 208 q 13 215 26 208 m 300 353 q 289 356 300 353 q 278 382 278 358 q 300 411 278 406 q 417 417 322 417 q 533 411 511 417 q 556 382 556 406 q 533 353 556 358 q 417 347 511 347 q 300 353 322 347 m 13 353 q 7 357 13 353 q 0 382 0 360 q 13 410 0 404 q 69 417 26 417 q 126 410 113 417 q 139 382 139 404 q 126 353 139 360 q 69 347 113 347 q 13 353 26 347 m 430 492 q 423 495 430 492 q 417 521 417 499 q 430 549 417 543 q 486 556 443 556 q 542 549 529 556 q 556 521 556 543 q 542 492 556 499 q 486 486 529 486 q 430 492 443 486 m 13 492 q 7 495 13 492 q 0 521 0 499 q 13 549 0 543 q 69 556 26 556 q 126 549 113 556 q 139 521 139 543 q 126 492 139 499 q 69 486 113 486 q 13 492 26 486 m 430 631 q 423 634 430 631 q 417 660 417 638 q 430 688 417 682 q 486 694 443 694 q 542 688 529 694 q 556 660 556 682 q 542 631 556 638 q 486 625 529 625 q 430 631 443 625 m 13 631 q 7 634 13 631 q 0 660 0 638 q 13 688 0 682 q 69 694 26 694 q 126 688 113 694 q 139 660 139 682 q 126 631 139 638 q 69 625 113 625 q 13 631 26 625 m 430 770 q 423 773 430 770 q 417 799 417 776 q 430 827 417 821 q 486 833 443 833 q 542 827 529 833 q 556 799 556 821 q 542 770 556 776 q 486 764 529 764 q 430 770 443 764 m 13 770 q 7 773 13 770 q 0 799 0 776 q 13 827 0 821 q 69 833 26 833 q 126 827 113 833 q 139 799 139 821 q 126 770 139 776 q 69 764 113 764 q 13 770 26 764 m 69 938 q 90 965 69 960 q 278 972 117 972 q 476 960 457 972 q 486 938 486 954 q 465 910 486 915 q 278 903 439 903 q 79 915 99 903 q 69 938 69 921 z "},"R":{"ha":694,"x_min":0,"x_max":556,"o":"m 430 76 q 423 79 430 76 q 417 104 417 82 q 430 133 417 126 q 486 139 443 139 q 542 133 529 139 q 556 104 556 126 q 542 76 556 82 q 486 69 529 69 q 430 76 443 69 m 13 76 q 7 79 13 76 q 0 104 0 82 q 13 133 0 126 q 69 139 26 139 q 126 133 113 139 q 139 104 139 126 q 126 76 139 82 q 69 69 113 69 q 13 76 26 69 m 360 215 q 354 218 360 215 q 347 243 347 221 q 360 272 347 265 q 417 278 374 278 q 473 272 460 278 q 486 243 486 265 q 473 215 486 221 q 417 208 460 208 q 360 215 374 208 m 13 215 q 7 218 13 215 q 0 243 0 221 q 13 272 0 265 q 69 278 26 278 q 126 272 113 278 q 139 243 139 265 q 126 215 139 221 q 69 208 113 208 q 13 215 26 208 m 291 353 q 284 357 291 353 q 278 382 278 360 q 291 410 278 404 q 347 417 304 417 q 403 410 390 417 q 417 382 417 404 q 403 353 417 360 q 347 347 390 347 q 291 353 304 347 m 13 353 q 7 357 13 353 q 0 382 0 360 q 13 410 0 404 q 69 417 26 417 q 126 410 113 417 q 139 382 139 404 q 126 353 139 360 q 69 347 113 347 q 13 353 26 347 m 0 521 q 21 547 0 542 q 243 556 51 556 q 475 543 453 556 q 486 521 486 538 q 465 494 486 500 q 243 486 435 486 q 11 499 33 486 q 0 521 0 504 m 430 631 q 423 634 430 631 q 417 660 417 638 q 430 688 417 682 q 486 694 443 694 q 542 688 529 694 q 556 660 556 682 q 542 631 556 638 q 486 625 529 625 q 430 631 443 625 m 13 631 q 7 634 13 631 q 0 660 0 638 q 13 688 0 682 q 69 694 26 694 q 126 688 113 694 q 139 660 139 682 q 126 631 139 638 q 69 625 113 625 q 13 631 26 625 m 430 770 q 423 773 430 770 q 417 799 417 776 q 430 827 417 821 q 486 833 443 833 q 542 827 529 833 q 556 799 556 821 q 542 770 556 776 q 486 764 529 764 q 430 770 443 764 m 13 770 q 7 773 13 770 q 0 799 0 776 q 13 827 0 821 q 69 833 26 833 q 126 827 113 833 q 139 799 139 821 q 126 770 139 776 q 69 764 113 764 q 13 770 26 764 m 0 938 q 21 964 0 958 q 243 972 51 972 q 475 960 453 972 q 486 938 486 954 q 465 911 486 917 q 243 903 435 903 q 11 915 33 903 q 0 938 0 921 z "},"S":{"ha":694,"x_min":0,"x_max":556,"o":"m 69 104 q 90 132 69 126 q 278 139 117 139 q 476 126 457 139 q 486 104 486 121 q 465 76 486 82 q 278 69 439 69 q 79 82 99 69 q 69 104 69 88 m 430 215 q 423 218 430 215 q 417 243 417 221 q 430 272 417 265 q 486 278 443 278 q 542 272 529 278 q 556 243 556 265 q 542 215 556 221 q 486 208 529 208 q 430 215 443 208 m 13 215 q 7 218 13 215 q 0 243 0 221 q 13 272 0 265 q 69 278 26 278 q 126 272 113 278 q 139 243 139 265 q 126 215 139 221 q 69 208 113 208 q 13 215 26 208 m 430 353 q 423 357 430 353 q 417 382 417 360 q 430 410 417 404 q 486 417 443 417 q 542 410 529 417 q 556 382 556 404 q 542 353 556 360 q 486 347 529 347 q 430 353 443 347 m 69 521 q 90 549 69 543 q 278 556 117 556 q 476 543 457 556 q 486 521 486 538 q 465 493 486 499 q 278 486 439 486 q 79 499 99 486 q 69 521 69 504 m 13 631 q 7 634 13 631 q 0 660 0 638 q 13 688 0 682 q 69 694 26 694 q 126 688 113 694 q 139 660 139 682 q 126 631 139 638 q 69 625 113 625 q 13 631 26 625 m 430 770 q 423 773 430 770 q 417 799 417 776 q 430 827 417 821 q 486 833 443 833 q 542 827 529 833 q 556 799 556 821 q 542 770 556 776 q 486 764 529 764 q 430 770 443 764 m 13 770 q 7 773 13 770 q 0 799 0 776 q 13 827 0 821 q 69 833 26 833 q 126 827 113 833 q 139 799 139 821 q 126 770 139 776 q 69 764 113 764 q 13 770 26 764 m 69 938 q 90 965 69 960 q 278 972 117 972 q 476 960 457 972 q 486 938 486 954 q 465 910 486 915 q 278 903 439 903 q 79 915 99 903 q 69 938 69 921 z "},"T":{"ha":694,"x_min":0,"x_max":556,"o":"m 222 76 q 215 79 222 76 q 208 104 208 82 q 222 133 208 126 q 278 139 235 139 q 334 133 321 139 q 347 104 347 126 q 334 76 347 82 q 278 69 321 69 q 222 76 235 69 m 222 215 q 215 218 222 215 q 208 243 208 221 q 222 272 208 265 q 278 278 235 278 q 334 272 321 278 q 347 243 347 265 q 334 215 347 221 q 278 208 321 208 q 222 215 235 208 m 222 353 q 215 357 222 353 q 208 382 208 360 q 222 410 208 404 q 278 417 235 417 q 334 410 321 417 q 347 382 347 404 q 334 353 347 360 q 278 347 321 347 q 222 353 235 347 m 222 492 q 215 495 222 492 q 208 521 208 499 q 222 549 208 543 q 278 556 235 556 q 334 549 321 556 q 347 521 347 543 q 334 492 347 499 q 278 486 321 486 q 222 492 235 486 m 222 631 q 215 634 222 631 q 208 660 208 638 q 222 688 208 682 q 278 694 235 694 q 334 688 321 694 q 347 660 347 682 q 334 631 347 638 q 278 625 321 625 q 222 631 235 625 m 222 770 q 215 773 222 770 q 208 799 208 776 q 222 827 208 821 q 278 833 235 833 q 334 827 321 833 q 347 799 347 821 q 334 770 347 776 q 278 764 321 764 q 222 770 235 764 m 0 938 q 21 964 0 958 q 278 972 54 972 q 543 960 518 972 q 556 938 556 954 q 535 911 556 917 q 278 903 501 903 q 13 915 38 903 q 0 938 0 921 z "},"U":{"ha":694,"x_min":0,"x_max":556,"o":"m 69 104 q 90 132 69 126 q 278 139 117 139 q 476 126 457 139 q 486 104 486 121 q 465 76 486 82 q 278 69 439 69 q 79 82 99 69 q 69 104 69 88 m 430 215 q 423 218 430 215 q 417 243 417 221 q 430 272 417 265 q 486 278 443 278 q 542 272 529 278 q 556 243 556 265 q 542 215 556 221 q 486 208 529 208 q 430 215 443 208 m 13 215 q 7 218 13 215 q 0 243 0 221 q 13 272 0 265 q 69 278 26 278 q 126 272 113 278 q 139 243 139 265 q 126 215 139 221 q 69 208 113 208 q 13 215 26 208 m 430 353 q 423 357 430 353 q 417 382 417 360 q 430 410 417 404 q 486 417 443 417 q 542 410 529 417 q 556 382 556 404 q 542 353 556 360 q 486 347 529 347 q 430 353 443 347 m 13 353 q 7 357 13 353 q 0 382 0 360 q 13 410 0 404 q 69 417 26 417 q 126 410 113 417 q 139 382 139 404 q 126 353 139 360 q 69 347 113 347 q 13 353 26 347 m 430 492 q 423 495 430 492 q 417 521 417 499 q 430 549 417 543 q 486 556 443 556 q 542 549 529 556 q 556 521 556 543 q 542 492 556 499 q 486 486 529 486 q 430 492 443 486 m 13 492 q 7 495 13 492 q 0 521 0 499 q 13 549 0 543 q 69 556 26 556 q 126 549 113 556 q 139 521 139 543 q 126 492 139 499 q 69 486 113 486 q 13 492 26 486 m 430 631 q 423 634 430 631 q 417 660 417 638 q 430 688 417 682 q 486 694 443 694 q 542 688 529 694 q 556 660 556 682 q 542 631 556 638 q 486 625 529 625 q 430 631 443 625 m 13 631 q 7 634 13 631 q 0 660 0 638 q 13 688 0 682 q 69 694 26 694 q 126 688 113 694 q 139 660 139 682 q 126 631 139 638 q 69 625 113 625 q 13 631 26 625 m 430 770 q 423 773 430 770 q 417 799 417 776 q 430 827 417 821 q 486 833 443 833 q 542 827 529 833 q 556 799 556 821 q 542 770 556 776 q 486 764 529 764 q 430 770 443 764 m 13 770 q 7 773 13 770 q 0 799 0 776 q 13 827 0 821 q 69 833 26 833 q 126 827 113 833 q 139 799 139 821 q 126 770 139 776 q 69 764 113 764 q 13 770 26 764 m 430 909 q 423 912 430 909 q 417 938 417 915 q 430 966 417 960 q 486 972 443 972 q 542 966 529 972 q 556 938 556 960 q 542 909 556 915 q 486 903 529 903 q 430 909 443 903 m 13 909 q 7 912 13 909 q 0 938 0 915 q 13 966 0 960 q 69 972 26 972 q 126 966 113 972 q 139 938 139 960 q 126 909 139 915 q 69 903 113 903 q 13 909 26 903 z "},"V":{"ha":694,"x_min":0,"x_max":556,"o":"m 222 76 q 215 79 222 76 q 208 104 208 82 q 222 133 208 126 q 278 139 235 139 q 334 133 321 139 q 347 104 347 126 q 334 76 347 82 q 278 69 321 69 q 222 76 235 69 m 161 214 q 150 217 161 214 q 139 243 139 219 q 161 272 139 267 q 278 278 183 278 q 394 272 372 278 q 417 243 417 267 q 394 214 417 219 q 278 208 372 208 q 161 214 183 208 m 161 353 q 150 356 161 353 q 139 382 139 358 q 161 411 139 406 q 278 417 183 417 q 394 411 372 417 q 417 382 417 406 q 394 353 417 358 q 278 347 372 347 q 161 353 183 347 m 360 492 q 354 495 360 492 q 347 521 347 499 q 360 549 347 543 q 417 556 374 556 q 473 549 460 556 q 486 521 486 543 q 473 492 486 499 q 417 486 460 486 q 360 492 374 486 m 83 492 q 76 495 83 492 q 69 521 69 499 q 83 549 69 543 q 139 556 96 556 q 195 549 182 556 q 208 521 208 543 q 195 492 208 499 q 139 486 182 486 q 83 492 96 486 m 360 631 q 354 634 360 631 q 347 660 347 638 q 360 688 347 682 q 417 694 374 694 q 473 688 460 694 q 486 660 486 682 q 473 631 486 638 q 417 625 460 625 q 360 631 374 625 m 83 631 q 76 634 83 631 q 69 660 69 638 q 83 688 69 682 q 139 694 96 694 q 195 688 182 694 q 208 660 208 682 q 195 631 208 638 q 139 625 182 625 q 83 631 96 625 m 430 770 q 423 773 430 770 q 417 799 417 776 q 430 827 417 821 q 486 833 443 833 q 542 827 529 833 q 556 799 556 821 q 542 770 556 776 q 486 764 529 764 q 430 770 443 764 m 13 770 q 7 773 13 770 q 0 799 0 776 q 13 827 0 821 q 69 833 26 833 q 126 827 113 833 q 139 799 139 821 q 126 770 139 776 q 69 764 113 764 q 13 770 26 764 m 430 909 q 423 912 430 909 q 417 938 417 915 q 430 966 417 960 q 486 972 443 972 q 542 966 529 972 q 556 938 556 960 q 542 909 556 915 q 486 903 529 903 q 430 909 443 903 m 13 909 q 7 912 13 909 q 0 938 0 915 q 13 966 0 960 q 69 972 26 972 q 126 966 113 972 q 139 938 139 960 q 126 909 139 915 q 69 903 113 903 q 13 909 26 903 z "},"W":{"ha":694,"x_min":0,"x_max":556,"o":"m 360 76 q 354 79 360 76 q 347 104 347 82 q 360 133 347 126 q 417 139 374 139 q 473 133 460 139 q 486 104 486 126 q 473 76 486 82 q 417 69 460 69 q 360 76 374 69 m 83 76 q 76 79 83 76 q 69 104 69 82 q 83 133 69 126 q 139 139 96 139 q 195 133 182 139 q 208 104 208 126 q 195 76 208 82 q 139 69 182 69 q 83 76 96 69 m 0 243 q 21 269 0 264 q 278 278 54 278 q 543 265 518 278 q 556 243 556 260 q 535 217 556 222 q 278 208 501 208 q 13 221 38 208 q 0 243 0 226 m 430 353 q 423 357 430 353 q 417 382 417 360 q 430 410 417 404 q 486 417 443 417 q 542 410 529 417 q 556 382 556 404 q 542 353 556 360 q 486 347 529 347 q 430 353 443 347 m 222 353 q 215 357 222 353 q 208 382 208 360 q 222 410 208 404 q 278 417 235 417 q 334 410 321 417 q 347 382 347 404 q 334 353 347 360 q 278 347 321 347 q 222 353 235 347 m 13 353 q 7 357 13 353 q 0 382 0 360 q 13 410 0 404 q 69 417 26 417 q 126 410 113 417 q 139 382 139 404 q 126 353 139 360 q 69 347 113 347 q 13 353 26 347 m 430 492 q 423 495 430 492 q 417 521 417 499 q 430 549 417 543 q 486 556 443 556 q 542 549 529 556 q 556 521 556 543 q 542 492 556 499 q 486 486 529 486 q 430 492 443 486 m 222 492 q 215 495 222 492 q 208 521 208 499 q 222 549 208 543 q 278 556 235 556 q 334 549 321 556 q 347 521 347 543 q 334 492 347 499 q 278 486 321 486 q 222 492 235 486 m 13 492 q 7 495 13 492 q 0 521 0 499 q 13 549 0 543 q 69 556 26 556 q 126 549 113 556 q 139 521 139 543 q 126 492 139 499 q 69 486 113 486 q 13 492 26 486 m 430 631 q 423 634 430 631 q 417 660 417 638 q 430 688 417 682 q 486 694 443 694 q 542 688 529 694 q 556 660 556 682 q 542 631 556 638 q 486 625 529 625 q 430 631 443 625 m 13 631 q 7 634 13 631 q 0 660 0 638 q 13 688 0 682 q 69 694 26 694 q 126 688 113 694 q 139 660 139 682 q 126 631 139 638 q 69 625 113 625 q 13 631 26 625 m 430 770 q 423 773 430 770 q 417 799 417 776 q 430 827 417 821 q 486 833 443 833 q 542 827 529 833 q 556 799 556 821 q 542 770 556 776 q 486 764 529 764 q 430 770 443 764 m 13 770 q 7 773 13 770 q 0 799 0 776 q 13 827 0 821 q 69 833 26 833 q 126 827 113 833 q 139 799 139 821 q 126 770 139 776 q 69 764 113 764 q 13 770 26 764 m 430 909 q 423 912 430 909 q 417 938 417 915 q 430 966 417 960 q 486 972 443 972 q 542 966 529 972 q 556 938 556 960 q 542 909 556 915 q 486 903 529 903 q 430 909 443 903 m 13 909 q 7 912 13 909 q 0 938 0 915 q 13 966 0 960 q 69 972 26 972 q 126 966 113 972 q 139 938 139 960 q 126 909 139 915 q 69 903 113 903 q 13 909 26 903 z "},"X":{"ha":694,"x_min":0,"x_max":556,"o":"m 430 76 q 423 79 430 76 q 417 104 417 82 q 430 133 417 126 q 486 139 443 139 q 542 133 529 139 q 556 104 556 126 q 542 76 556 82 q 486 69 529 69 q 430 76 443 69 m 13 76 q 7 79 13 76 q 0 104 0 82 q 13 133 0 126 q 69 139 26 139 q 126 133 113 139 q 139 104 139 126 q 126 76 139 82 q 69 69 113 69 q 13 76 26 69 m 360 215 q 354 218 360 215 q 347 243 347 221 q 360 272 347 265 q 417 278 374 278 q 473 272 460 278 q 486 243 486 265 q 473 215 486 221 q 417 208 460 208 q 360 215 374 208 m 83 215 q 76 218 83 215 q 69 243 69 221 q 83 272 69 265 q 139 278 96 278 q 195 272 182 278 q 208 243 208 265 q 195 215 208 221 q 139 208 182 208 q 83 215 96 208 m 161 353 q 150 356 161 353 q 139 382 139 358 q 161 411 139 406 q 278 417 183 417 q 394 411 372 417 q 417 382 417 406 q 394 353 417 358 q 278 347 372 347 q 161 353 183 347 m 222 492 q 215 495 222 492 q 208 521 208 499 q 222 549 208 543 q 278 556 235 556 q 334 549 321 556 q 347 521 347 543 q 334 492 347 499 q 278 486 321 486 q 222 492 235 486 m 161 631 q 150 633 161 631 q 139 660 139 636 q 161 689 139 683 q 278 694 183 694 q 394 689 372 694 q 417 660 417 683 q 394 631 417 636 q 278 625 372 625 q 161 631 183 625 m 360 770 q 354 773 360 770 q 347 799 347 776 q 360 827 347 821 q 417 833 374 833 q 473 827 460 833 q 486 799 486 821 q 473 770 486 776 q 417 764 460 764 q 360 770 374 764 m 83 770 q 76 773 83 770 q 69 799 69 776 q 83 827 69 821 q 139 833 96 833 q 195 827 182 833 q 208 799 208 821 q 195 770 208 776 q 139 764 182 764 q 83 770 96 764 m 430 909 q 423 912 430 909 q 417 938 417 915 q 430 966 417 960 q 486 972 443 972 q 542 966 529 972 q 556 938 556 960 q 542 909 556 915 q 486 903 529 903 q 430 909 443 903 m 13 909 q 7 912 13 909 q 0 938 0 915 q 13 966 0 960 q 69 972 26 972 q 126 966 113 972 q 139 938 139 960 q 126 909 139 915 q 69 903 113 903 q 13 909 26 903 z "},"Y":{"ha":694,"x_min":0,"x_max":556,"o":"m 222 76 q 215 79 222 76 q 208 104 208 82 q 222 133 208 126 q 278 139 235 139 q 334 133 321 139 q 347 104 347 126 q 334 76 347 82 q 278 69 321 69 q 222 76 235 69 m 222 215 q 215 218 222 215 q 208 243 208 221 q 222 272 208 265 q 278 278 235 278 q 334 272 321 278 q 347 243 347 265 q 334 215 347 221 q 278 208 321 208 q 222 215 235 208 m 222 353 q 215 357 222 353 q 208 382 208 360 q 222 410 208 404 q 278 417 235 417 q 334 410 321 417 q 347 382 347 404 q 334 353 347 360 q 278 347 321 347 q 222 353 235 347 m 222 492 q 215 495 222 492 q 208 521 208 499 q 222 549 208 543 q 278 556 235 556 q 334 549 321 556 q 347 521 347 543 q 334 492 347 499 q 278 486 321 486 q 222 492 235 486 m 161 631 q 150 633 161 631 q 139 660 139 636 q 161 689 139 683 q 278 694 183 694 q 394 689 372 694 q 417 660 417 683 q 394 631 417 636 q 278 625 372 625 q 161 631 183 625 m 360 770 q 354 773 360 770 q 347 799 347 776 q 360 827 347 821 q 417 833 374 833 q 473 827 460 833 q 486 799 486 821 q 473 770 486 776 q 417 764 460 764 q 360 770 374 764 m 83 770 q 76 773 83 770 q 69 799 69 776 q 83 827 69 821 q 139 833 96 833 q 195 827 182 833 q 208 799 208 821 q 195 770 208 776 q 139 764 182 764 q 83 770 96 764 m 430 909 q 423 912 430 909 q 417 938 417 915 q 430 966 417 960 q 486 972 443 972 q 542 966 529 972 q 556 938 556 960 q 542 909 556 915 q 486 903 529 903 q 430 909 443 903 m 13 909 q 7 912 13 909 q 0 938 0 915 q 13 966 0 960 q 69 972 26 972 q 126 966 113 972 q 139 938 139 960 q 126 909 139 915 q 69 903 113 903 q 13 909 26 903 z "},"Z":{"ha":694,"x_min":0,"x_max":556,"o":"m 0 104 q 21 131 0 125 q 278 139 54 139 q 543 126 518 139 q 556 104 556 121 q 535 78 556 83 q 278 69 501 69 q 13 82 38 69 q 0 104 0 88 m 83 215 q 76 218 83 215 q 69 243 69 221 q 83 272 69 265 q 139 278 96 278 q 195 272 182 278 q 208 243 208 265 q 195 215 208 221 q 139 208 182 208 q 83 215 96 208 m 152 353 q 145 357 152 353 q 139 382 139 360 q 152 410 139 404 q 208 417 165 417 q 265 410 251 417 q 278 382 278 404 q 265 353 278 360 q 208 347 251 347 q 152 353 165 347 m 222 492 q 215 495 222 492 q 208 521 208 499 q 222 549 208 543 q 278 556 235 556 q 334 549 321 556 q 347 521 347 543 q 334 492 347 499 q 278 486 321 486 q 222 492 235 486 m 291 631 q 284 634 291 631 q 278 660 278 638 q 291 688 278 682 q 347 694 304 694 q 403 688 390 694 q 417 660 417 682 q 403 631 417 638 q 347 625 390 625 q 291 631 304 625 m 360 770 q 354 773 360 770 q 347 799 347 776 q 360 827 347 821 q 417 833 374 833 q 473 827 460 833 q 486 799 486 821 q 473 770 486 776 q 417 764 460 764 q 360 770 374 764 m 0 938 q 21 964 0 958 q 278 972 54 972 q 543 960 518 972 q 556 938 556 954 q 535 911 556 917 q 278 903 501 903 q 13 915 38 903 q 0 938 0 921 z "},"[":{"ha":694,"x_min":139,"x_max":486,"o":"m 142 85 q 141 89 142 85 q 139 104 139 92 q 142 123 139 117 q 166 133 146 129 q 217 138 186 138 q 313 139 247 139 q 408 138 378 139 q 459 133 439 138 q 483 123 479 129 q 486 104 486 117 q 483 85 486 92 q 459 75 479 79 q 408 70 439 71 q 313 69 378 69 q 217 70 247 69 q 166 75 186 71 q 142 85 146 79 m 152 215 q 145 218 152 215 q 139 243 139 221 q 152 272 139 265 q 208 278 165 278 q 265 272 251 278 q 278 243 278 265 q 265 215 278 221 q 208 208 251 208 q 152 215 165 208 m 152 353 q 145 357 152 353 q 139 382 139 360 q 152 410 139 404 q 208 417 165 417 q 265 410 251 417 q 278 382 278 404 q 265 353 278 360 q 208 347 251 347 q 152 353 165 347 m 152 492 q 145 495 152 492 q 139 521 139 499 q 152 549 139 543 q 208 556 165 556 q 265 549 251 556 q 278 521 278 543 q 265 492 278 499 q 208 486 251 486 q 152 492 165 486 m 152 631 q 145 634 152 631 q 139 660 139 638 q 152 688 139 682 q 208 694 165 694 q 265 688 251 694 q 278 660 278 682 q 265 631 278 638 q 208 625 251 625 q 152 631 165 625 m 152 770 q 145 773 152 770 q 139 799 139 776 q 152 827 139 821 q 208 833 165 833 q 265 827 251 833 q 278 799 278 821 q 265 770 278 776 q 208 764 251 764 q 152 770 165 764 m 142 919 q 141 922 142 919 q 139 938 139 925 q 142 956 139 950 q 166 967 146 963 q 217 972 186 971 q 313 972 247 972 q 408 972 378 972 q 459 967 439 971 q 483 956 479 963 q 486 938 486 950 q 483 919 486 925 q 459 908 479 913 q 408 903 439 904 q 313 903 378 903 q 217 903 247 903 q 166 908 186 904 q 142 919 146 913 z "},"\\":{"ha":694,"x_min":0,"x_max":556,"o":"m 430 76 q 423 79 430 76 q 417 104 417 82 q 430 133 417 126 q 486 139 443 139 q 542 133 529 139 q 556 104 556 126 q 542 76 556 82 q 486 69 529 69 q 430 76 443 69 m 360 215 q 354 218 360 215 q 347 243 347 221 q 360 272 347 265 q 417 278 374 278 q 473 272 460 278 q 486 243 486 265 q 473 215 486 221 q 417 208 460 208 q 360 215 374 208 m 291 353 q 284 357 291 353 q 278 382 278 360 q 291 410 278 404 q 347 417 304 417 q 403 410 390 417 q 417 382 417 404 q 403 353 417 360 q 347 347 390 347 q 291 353 304 347 m 222 492 q 215 495 222 492 q 208 521 208 499 q 222 549 208 543 q 278 556 235 556 q 334 549 321 556 q 347 521 347 543 q 334 492 347 499 q 278 486 321 486 q 222 492 235 486 m 152 631 q 145 634 152 631 q 139 660 139 638 q 152 688 139 682 q 208 694 165 694 q 265 688 251 694 q 278 660 278 682 q 265 631 278 638 q 208 625 251 625 q 152 631 165 625 m 83 770 q 76 773 83 770 q 69 799 69 776 q 83 827 69 821 q 139 833 96 833 q 195 827 182 833 q 208 799 208 821 q 195 770 208 776 q 139 764 182 764 q 83 770 96 764 m 13 909 q 7 912 13 909 q 0 938 0 915 q 13 966 0 960 q 69 972 26 972 q 126 966 113 972 q 139 938 139 960 q 126 909 139 915 q 69 903 113 903 q 13 909 26 903 z "},"]":{"ha":694,"x_min":69,"x_max":417,"o":"m 73 85 q 71 89 73 85 q 69 104 69 92 q 73 123 69 117 q 97 133 76 129 q 147 138 117 138 q 243 139 178 139 q 339 138 308 139 q 390 133 369 138 q 413 123 410 129 q 417 104 417 117 q 413 85 417 92 q 390 75 410 79 q 339 70 369 71 q 243 69 308 69 q 147 70 178 69 q 97 75 117 71 q 73 85 76 79 m 291 215 q 284 218 291 215 q 278 243 278 221 q 291 272 278 265 q 347 278 304 278 q 403 272 390 278 q 417 243 417 265 q 403 215 417 221 q 347 208 390 208 q 291 215 304 208 m 291 353 q 284 357 291 353 q 278 382 278 360 q 291 410 278 404 q 347 417 304 417 q 403 410 390 417 q 417 382 417 404 q 403 353 417 360 q 347 347 390 347 q 291 353 304 347 m 291 492 q 284 495 291 492 q 278 521 278 499 q 291 549 278 543 q 347 556 304 556 q 403 549 390 556 q 417 521 417 543 q 403 492 417 499 q 347 486 390 486 q 291 492 304 486 m 291 631 q 284 634 291 631 q 278 660 278 638 q 291 688 278 682 q 347 694 304 694 q 403 688 390 694 q 417 660 417 682 q 403 631 417 638 q 347 625 390 625 q 291 631 304 625 m 291 770 q 284 773 291 770 q 278 799 278 776 q 291 827 278 821 q 347 833 304 833 q 403 827 390 833 q 417 799 417 821 q 403 770 417 776 q 347 764 390 764 q 291 770 304 764 m 73 919 q 71 922 73 919 q 69 938 69 925 q 73 956 69 950 q 97 967 76 963 q 147 972 117 971 q 243 972 178 972 q 339 972 308 972 q 390 967 369 971 q 413 956 410 963 q 417 938 417 950 q 413 919 417 925 q 390 908 410 913 q 339 903 369 904 q 243 903 308 903 q 147 903 178 903 q 97 908 117 904 q 73 919 76 913 z "},"^":{"ha":694,"x_min":0,"x_max":556,"o":"m 430 492 q 423 495 430 492 q 417 521 417 499 q 430 549 417 543 q 486 556 443 556 q 542 549 529 556 q 556 521 556 543 q 542 492 556 499 q 486 486 529 486 q 430 492 443 486 m 13 492 q 7 495 13 492 q 0 521 0 499 q 13 549 0 543 q 69 556 26 556 q 126 549 113 556 q 139 521 139 543 q 126 492 139 499 q 69 486 113 486 q 13 492 26 486 m 360 631 q 354 634 360 631 q 347 660 347 638 q 360 688 347 682 q 417 694 374 694 q 473 688 460 694 q 486 660 486 682 q 473 631 486 638 q 417 625 460 625 q 360 631 374 625 m 83 631 q 76 634 83 631 q 69 660 69 638 q 83 688 69 682 q 139 694 96 694 q 195 688 182 694 q 208 660 208 682 q 195 631 208 638 q 139 625 182 625 q 83 631 96 625 m 161 769 q 150 772 161 769 q 139 799 139 775 q 161 828 139 822 q 278 833 183 833 q 394 828 372 833 q 417 799 417 822 q 394 769 417 775 q 278 764 372 764 q 161 769 183 764 m 222 909 q 215 912 222 909 q 208 938 208 915 q 222 966 208 960 q 278 972 235 972 q 334 966 321 972 q 347 938 347 960 q 334 909 347 915 q 278 903 321 903 q 222 909 235 903 z "},"_":{"ha":694,"x_min":0,"x_max":556,"o":"m 0 104 q 21 131 0 125 q 278 139 54 139 q 543 126 518 139 q 556 104 556 121 q 535 78 556 83 q 278 69 501 69 q 13 82 38 69 q 0 104 0 88 z "},"`":{"ha":694,"x_min":139,"x_max":417,"o":"m 291 631 q 284 634 291 631 q 278 660 278 638 q 291 688 278 682 q 347 694 304 694 q 403 688 390 694 q 417 660 417 682 q 403 631 417 638 q 347 625 390 625 q 291 631 304 625 m 222 770 q 215 773 222 770 q 208 799 208 776 q 222 827 208 821 q 278 833 235 833 q 334 827 321 833 q 347 799 347 821 q 334 770 347 776 q 278 764 321 764 q 222 770 235 764 m 157 908 q 148 911 157 908 q 139 938 139 914 q 157 967 139 961 q 243 972 175 972 q 329 967 311 972 q 347 938 347 961 q 329 908 347 914 q 243 903 311 903 q 157 908 175 903 z "},"a":{"ha":694,"x_min":0,"x_max":556,"o":"m 69 104 q 90 131 69 125 q 313 139 121 139 q 544 126 522 139 q 556 104 556 121 q 535 78 556 83 q 313 69 504 69 q 81 82 103 69 q 69 104 69 88 m 365 214 q 356 217 365 214 q 347 243 347 219 q 365 272 347 267 q 451 278 383 278 q 538 272 521 278 q 556 243 556 267 q 538 214 556 219 q 451 208 521 208 q 365 214 383 208 m 13 215 q 7 218 13 215 q 0 243 0 221 q 13 272 0 265 q 69 278 26 278 q 126 272 113 278 q 139 243 139 265 q 126 215 139 221 q 69 208 113 208 q 13 215 26 208 m 69 382 q 90 408 69 403 q 313 417 121 417 q 544 404 522 417 q 556 382 556 399 q 535 356 556 361 q 313 347 504 347 q 81 360 103 347 q 69 382 69 365 m 430 492 q 423 495 430 492 q 417 521 417 499 q 430 549 417 543 q 486 556 443 556 q 542 549 529 556 q 556 521 556 543 q 542 492 556 499 q 486 486 529 486 q 430 492 443 486 m 69 660 q 90 688 69 682 q 278 694 117 694 q 476 682 457 694 q 486 660 486 676 q 465 632 486 638 q 278 625 439 625 q 79 638 99 625 q 69 660 69 643 z "},"b":{"ha":694,"x_min":0,"x_max":556,"o":"m 0 104 q 21 131 0 125 q 243 139 51 139 q 475 126 453 139 q 486 104 486 121 q 465 78 486 83 q 243 69 435 69 q 11 82 33 69 q 0 104 0 88 m 430 215 q 423 218 430 215 q 417 243 417 221 q 430 272 417 265 q 486 278 443 278 q 542 272 529 278 q 556 243 556 265 q 542 215 556 221 q 486 208 529 208 q 430 215 443 208 m 18 214 q 9 217 18 214 q 0 243 0 219 q 18 272 0 267 q 104 278 36 278 q 190 272 172 278 q 208 243 208 267 q 190 214 208 219 q 104 208 172 208 q 18 214 36 208 m 430 353 q 423 357 430 353 q 417 382 417 360 q 430 410 417 404 q 486 417 443 417 q 542 410 529 417 q 556 382 556 404 q 542 353 556 360 q 486 347 529 347 q 430 353 443 347 m 13 353 q 7 357 13 353 q 0 382 0 360 q 13 410 0 404 q 69 417 26 417 q 126 410 113 417 q 139 382 139 404 q 126 353 139 360 q 69 347 113 347 q 13 353 26 347 m 430 492 q 423 495 430 492 q 417 521 417 499 q 430 549 417 543 q 486 556 443 556 q 542 549 529 556 q 556 521 556 543 q 542 492 556 499 q 486 486 529 486 q 430 492 443 486 m 18 492 q 9 494 18 492 q 0 521 0 497 q 18 550 0 544 q 104 556 36 556 q 190 550 172 556 q 208 521 208 544 q 190 492 208 497 q 104 486 172 486 q 18 492 36 486 m 0 660 q 21 686 0 681 q 243 694 51 694 q 475 682 453 694 q 486 660 486 676 q 465 633 486 639 q 243 625 435 625 q 11 638 33 625 q 0 660 0 643 m 13 770 q 7 773 13 770 q 0 799 0 776 q 13 827 0 821 q 69 833 26 833 q 126 827 113 833 q 139 799 139 821 q 126 770 139 776 q 69 764 113 764 q 13 770 26 764 m 13 909 q 7 912 13 909 q 0 938 0 915 q 13 966 0 960 q 69 972 26 972 q 126 966 113 972 q 139 938 139 960 q 126 909 139 915 q 69 903 113 903 q 13 909 26 903 z "},"c":{"ha":694,"x_min":0,"x_max":556,"o":"m 69 104 q 90 131 69 125 q 313 139 121 139 q 544 126 522 139 q 556 104 556 121 q 535 78 556 83 q 313 69 504 69 q 81 82 103 69 q 69 104 69 88 m 13 215 q 7 218 13 215 q 0 243 0 221 q 13 272 0 265 q 69 278 26 278 q 126 272 113 278 q 139 243 139 265 q 126 215 139 221 q 69 208 113 208 q 13 215 26 208 m 13 353 q 7 357 13 353 q 0 382 0 360 q 13 410 0 404 q 69 417 26 417 q 126 410 113 417 q 139 382 139 404 q 126 353 139 360 q 69 347 113 347 q 13 353 26 347 m 430 492 q 423 495 430 492 q 417 521 417 499 q 430 549 417 543 q 486 556 443 556 q 542 549 529 556 q 556 521 556 543 q 542 492 556 499 q 486 486 529 486 q 430 492 443 486 m 13 492 q 7 495 13 492 q 0 521 0 499 q 13 549 0 543 q 69 556 26 556 q 126 549 113 556 q 139 521 139 543 q 126 492 139 499 q 69 486 113 486 q 13 492 26 486 m 69 660 q 90 688 69 682 q 278 694 117 694 q 476 682 457 694 q 486 660 486 676 q 465 632 486 638 q 278 625 439 625 q 79 638 99 625 q 69 660 69 643 z "},"d":{"ha":694,"x_min":0,"x_max":556,"o":"m 69 104 q 90 131 69 125 q 313 139 121 139 q 544 126 522 139 q 556 104 556 121 q 535 78 556 83 q 313 69 504 69 q 81 82 103 69 q 69 104 69 88 m 365 214 q 356 217 365 214 q 347 243 347 219 q 365 272 347 267 q 451 278 383 278 q 538 272 521 278 q 556 243 556 267 q 538 214 556 219 q 451 208 521 208 q 365 214 383 208 m 13 215 q 7 218 13 215 q 0 243 0 221 q 13 272 0 265 q 69 278 26 278 q 126 272 113 278 q 139 243 139 265 q 126 215 139 221 q 69 208 113 208 q 13 215 26 208 m 430 353 q 423 357 430 353 q 417 382 417 360 q 430 410 417 404 q 486 417 443 417 q 542 410 529 417 q 556 382 556 404 q 542 353 556 360 q 486 347 529 347 q 430 353 443 347 m 13 353 q 7 357 13 353 q 0 382 0 360 q 13 410 0 404 q 69 417 26 417 q 126 410 113 417 q 139 382 139 404 q 126 353 139 360 q 69 347 113 347 q 13 353 26 347 m 365 492 q 356 494 365 492 q 347 521 347 497 q 365 550 347 544 q 451 556 383 556 q 538 550 521 556 q 556 521 556 544 q 538 492 556 497 q 451 486 521 486 q 365 492 383 486 m 13 492 q 7 495 13 492 q 0 521 0 499 q 13 549 0 543 q 69 556 26 556 q 126 549 113 556 q 139 521 139 543 q 126 492 139 499 q 69 486 113 486 q 13 492 26 486 m 69 660 q 90 686 69 681 q 313 694 121 694 q 544 682 522 694 q 556 660 556 676 q 535 633 556 639 q 313 625 504 625 q 81 638 103 625 q 69 660 69 643 m 430 770 q 423 773 430 770 q 417 799 417 776 q 430 827 417 821 q 486 833 443 833 q 542 827 529 833 q 556 799 556 821 q 542 770 556 776 q 486 764 529 764 q 430 770 443 764 m 430 909 q 423 912 430 909 q 417 938 417 915 q 430 966 417 960 q 486 972 443 972 q 542 966 529 972 q 556 938 556 960 q 542 909 556 915 q 486 903 529 903 q 430 909 443 903 z "},"e":{"ha":694,"x_min":0,"x_max":556,"o":"m 69 104 q 90 132 69 126 q 278 139 117 139 q 476 126 457 139 q 486 104 486 121 q 465 76 486 82 q 278 69 439 69 q 79 82 99 69 q 69 104 69 88 m 13 215 q 7 218 13 215 q 0 243 0 221 q 13 272 0 265 q 69 278 26 278 q 126 272 113 278 q 139 243 139 265 q 126 215 139 221 q 69 208 113 208 q 13 215 26 208 m 0 382 q 21 408 0 403 q 278 417 54 417 q 543 404 518 417 q 556 382 556 399 q 535 356 556 361 q 278 347 501 347 q 13 360 38 347 q 0 382 0 365 m 430 492 q 423 495 430 492 q 417 521 417 499 q 430 549 417 543 q 486 556 443 556 q 542 549 529 556 q 556 521 556 543 q 542 492 556 499 q 486 486 529 486 q 430 492 443 486 m 13 492 q 7 495 13 492 q 0 521 0 499 q 13 549 0 543 q 69 556 26 556 q 126 549 113 556 q 139 521 139 543 q 126 492 139 499 q 69 486 113 486 q 13 492 26 486 m 69 660 q 90 688 69 682 q 278 694 117 694 q 476 682 457 694 q 486 660 486 676 q 465 632 486 638 q 278 625 439 625 q 79 638 99 625 q 69 660 69 643 z "},"f":{"ha":694,"x_min":0,"x_max":556,"o":"m 152 76 q 145 79 152 76 q 139 104 139 82 q 152 133 139 126 q 208 139 165 139 q 265 133 251 139 q 278 104 278 126 q 265 76 278 82 q 208 69 251 69 q 152 76 165 69 m 152 215 q 145 218 152 215 q 139 243 139 221 q 152 272 139 265 q 208 278 165 278 q 265 272 251 278 q 278 243 278 265 q 265 215 278 221 q 208 208 251 208 q 152 215 165 208 m 152 353 q 145 357 152 353 q 139 382 139 360 q 152 410 139 404 q 208 417 165 417 q 265 410 251 417 q 278 382 278 404 q 265 353 278 360 q 208 347 251 347 q 152 353 165 347 m 0 521 q 21 549 0 543 q 208 556 47 556 q 407 543 388 556 q 417 521 417 538 q 396 493 417 499 q 208 486 369 486 q 10 499 29 486 q 0 521 0 504 m 152 631 q 145 634 152 631 q 139 660 139 638 q 152 688 139 682 q 208 694 165 694 q 265 688 251 694 q 278 660 278 682 q 265 631 278 638 q 208 625 251 625 q 152 631 165 625 m 430 770 q 423 773 430 770 q 417 799 417 776 q 430 827 417 821 q 486 833 443 833 q 542 827 529 833 q 556 799 556 821 q 542 770 556 776 q 486 764 529 764 q 430 770 443 764 m 152 770 q 145 773 152 770 q 139 799 139 776 q 152 827 139 821 q 208 833 165 833 q 265 827 251 833 q 278 799 278 821 q 265 770 278 776 q 208 764 251 764 q 152 770 165 764 m 231 908 q 219 911 231 908 q 208 938 208 914 q 231 967 208 961 q 347 972 253 972 q 464 967 442 972 q 486 938 486 961 q 464 908 486 914 q 347 903 442 903 q 231 908 253 903 z "},"g":{"ha":694,"x_min":0,"x_max":556,"o":"m 69 -174 q 90 -146 69 -151 q 278 -139 117 -139 q 476 -151 457 -139 q 486 -174 486 -157 q 465 -201 486 -196 q 278 -208 439 -208 q 79 -196 99 -208 q 69 -174 69 -190 m 430 -63 q 423 -60 430 -63 q 417 -35 417 -57 q 430 -6 417 -12 q 486 0 443 0 q 542 -6 529 0 q 556 -35 556 -12 q 542 -63 556 -57 q 486 -69 529 -69 q 430 -63 443 -69 m 13 -63 q 7 -60 13 -63 q 0 -35 0 -57 q 13 -6 0 -12 q 69 0 26 0 q 126 -6 113 0 q 139 -35 139 -12 q 126 -63 139 -57 q 69 -69 113 -69 q 13 -63 26 -69 m 69 104 q 90 132 69 126 q 278 139 117 139 q 476 126 457 139 q 486 104 486 121 q 465 76 486 82 q 278 69 439 69 q 79 82 99 69 q 69 104 69 88 m 13 215 q 7 218 13 215 q 0 243 0 221 q 13 272 0 265 q 69 278 26 278 q 126 272 113 278 q 139 243 139 265 q 126 215 139 221 q 69 208 113 208 q 13 215 26 208 m 73 363 q 71 366 73 363 q 69 382 69 369 q 73 401 69 394 q 97 411 76 407 q 147 416 117 415 q 243 417 178 417 q 339 416 308 417 q 390 411 369 415 q 413 401 410 407 q 417 382 417 394 q 413 363 417 369 q 390 353 410 357 q 339 348 369 349 q 243 347 308 347 q 147 348 178 347 q 97 353 117 349 q 73 363 76 357 m 360 492 q 354 495 360 492 q 347 521 347 499 q 360 549 347 543 q 417 556 374 556 q 473 549 460 556 q 486 521 486 543 q 473 492 486 499 q 417 486 460 486 q 360 492 374 486 m 13 492 q 7 495 13 492 q 0 521 0 499 q 13 549 0 543 q 69 556 26 556 q 126 549 113 556 q 139 521 139 543 q 126 492 139 499 q 69 486 113 486 q 13 492 26 486 m 69 660 q 90 686 69 681 q 313 694 121 694 q 544 682 522 694 q 556 660 556 676 q 535 633 556 639 q 313 625 504 625 q 81 638 103 625 q 69 660 69 643 z "},"h":{"ha":694,"x_min":0,"x_max":556,"o":"m 430 76 q 423 79 430 76 q 417 104 417 82 q 430 133 417 126 q 486 139 443 139 q 542 133 529 139 q 556 104 556 126 q 542 76 556 82 q 486 69 529 69 q 430 76 443 69 m 13 76 q 7 79 13 76 q 0 104 0 82 q 13 133 0 126 q 69 139 26 139 q 126 133 113 139 q 139 104 139 126 q 126 76 139 82 q 69 69 113 69 q 13 76 26 69 m 430 215 q 423 218 430 215 q 417 243 417 221 q 430 272 417 265 q 486 278 443 278 q 542 272 529 278 q 556 243 556 265 q 542 215 556 221 q 486 208 529 208 q 430 215 443 208 m 13 215 q 7 218 13 215 q 0 243 0 221 q 13 272 0 265 q 69 278 26 278 q 126 272 113 278 q 139 243 139 265 q 126 215 139 221 q 69 208 113 208 q 13 215 26 208 m 430 353 q 423 357 430 353 q 417 382 417 360 q 430 410 417 404 q 486 417 443 417 q 542 410 529 417 q 556 382 556 404 q 542 353 556 360 q 486 347 529 347 q 430 353 443 347 m 13 353 q 7 357 13 353 q 0 382 0 360 q 13 410 0 404 q 69 417 26 417 q 126 410 113 417 q 139 382 139 404 q 126 353 139 360 q 69 347 113 347 q 13 353 26 347 m 430 492 q 423 495 430 492 q 417 521 417 499 q 430 549 417 543 q 486 556 443 556 q 542 549 529 556 q 556 521 556 543 q 542 492 556 499 q 486 486 529 486 q 430 492 443 486 m 18 492 q 9 494 18 492 q 0 521 0 497 q 18 550 0 544 q 104 556 36 556 q 190 550 172 556 q 208 521 208 544 q 190 492 208 497 q 104 486 172 486 q 18 492 36 486 m 0 660 q 21 686 0 681 q 243 694 51 694 q 475 682 453 694 q 486 660 486 676 q 465 633 486 639 q 243 625 435 625 q 11 638 33 625 q 0 660 0 643 m 13 770 q 7 773 13 770 q 0 799 0 776 q 13 827 0 821 q 69 833 26 833 q 126 827 113 833 q 139 799 139 821 q 126 770 139 776 q 69 764 113 764 q 13 770 26 764 m 13 909 q 7 912 13 909 q 0 938 0 915 q 13 966 0 960 q 69 972 26 972 q 126 966 113 972 q 139 938 139 960 q 126 909 139 915 q 69 903 113 903 q 13 909 26 903 z "},"i":{"ha":694,"x_min":69,"x_max":486,"o":"m 69 104 q 90 132 69 126 q 278 139 117 139 q 476 126 457 139 q 486 104 486 121 q 465 76 486 82 q 278 69 439 69 q 79 82 99 69 q 69 104 69 88 m 222 215 q 215 218 222 215 q 208 243 208 221 q 222 272 208 265 q 278 278 235 278 q 334 272 321 278 q 347 243 347 265 q 334 215 347 221 q 278 208 321 208 q 222 215 235 208 m 222 353 q 215 357 222 353 q 208 382 208 360 q 222 410 208 404 q 278 417 235 417 q 334 410 321 417 q 347 382 347 404 q 334 353 347 360 q 278 347 321 347 q 222 353 235 347 m 222 492 q 215 495 222 492 q 208 521 208 499 q 222 549 208 543 q 278 556 235 556 q 334 549 321 556 q 347 521 347 543 q 334 492 347 499 q 278 486 321 486 q 222 492 235 486 m 157 631 q 148 633 157 631 q 139 660 139 636 q 157 689 139 683 q 243 694 175 694 q 329 689 311 694 q 347 660 347 683 q 329 631 347 636 q 243 625 311 625 q 157 631 175 625 m 222 909 q 215 912 222 909 q 208 938 208 915 q 222 966 208 960 q 278 972 235 972 q 334 966 321 972 q 347 938 347 960 q 334 909 347 915 q 278 903 321 903 q 222 909 235 903 z "},"j":{"ha":694,"x_min":0,"x_max":486,"o":"m 73 -192 q 71 -189 73 -192 q 69 -174 69 -186 q 73 -155 69 -161 q 97 -144 76 -149 q 147 -140 117 -140 q 243 -139 178 -139 q 339 -140 308 -139 q 390 -144 369 -140 q 413 -155 410 -149 q 417 -174 417 -161 q 413 -192 417 -186 q 390 -203 410 -199 q 339 -208 369 -207 q 243 -208 308 -208 q 147 -208 178 -208 q 97 -203 117 -207 q 73 -192 76 -199 m 360 -63 q 354 -60 360 -63 q 347 -35 347 -57 q 360 -6 347 -12 q 417 0 374 0 q 473 -6 460 0 q 486 -35 486 -12 q 473 -63 486 -57 q 417 -69 460 -69 q 360 -63 374 -69 m 13 -63 q 7 -60 13 -63 q 0 -35 0 -57 q 13 -6 0 -12 q 69 0 26 0 q 126 -6 113 0 q 139 -35 139 -12 q 126 -63 139 -57 q 69 -69 113 -69 q 13 -63 26 -69 m 360 76 q 354 79 360 76 q 347 104 347 82 q 360 133 347 126 q 417 139 374 139 q 473 133 460 139 q 486 104 486 126 q 473 76 486 82 q 417 69 460 69 q 360 76 374 69 m 13 76 q 7 79 13 76 q 0 104 0 82 q 13 133 0 126 q 69 139 26 139 q 126 133 113 139 q 139 104 139 126 q 126 76 139 82 q 69 69 113 69 q 13 76 26 69 m 360 215 q 354 218 360 215 q 347 243 347 221 q 360 272 347 265 q 417 278 374 278 q 473 272 460 278 q 486 243 486 265 q 473 215 486 221 q 417 208 460 208 q 360 215 374 208 m 360 353 q 354 357 360 353 q 347 382 347 360 q 360 410 347 404 q 417 417 374 417 q 473 410 460 417 q 486 382 486 404 q 473 353 486 360 q 417 347 460 347 q 360 353 374 347 m 360 492 q 354 495 360 492 q 347 521 347 499 q 360 549 347 543 q 417 556 374 556 q 473 549 460 556 q 486 521 486 543 q 473 492 486 499 q 417 486 460 486 q 360 492 374 486 m 360 631 q 354 634 360 631 q 347 660 347 638 q 360 688 347 682 q 417 694 374 694 q 473 688 460 694 q 486 660 486 682 q 473 631 486 638 q 417 625 460 625 q 360 631 374 625 m 360 909 q 354 912 360 909 q 347 938 347 915 q 360 966 347 960 q 417 972 374 972 q 473 966 460 972 q 486 938 486 960 q 473 909 486 915 q 417 903 460 903 q 360 909 374 903 z "},"k":{"ha":694,"x_min":0,"x_max":556,"o":"m 430 76 q 423 79 430 76 q 417 104 417 82 q 430 133 417 126 q 486 139 443 139 q 542 133 529 139 q 556 104 556 126 q 542 76 556 82 q 486 69 529 69 q 430 76 443 69 m 13 76 q 7 79 13 76 q 0 104 0 82 q 13 133 0 126 q 69 139 26 139 q 126 133 113 139 q 139 104 139 126 q 126 76 139 82 q 69 69 113 69 q 13 76 26 69 m 291 215 q 284 218 291 215 q 278 243 278 221 q 291 272 278 265 q 347 278 304 278 q 403 272 390 278 q 417 243 417 265 q 403 215 417 221 q 347 208 390 208 q 291 215 304 208 m 13 215 q 7 218 13 215 q 0 243 0 221 q 13 272 0 265 q 69 278 26 278 q 126 272 113 278 q 139 243 139 265 q 126 215 139 221 q 69 208 113 208 q 13 215 26 208 m 22 353 q 11 356 22 353 q 0 382 0 358 q 22 411 0 406 q 139 417 44 417 q 256 411 233 417 q 278 382 278 406 q 256 353 278 358 q 139 347 233 347 q 22 353 44 347 m 222 492 q 215 495 222 492 q 208 521 208 499 q 222 549 208 543 q 278 556 235 556 q 334 549 321 556 q 347 521 347 543 q 334 492 347 499 q 278 486 321 486 q 222 492 235 486 m 13 492 q 7 495 13 492 q 0 521 0 499 q 13 549 0 543 q 69 556 26 556 q 126 549 113 556 q 139 521 139 543 q 126 492 139 499 q 69 486 113 486 q 13 492 26 486 m 291 631 q 284 634 291 631 q 278 660 278 638 q 291 688 278 682 q 347 694 304 694 q 403 688 390 694 q 417 660 417 682 q 403 631 417 638 q 347 625 390 625 q 291 631 304 625 m 13 631 q 7 634 13 631 q 0 660 0 638 q 13 688 0 682 q 69 694 26 694 q 126 688 113 694 q 139 660 139 682 q 126 631 139 638 q 69 625 113 625 q 13 631 26 625 m 13 770 q 7 773 13 770 q 0 799 0 776 q 13 827 0 821 q 69 833 26 833 q 126 827 113 833 q 139 799 139 821 q 126 770 139 776 q 69 764 113 764 q 13 770 26 764 m 13 909 q 7 912 13 909 q 0 938 0 915 q 13 966 0 960 q 69 972 26 972 q 126 966 113 972 q 139 938 139 960 q 126 909 139 915 q 69 903 113 903 q 13 909 26 903 z "},"l":{"ha":694,"x_min":139,"x_max":417,"o":"m 161 75 q 150 78 161 75 q 139 104 139 81 q 161 133 139 128 q 278 139 183 139 q 394 133 372 139 q 417 104 417 128 q 394 75 417 81 q 278 69 372 69 q 161 75 183 69 m 222 215 q 215 218 222 215 q 208 243 208 221 q 222 272 208 265 q 278 278 235 278 q 334 272 321 278 q 347 243 347 265 q 334 215 347 221 q 278 208 321 208 q 222 215 235 208 m 222 353 q 215 357 222 353 q 208 382 208 360 q 222 410 208 404 q 278 417 235 417 q 334 410 321 417 q 347 382 347 404 q 334 353 347 360 q 278 347 321 347 q 222 353 235 347 m 222 492 q 215 495 222 492 q 208 521 208 499 q 222 549 208 543 q 278 556 235 556 q 334 549 321 556 q 347 521 347 543 q 334 492 347 499 q 278 486 321 486 q 222 492 235 486 m 222 631 q 215 634 222 631 q 208 660 208 638 q 222 688 208 682 q 278 694 235 694 q 334 688 321 694 q 347 660 347 682 q 334 631 347 638 q 278 625 321 625 q 222 631 235 625 m 222 770 q 215 773 222 770 q 208 799 208 776 q 222 827 208 821 q 278 833 235 833 q 334 827 321 833 q 347 799 347 821 q 334 770 347 776 q 278 764 321 764 q 222 770 235 764 m 157 908 q 148 911 157 908 q 139 938 139 914 q 157 967 139 961 q 243 972 175 972 q 329 967 311 972 q 347 938 347 961 q 329 908 347 914 q 243 903 311 903 q 157 908 175 903 z "},"m":{"ha":694,"x_min":0,"x_max":556,"o":"m 430 76 q 423 79 430 76 q 417 104 417 82 q 430 133 417 126 q 486 139 443 139 q 542 133 529 139 q 556 104 556 126 q 542 76 556 82 q 486 69 529 69 q 430 76 443 69 m 13 76 q 7 79 13 76 q 0 104 0 82 q 13 133 0 126 q 69 139 26 139 q 126 133 113 139 q 139 104 139 126 q 126 76 139 82 q 69 69 113 69 q 13 76 26 69 m 430 215 q 423 218 430 215 q 417 243 417 221 q 430 272 417 265 q 486 278 443 278 q 542 272 529 278 q 556 243 556 265 q 542 215 556 221 q 486 208 529 208 q 430 215 443 208 m 222 215 q 215 218 222 215 q 208 243 208 221 q 222 272 208 265 q 278 278 235 278 q 334 272 321 278 q 347 243 347 265 q 334 215 347 221 q 278 208 321 208 q 222 215 235 208 m 13 215 q 7 218 13 215 q 0 243 0 221 q 13 272 0 265 q 69 278 26 278 q 126 272 113 278 q 139 243 139 265 q 126 215 139 221 q 69 208 113 208 q 13 215 26 208 m 430 353 q 423 357 430 353 q 417 382 417 360 q 430 410 417 404 q 486 417 443 417 q 542 410 529 417 q 556 382 556 404 q 542 353 556 360 q 486 347 529 347 q 430 353 443 347 m 222 353 q 215 357 222 353 q 208 382 208 360 q 222 410 208 404 q 278 417 235 417 q 334 410 321 417 q 347 382 347 404 q 334 353 347 360 q 278 347 321 347 q 222 353 235 347 m 13 353 q 7 357 13 353 q 0 382 0 360 q 13 410 0 404 q 69 417 26 417 q 126 410 113 417 q 139 382 139 404 q 126 353 139 360 q 69 347 113 347 q 13 353 26 347 m 0 521 q 21 547 0 542 q 278 556 54 556 q 543 543 518 556 q 556 521 556 538 q 535 494 556 500 q 278 486 501 486 q 13 499 38 486 q 0 521 0 504 m 360 631 q 354 634 360 631 q 347 660 347 638 q 360 688 347 682 q 417 694 374 694 q 473 688 460 694 q 486 660 486 682 q 473 631 486 638 q 417 625 460 625 q 360 631 374 625 m 18 631 q 9 633 18 631 q 0 660 0 636 q 18 689 0 683 q 104 694 36 694 q 190 689 172 694 q 208 660 208 683 q 190 631 208 636 q 104 625 172 625 q 18 631 36 625 z "},"n":{"ha":694,"x_min":0,"x_max":556,"o":"m 430 76 q 423 79 430 76 q 417 104 417 82 q 430 133 417 126 q 486 139 443 139 q 542 133 529 139 q 556 104 556 126 q 542 76 556 82 q 486 69 529 69 q 430 76 443 69 m 13 76 q 7 79 13 76 q 0 104 0 82 q 13 133 0 126 q 69 139 26 139 q 126 133 113 139 q 139 104 139 126 q 126 76 139 82 q 69 69 113 69 q 13 76 26 69 m 430 215 q 423 218 430 215 q 417 243 417 221 q 430 272 417 265 q 486 278 443 278 q 542 272 529 278 q 556 243 556 265 q 542 215 556 221 q 486 208 529 208 q 430 215 443 208 m 13 215 q 7 218 13 215 q 0 243 0 221 q 13 272 0 265 q 69 278 26 278 q 126 272 113 278 q 139 243 139 265 q 126 215 139 221 q 69 208 113 208 q 13 215 26 208 m 430 353 q 423 357 430 353 q 417 382 417 360 q 430 410 417 404 q 486 417 443 417 q 542 410 529 417 q 556 382 556 404 q 542 353 556 360 q 486 347 529 347 q 430 353 443 347 m 13 353 q 7 357 13 353 q 0 382 0 360 q 13 410 0 404 q 69 417 26 417 q 126 410 113 417 q 139 382 139 404 q 126 353 139 360 q 69 347 113 347 q 13 353 26 347 m 430 492 q 423 495 430 492 q 417 521 417 499 q 430 549 417 543 q 486 556 443 556 q 542 549 529 556 q 556 521 556 543 q 542 492 556 499 q 486 486 529 486 q 430 492 443 486 m 18 492 q 9 494 18 492 q 0 521 0 497 q 18 550 0 544 q 104 556 36 556 q 190 550 172 556 q 208 521 208 544 q 190 492 208 497 q 104 486 172 486 q 18 492 36 486 m 0 660 q 21 686 0 681 q 243 694 51 694 q 475 682 453 694 q 486 660 486 676 q 465 633 486 639 q 243 625 435 625 q 11 638 33 625 q 0 660 0 643 z "},"o":{"ha":694,"x_min":0,"x_max":556,"o":"m 69 104 q 90 132 69 126 q 278 139 117 139 q 476 126 457 139 q 486 104 486 121 q 465 76 486 82 q 278 69 439 69 q 79 82 99 69 q 69 104 69 88 m 430 215 q 423 218 430 215 q 417 243 417 221 q 430 272 417 265 q 486 278 443 278 q 542 272 529 278 q 556 243 556 265 q 542 215 556 221 q 486 208 529 208 q 430 215 443 208 m 13 215 q 7 218 13 215 q 0 243 0 221 q 13 272 0 265 q 69 278 26 278 q 126 272 113 278 q 139 243 139 265 q 126 215 139 221 q 69 208 113 208 q 13 215 26 208 m 430 353 q 423 357 430 353 q 417 382 417 360 q 430 410 417 404 q 486 417 443 417 q 542 410 529 417 q 556 382 556 404 q 542 353 556 360 q 486 347 529 347 q 430 353 443 347 m 13 353 q 7 357 13 353 q 0 382 0 360 q 13 410 0 404 q 69 417 26 417 q 126 410 113 417 q 139 382 139 404 q 126 353 139 360 q 69 347 113 347 q 13 353 26 347 m 430 492 q 423 495 430 492 q 417 521 417 499 q 430 549 417 543 q 486 556 443 556 q 542 549 529 556 q 556 521 556 543 q 542 492 556 499 q 486 486 529 486 q 430 492 443 486 m 13 492 q 7 495 13 492 q 0 521 0 499 q 13 549 0 543 q 69 556 26 556 q 126 549 113 556 q 139 521 139 543 q 126 492 139 499 q 69 486 113 486 q 13 492 26 486 m 69 660 q 90 688 69 682 q 278 694 117 694 q 476 682 457 694 q 486 660 486 676 q 465 632 486 638 q 278 625 439 625 q 79 638 99 625 q 69 660 69 643 z "},"p":{"ha":694,"x_min":0,"x_max":556,"o":"m 13 -202 q 7 -199 13 -202 q 0 -174 0 -196 q 13 -145 0 -151 q 69 -139 26 -139 q 126 -145 113 -139 q 139 -174 139 -151 q 126 -202 139 -196 q 69 -208 113 -208 q 13 -202 26 -208 m 13 -63 q 7 -60 13 -63 q 0 -35 0 -57 q 13 -6 0 -12 q 69 0 26 0 q 126 -6 113 0 q 139 -35 139 -12 q 126 -63 139 -57 q 69 -69 113 -69 q 13 -63 26 -69 m 13 76 q 7 79 13 76 q 0 104 0 82 q 13 133 0 126 q 69 139 26 139 q 126 133 113 139 q 139 104 139 126 q 126 76 139 82 q 69 69 113 69 q 13 76 26 69 m 0 243 q 21 269 0 264 q 243 278 51 278 q 475 265 453 278 q 486 243 486 260 q 465 217 486 222 q 243 208 435 208 q 11 221 33 208 q 0 243 0 226 m 430 353 q 423 357 430 353 q 417 382 417 360 q 430 410 417 404 q 486 417 443 417 q 542 410 529 417 q 556 382 556 404 q 542 353 556 360 q 486 347 529 347 q 430 353 443 347 m 18 353 q 9 356 18 353 q 0 382 0 358 q 18 411 0 406 q 104 417 36 417 q 190 411 172 417 q 208 382 208 406 q 190 353 208 358 q 104 347 172 347 q 18 353 36 347 m 430 492 q 423 495 430 492 q 417 521 417 499 q 430 549 417 543 q 486 556 443 556 q 542 549 529 556 q 556 521 556 543 q 542 492 556 499 q 486 486 529 486 q 430 492 443 486 m 18 492 q 9 494 18 492 q 0 521 0 497 q 18 550 0 544 q 104 556 36 556 q 190 550 172 556 q 208 521 208 544 q 190 492 208 497 q 104 486 172 486 q 18 492 36 486 m 0 660 q 21 686 0 681 q 243 694 51 694 q 475 682 453 694 q 486 660 486 676 q 465 633 486 639 q 243 625 435 625 q 11 638 33 625 q 0 660 0 643 z "},"q":{"ha":694,"x_min":0,"x_max":556,"o":"m 430 -202 q 423 -199 430 -202 q 417 -174 417 -196 q 430 -145 417 -151 q 486 -139 443 -139 q 542 -145 529 -139 q 556 -174 556 -151 q 542 -202 556 -196 q 486 -208 529 -208 q 430 -202 443 -208 m 430 -63 q 423 -60 430 -63 q 417 -35 417 -57 q 430 -6 417 -12 q 486 0 443 0 q 542 -6 529 0 q 556 -35 556 -12 q 542 -63 556 -57 q 486 -69 529 -69 q 430 -63 443 -69 m 430 76 q 423 79 430 76 q 417 104 417 82 q 430 133 417 126 q 486 139 443 139 q 542 133 529 139 q 556 104 556 126 q 542 76 556 82 q 486 69 529 69 q 430 76 443 69 m 69 243 q 90 269 69 264 q 313 278 121 278 q 544 265 522 278 q 556 243 556 260 q 535 217 556 222 q 313 208 504 208 q 81 221 103 208 q 69 243 69 226 m 365 353 q 356 356 365 353 q 347 382 347 358 q 365 411 347 406 q 451 417 383 417 q 538 411 521 417 q 556 382 556 406 q 538 353 556 358 q 451 347 521 347 q 365 353 383 347 m 13 353 q 7 357 13 353 q 0 382 0 360 q 13 410 0 404 q 69 417 26 417 q 126 410 113 417 q 139 382 139 404 q 126 353 139 360 q 69 347 113 347 q 13 353 26 347 m 365 492 q 356 494 365 492 q 347 521 347 497 q 365 550 347 544 q 451 556 383 556 q 538 550 521 556 q 556 521 556 544 q 538 492 556 497 q 451 486 521 486 q 365 492 383 486 m 13 492 q 7 495 13 492 q 0 521 0 499 q 13 549 0 543 q 69 556 26 556 q 126 549 113 556 q 139 521 139 543 q 126 492 139 499 q 69 486 113 486 q 13 492 26 486 m 69 660 q 90 686 69 681 q 313 694 121 694 q 544 682 522 694 q 556 660 556 676 q 535 633 556 639 q 313 625 504 625 q 81 638 103 625 q 69 660 69 643 z "},"r":{"ha":694,"x_min":0,"x_max":556,"o":"m 83 76 q 76 79 83 76 q 69 104 69 82 q 83 133 69 126 q 139 139 96 139 q 195 133 182 139 q 208 104 208 126 q 195 76 208 82 q 139 69 182 69 q 83 76 96 69 m 83 215 q 76 218 83 215 q 69 243 69 221 q 83 272 69 265 q 139 278 96 278 q 195 272 182 278 q 208 243 208 265 q 195 215 208 221 q 139 208 182 208 q 83 215 96 208 m 83 353 q 76 357 83 353 q 69 382 69 360 q 83 410 69 404 q 139 417 96 417 q 195 410 182 417 q 208 382 208 404 q 195 353 208 360 q 139 347 182 347 q 83 353 96 347 m 430 492 q 423 495 430 492 q 417 521 417 499 q 430 549 417 543 q 486 556 443 556 q 542 549 529 556 q 556 521 556 543 q 542 492 556 499 q 486 486 529 486 q 430 492 443 486 m 88 492 q 78 494 88 492 q 69 521 69 497 q 88 550 69 544 q 174 556 106 556 q 260 550 242 556 q 278 521 278 544 q 260 492 278 497 q 174 486 242 486 q 88 492 106 486 m 231 631 q 219 633 231 631 q 208 660 208 636 q 231 689 208 683 q 347 694 253 694 q 464 689 442 694 q 486 660 486 683 q 464 631 486 636 q 347 625 442 625 q 231 631 253 625 m 13 631 q 7 634 13 631 q 0 660 0 638 q 13 688 0 682 q 69 694 26 694 q 126 688 113 694 q 139 660 139 682 q 126 631 139 638 q 69 625 113 625 q 13 631 26 625 z "},"s":{"ha":694,"x_min":0,"x_max":556,"o":"m 0 104 q 21 131 0 125 q 243 139 51 139 q 475 126 453 139 q 486 104 486 121 q 465 78 486 83 q 243 69 435 69 q 11 82 33 69 q 0 104 0 88 m 430 215 q 423 218 430 215 q 417 243 417 221 q 430 272 417 265 q 486 278 443 278 q 542 272 529 278 q 556 243 556 265 q 542 215 556 221 q 486 208 529 208 q 430 215 443 208 m 69 382 q 90 410 69 404 q 278 417 117 417 q 476 404 457 417 q 486 382 486 399 q 465 354 486 360 q 278 347 439 347 q 79 360 99 347 q 69 382 69 365 m 13 492 q 7 495 13 492 q 0 521 0 499 q 13 549 0 543 q 69 556 26 556 q 126 549 113 556 q 139 521 139 543 q 126 492 139 499 q 69 486 113 486 q 13 492 26 486 m 69 660 q 90 688 69 682 q 278 694 117 694 q 476 682 457 694 q 486 660 486 676 q 465 632 486 638 q 278 625 439 625 q 79 638 99 625 q 69 660 69 643 z "},"t":{"ha":694,"x_min":0,"x_max":486,"o":"m 226 75 q 217 78 226 75 q 208 104 208 81 q 226 133 208 128 q 313 139 244 139 q 399 133 381 139 q 417 104 417 128 q 399 75 417 81 q 313 69 381 69 q 226 75 244 69 m 360 215 q 354 218 360 215 q 347 243 347 221 q 360 272 347 265 q 417 278 374 278 q 473 272 460 278 q 486 243 486 265 q 473 215 486 221 q 417 208 460 208 q 360 215 374 208 m 152 215 q 145 218 152 215 q 139 243 139 221 q 152 272 139 265 q 208 278 165 278 q 265 272 251 278 q 278 243 278 265 q 265 215 278 221 q 208 208 251 208 q 152 215 165 208 m 152 353 q 145 357 152 353 q 139 382 139 360 q 152 410 139 404 q 208 417 165 417 q 265 410 251 417 q 278 382 278 404 q 265 353 278 360 q 208 347 251 347 q 152 353 165 347 m 152 492 q 145 495 152 492 q 139 521 139 499 q 152 549 139 543 q 208 556 165 556 q 265 549 251 556 q 278 521 278 543 q 265 492 278 499 q 208 486 251 486 q 152 492 165 486 m 0 660 q 21 688 0 682 q 208 694 47 694 q 407 682 388 694 q 417 660 417 676 q 396 632 417 638 q 208 625 369 625 q 10 638 29 625 q 0 660 0 643 m 152 770 q 145 773 152 770 q 139 799 139 776 q 152 827 139 821 q 208 833 165 833 q 265 827 251 833 q 278 799 278 821 q 265 770 278 776 q 208 764 251 764 q 152 770 165 764 m 152 909 q 145 912 152 909 q 139 938 139 915 q 152 966 139 960 q 208 972 165 972 q 265 966 251 972 q 278 938 278 960 q 265 909 278 915 q 208 903 251 903 q 152 909 165 903 z "},"u":{"ha":694,"x_min":0,"x_max":556,"o":"m 69 104 q 90 131 69 125 q 313 139 121 139 q 544 126 522 139 q 556 104 556 121 q 535 78 556 83 q 313 69 504 69 q 81 82 103 69 q 69 104 69 88 m 360 215 q 354 218 360 215 q 347 243 347 221 q 360 272 347 265 q 417 278 374 278 q 473 272 460 278 q 486 243 486 265 q 473 215 486 221 q 417 208 460 208 q 360 215 374 208 m 13 215 q 7 218 13 215 q 0 243 0 221 q 13 272 0 265 q 69 278 26 278 q 126 272 113 278 q 139 243 139 265 q 126 215 139 221 q 69 208 113 208 q 13 215 26 208 m 360 353 q 354 357 360 353 q 347 382 347 360 q 360 410 347 404 q 417 417 374 417 q 473 410 460 417 q 486 382 486 404 q 473 353 486 360 q 417 347 460 347 q 360 353 374 347 m 13 353 q 7 357 13 353 q 0 382 0 360 q 13 410 0 404 q 69 417 26 417 q 126 410 113 417 q 139 382 139 404 q 126 353 139 360 q 69 347 113 347 q 13 353 26 347 m 360 492 q 354 495 360 492 q 347 521 347 499 q 360 549 347 543 q 417 556 374 556 q 473 549 460 556 q 486 521 486 543 q 473 492 486 499 q 417 486 460 486 q 360 492 374 486 m 13 492 q 7 495 13 492 q 0 521 0 499 q 13 549 0 543 q 69 556 26 556 q 126 549 113 556 q 139 521 139 543 q 126 492 139 499 q 69 486 113 486 q 13 492 26 486 m 360 631 q 354 634 360 631 q 347 660 347 638 q 360 688 347 682 q 417 694 374 694 q 473 688 460 694 q 486 660 486 682 q 473 631 486 638 q 417 625 460 625 q 360 631 374 625 m 13 631 q 7 634 13 631 q 0 660 0 638 q 13 688 0 682 q 69 694 26 694 q 126 688 113 694 q 139 660 139 682 q 126 631 139 638 q 69 625 113 625 q 13 631 26 625 z "},"v":{"ha":694,"x_min":0,"x_max":556,"o":"m 222 76 q 215 79 222 76 q 208 104 208 82 q 222 133 208 126 q 278 139 235 139 q 334 133 321 139 q 347 104 347 126 q 334 76 347 82 q 278 69 321 69 q 222 76 235 69 m 161 214 q 150 217 161 214 q 139 243 139 219 q 161 272 139 267 q 278 278 183 278 q 394 272 372 278 q 417 243 417 267 q 394 214 417 219 q 278 208 372 208 q 161 214 183 208 m 360 353 q 354 357 360 353 q 347 382 347 360 q 360 410 347 404 q 417 417 374 417 q 473 410 460 417 q 486 382 486 404 q 473 353 486 360 q 417 347 460 347 q 360 353 374 347 m 83 353 q 76 357 83 353 q 69 382 69 360 q 83 410 69 404 q 139 417 96 417 q 195 410 182 417 q 208 382 208 404 q 195 353 208 360 q 139 347 182 347 q 83 353 96 347 m 430 492 q 423 495 430 492 q 417 521 417 499 q 430 549 417 543 q 486 556 443 556 q 542 549 529 556 q 556 521 556 543 q 542 492 556 499 q 486 486 529 486 q 430 492 443 486 m 13 492 q 7 495 13 492 q 0 521 0 499 q 13 549 0 543 q 69 556 26 556 q 126 549 113 556 q 139 521 139 543 q 126 492 139 499 q 69 486 113 486 q 13 492 26 486 m 430 631 q 423 634 430 631 q 417 660 417 638 q 430 688 417 682 q 486 694 443 694 q 542 688 529 694 q 556 660 556 682 q 542 631 556 638 q 486 625 529 625 q 430 631 443 625 m 13 631 q 7 634 13 631 q 0 660 0 638 q 13 688 0 682 q 69 694 26 694 q 126 688 113 694 q 139 660 139 682 q 126 631 139 638 q 69 625 113 625 q 13 631 26 625 z "},"w":{"ha":694,"x_min":0,"x_max":556,"o":"m 360 76 q 354 79 360 76 q 347 104 347 82 q 360 133 347 126 q 417 139 374 139 q 473 133 460 139 q 486 104 486 126 q 473 76 486 82 q 417 69 460 69 q 360 76 374 69 m 83 76 q 76 79 83 76 q 69 104 69 82 q 83 133 69 126 q 139 139 96 139 q 195 133 182 139 q 208 104 208 126 q 195 76 208 82 q 139 69 182 69 q 83 76 96 69 m 0 243 q 21 269 0 264 q 278 278 54 278 q 543 265 518 278 q 556 243 556 260 q 535 217 556 222 q 278 208 501 208 q 13 221 38 208 q 0 243 0 226 m 430 353 q 423 357 430 353 q 417 382 417 360 q 430 410 417 404 q 486 417 443 417 q 542 410 529 417 q 556 382 556 404 q 542 353 556 360 q 486 347 529 347 q 430 353 443 347 m 222 353 q 215 357 222 353 q 208 382 208 360 q 222 410 208 404 q 278 417 235 417 q 334 410 321 417 q 347 382 347 404 q 334 353 347 360 q 278 347 321 347 q 222 353 235 347 m 13 353 q 7 357 13 353 q 0 382 0 360 q 13 410 0 404 q 69 417 26 417 q 126 410 113 417 q 139 382 139 404 q 126 353 139 360 q 69 347 113 347 q 13 353 26 347 m 430 492 q 423 495 430 492 q 417 521 417 499 q 430 549 417 543 q 486 556 443 556 q 542 549 529 556 q 556 521 556 543 q 542 492 556 499 q 486 486 529 486 q 430 492 443 486 m 13 492 q 7 495 13 492 q 0 521 0 499 q 13 549 0 543 q 69 556 26 556 q 126 549 113 556 q 139 521 139 543 q 126 492 139 499 q 69 486 113 486 q 13 492 26 486 m 430 631 q 423 634 430 631 q 417 660 417 638 q 430 688 417 682 q 486 694 443 694 q 542 688 529 694 q 556 660 556 682 q 542 631 556 638 q 486 625 529 625 q 430 631 443 625 m 13 631 q 7 634 13 631 q 0 660 0 638 q 13 688 0 682 q 69 694 26 694 q 126 688 113 694 q 139 660 139 682 q 126 631 139 638 q 69 625 113 625 q 13 631 26 625 z "},"x":{"ha":694,"x_min":0,"x_max":486,"o":"m 360 76 q 354 79 360 76 q 347 104 347 82 q 360 133 347 126 q 417 139 374 139 q 473 133 460 139 q 486 104 486 126 q 473 76 486 82 q 417 69 460 69 q 360 76 374 69 m 13 76 q 7 79 13 76 q 0 104 0 82 q 13 133 0 126 q 69 139 26 139 q 126 133 113 139 q 139 104 139 126 q 126 76 139 82 q 69 69 113 69 q 13 76 26 69 m 291 215 q 284 218 291 215 q 278 243 278 221 q 291 272 278 265 q 347 278 304 278 q 403 272 390 278 q 417 243 417 265 q 403 215 417 221 q 347 208 390 208 q 291 215 304 208 m 83 215 q 76 218 83 215 q 69 243 69 221 q 83 272 69 265 q 139 278 96 278 q 195 272 182 278 q 208 243 208 265 q 195 215 208 221 q 139 208 182 208 q 83 215 96 208 m 157 353 q 148 356 157 353 q 139 382 139 358 q 157 411 139 406 q 243 417 175 417 q 329 411 311 417 q 347 382 347 406 q 329 353 347 358 q 243 347 311 347 q 157 353 175 347 m 291 492 q 284 495 291 492 q 278 521 278 499 q 291 549 278 543 q 347 556 304 556 q 403 549 390 556 q 417 521 417 543 q 403 492 417 499 q 347 486 390 486 q 291 492 304 486 m 83 492 q 76 495 83 492 q 69 521 69 499 q 83 549 69 543 q 139 556 96 556 q 195 549 182 556 q 208 521 208 543 q 195 492 208 499 q 139 486 182 486 q 83 492 96 486 m 360 631 q 354 634 360 631 q 347 660 347 638 q 360 688 347 682 q 417 694 374 694 q 473 688 460 694 q 486 660 486 682 q 473 631 486 638 q 417 625 460 625 q 360 631 374 625 m 13 631 q 7 634 13 631 q 0 660 0 638 q 13 688 0 682 q 69 694 26 694 q 126 688 113 694 q 139 660 139 682 q 126 631 139 638 q 69 625 113 625 q 13 631 26 625 z "},"y":{"ha":694,"x_min":0,"x_max":486,"o":"m 73 -192 q 71 -189 73 -192 q 69 -174 69 -186 q 73 -155 69 -161 q 97 -144 76 -149 q 147 -140 117 -140 q 243 -139 178 -139 q 339 -140 308 -139 q 390 -144 369 -140 q 413 -155 410 -149 q 417 -174 417 -161 q 413 -192 417 -186 q 390 -203 410 -199 q 339 -208 369 -207 q 243 -208 308 -208 q 147 -208 178 -208 q 97 -203 117 -207 q 73 -192 76 -199 m 360 -63 q 354 -60 360 -63 q 347 -35 347 -57 q 360 -6 347 -12 q 417 0 374 0 q 473 -6 460 0 q 486 -35 486 -12 q 473 -63 486 -57 q 417 -69 460 -69 q 360 -63 374 -69 m 13 -63 q 7 -60 13 -63 q 0 -35 0 -57 q 13 -6 0 -12 q 69 0 26 0 q 126 -6 113 0 q 139 -35 139 -12 q 126 -63 139 -57 q 69 -69 113 -69 q 13 -63 26 -69 m 360 76 q 354 79 360 76 q 347 104 347 82 q 360 133 347 126 q 417 139 374 139 q 473 133 460 139 q 486 104 486 126 q 473 76 486 82 q 417 69 460 69 q 360 76 374 69 m 69 243 q 90 271 69 265 q 278 278 117 278 q 476 265 457 278 q 486 243 486 260 q 465 215 486 221 q 278 208 439 208 q 79 221 99 208 q 69 243 69 226 m 296 353 q 287 356 296 353 q 278 382 278 358 q 296 411 278 406 q 382 417 314 417 q 468 411 450 417 q 486 382 486 406 q 468 353 486 358 q 382 347 450 347 q 296 353 314 347 m 13 353 q 7 357 13 353 q 0 382 0 360 q 13 410 0 404 q 69 417 26 417 q 126 410 113 417 q 139 382 139 404 q 126 353 139 360 q 69 347 113 347 q 13 353 26 347 m 360 492 q 354 495 360 492 q 347 521 347 499 q 360 549 347 543 q 417 556 374 556 q 473 549 460 556 q 486 521 486 543 q 473 492 486 499 q 417 486 460 486 q 360 492 374 486 m 13 492 q 7 495 13 492 q 0 521 0 499 q 13 549 0 543 q 69 556 26 556 q 126 549 113 556 q 139 521 139 543 q 126 492 139 499 q 69 486 113 486 q 13 492 26 486 m 360 631 q 354 634 360 631 q 347 660 347 638 q 360 688 347 682 q 417 694 374 694 q 473 688 460 694 q 486 660 486 682 q 473 631 486 638 q 417 625 460 625 q 360 631 374 625 m 13 631 q 7 634 13 631 q 0 660 0 638 q 13 688 0 682 q 69 694 26 694 q 126 688 113 694 q 139 660 139 682 q 126 631 139 638 q 69 625 113 625 q 13 631 26 625 z "},"z":{"ha":694,"x_min":0,"x_max":556,"o":"m 0 104 q 21 131 0 125 q 278 139 54 139 q 543 126 518 139 q 556 104 556 121 q 535 78 556 83 q 278 69 501 69 q 13 82 38 69 q 0 104 0 88 m 152 215 q 145 218 152 215 q 139 243 139 221 q 152 272 139 265 q 208 278 165 278 q 265 272 251 278 q 278 243 278 265 q 265 215 278 221 q 208 208 251 208 q 152 215 165 208 m 226 353 q 217 356 226 353 q 208 382 208 358 q 226 411 208 406 q 313 417 244 417 q 399 411 381 417 q 417 382 417 406 q 399 353 417 358 q 313 347 381 347 q 226 353 244 347 m 360 492 q 354 495 360 492 q 347 521 347 499 q 360 549 347 543 q 417 556 374 556 q 473 549 460 556 q 486 521 486 543 q 473 492 486 499 q 417 486 460 486 q 360 492 374 486 m 0 660 q 21 686 0 681 q 278 694 54 694 q 543 682 518 694 q 556 660 556 676 q 535 633 556 639 q 278 625 501 625 q 13 638 38 625 q 0 660 0 643 z "},"{":{"ha":694,"x_min":139,"x_max":556,"o":"m 300 75 q 289 78 300 75 q 278 104 278 81 q 300 133 278 128 q 417 139 322 139 q 533 133 511 139 q 556 104 556 128 q 533 75 556 81 q 417 69 511 69 q 300 75 322 69 m 222 215 q 215 218 222 215 q 208 243 208 221 q 222 272 208 265 q 278 278 235 278 q 334 272 321 278 q 347 243 347 265 q 334 215 347 221 q 278 208 321 208 q 222 215 235 208 m 291 353 q 284 357 291 353 q 278 382 278 360 q 291 410 278 404 q 347 417 304 417 q 403 410 390 417 q 417 382 417 404 q 403 353 417 360 q 347 347 390 347 q 291 353 304 347 m 157 492 q 148 494 157 492 q 139 521 139 497 q 157 550 139 544 q 243 556 175 556 q 329 550 311 556 q 347 521 347 544 q 329 492 347 497 q 243 486 311 486 q 157 492 175 486 m 291 631 q 284 634 291 631 q 278 660 278 638 q 291 688 278 682 q 347 694 304 694 q 403 688 390 694 q 417 660 417 682 q 403 631 417 638 q 347 625 390 625 q 291 631 304 625 m 222 770 q 215 773 222 770 q 208 799 208 776 q 222 827 208 821 q 278 833 235 833 q 334 827 321 833 q 347 799 347 821 q 334 770 347 776 q 278 764 321 764 q 222 770 235 764 m 300 908 q 289 911 300 908 q 278 938 278 914 q 300 967 278 961 q 417 972 322 972 q 533 967 511 972 q 556 938 556 961 q 533 908 556 914 q 417 903 511 903 q 300 908 322 903 z "},"|":{"ha":694,"x_min":208,"x_max":347,"o":"m 222 76 q 215 79 222 76 q 208 104 208 82 q 222 133 208 126 q 278 139 235 139 q 334 133 321 139 q 347 104 347 126 q 334 76 347 82 q 278 69 321 69 q 222 76 235 69 m 222 215 q 215 218 222 215 q 208 243 208 221 q 222 272 208 265 q 278 278 235 278 q 334 272 321 278 q 347 243 347 265 q 334 215 347 221 q 278 208 321 208 q 222 215 235 208 m 222 353 q 215 357 222 353 q 208 382 208 360 q 222 410 208 404 q 278 417 235 417 q 334 410 321 417 q 347 382 347 404 q 334 353 347 360 q 278 347 321 347 q 222 353 235 347 m 222 492 q 215 495 222 492 q 208 521 208 499 q 222 549 208 543 q 278 556 235 556 q 334 549 321 556 q 347 521 347 543 q 334 492 347 499 q 278 486 321 486 q 222 492 235 486 m 222 631 q 215 634 222 631 q 208 660 208 638 q 222 688 208 682 q 278 694 235 694 q 334 688 321 694 q 347 660 347 682 q 334 631 347 638 q 278 625 321 625 q 222 631 235 625 m 222 770 q 215 773 222 770 q 208 799 208 776 q 222 827 208 821 q 278 833 235 833 q 334 827 321 833 q 347 799 347 821 q 334 770 347 776 q 278 764 321 764 q 222 770 235 764 m 222 909 q 215 912 222 909 q 208 938 208 915 q 222 966 208 960 q 278 972 235 972 q 334 966 321 972 q 347 938 347 960 q 334 909 347 915 q 278 903 321 903 q 222 909 235 903 z "},"}":{"ha":694,"x_min":0,"x_max":417,"o":"m 22 75 q 11 78 22 75 q 0 104 0 81 q 22 133 0 128 q 139 139 44 139 q 256 133 233 139 q 278 104 278 128 q 256 75 278 81 q 139 69 233 69 q 22 75 44 69 m 222 215 q 215 218 222 215 q 208 243 208 221 q 222 272 208 265 q 278 278 235 278 q 334 272 321 278 q 347 243 347 265 q 334 215 347 221 q 278 208 321 208 q 222 215 235 208 m 152 353 q 145 357 152 353 q 139 382 139 360 q 152 410 139 404 q 208 417 165 417 q 265 410 251 417 q 278 382 278 404 q 265 353 278 360 q 208 347 251 347 q 152 353 165 347 m 226 492 q 217 494 226 492 q 208 521 208 497 q 226 550 208 544 q 313 556 244 556 q 399 550 381 556 q 417 521 417 544 q 399 492 417 497 q 313 486 381 486 q 226 492 244 486 m 152 631 q 145 634 152 631 q 139 660 139 638 q 152 688 139 682 q 208 694 165 694 q 265 688 251 694 q 278 660 278 682 q 265 631 278 638 q 208 625 251 625 q 152 631 165 625 m 222 770 q 215 773 222 770 q 208 799 208 776 q 222 827 208 821 q 278 833 235 833 q 334 827 321 833 q 347 799 347 821 q 334 770 347 776 q 278 764 321 764 q 222 770 235 764 m 22 908 q 11 911 22 908 q 0 938 0 914 q 22 967 0 961 q 139 972 44 972 q 256 967 233 972 q 278 938 278 961 q 256 908 278 914 q 139 903 233 903 q 22 908 44 903 z "},"~":{"ha":694,"x_min":0,"x_max":556,"o":"m 296 631 q 287 633 296 631 q 278 660 278 636 q 296 689 278 683 q 382 694 314 694 q 468 689 450 694 q 486 660 486 683 q 468 631 486 636 q 382 625 450 625 q 296 631 314 625 m 13 631 q 7 634 13 631 q 0 660 0 638 q 13 688 0 682 q 69 694 26 694 q 126 688 113 694 q 139 660 139 682 q 126 631 139 638 q 69 625 113 625 q 13 631 26 625 m 430 770 q 423 773 430 770 q 417 799 417 776 q 430 827 417 821 q 486 833 443 833 q 542 827 529 833 q 556 799 556 821 q 542 770 556 776 q 486 764 529 764 q 430 770 443 764 m 222 770 q 215 773 222 770 q 208 799 208 776 q 222 827 208 821 q 278 833 235 833 q 334 827 321 833 q 347 799 347 821 q 334 770 347 776 q 278 764 321 764 q 222 770 235 764 m 13 770 q 7 773 13 770 q 0 799 0 776 q 13 827 0 821 q 69 833 26 833 q 126 827 113 833 q 139 799 139 821 q 126 770 139 776 q 69 764 113 764 q 13 770 26 764 m 430 909 q 423 912 430 909 q 417 938 417 915 q 430 966 417 960 q 486 972 443 972 q 542 966 529 972 q 556 938 556 960 q 542 909 556 915 q 486 903 529 903 q 430 909 443 903 m 88 908 q 78 911 88 908 q 69 938 69 914 q 88 967 69 961 q 174 972 106 972 q 260 967 242 972 q 278 938 278 961 q 260 908 278 914 q 174 903 242 903 q 88 908 106 903 z "},"":{"ha":694,"x_min":0,"x_max":417,"o":"m 152 -202 q 145 -199 152 -202 q 139 -174 139 -196 q 152 -145 139 -151 q 208 -139 165 -139 q 265 -145 251 -139 q 278 -174 278 -151 q 265 -202 278 -196 q 208 -208 251 -208 q 152 -202 165 -208 m 152 -63 q 145 -60 152 -63 q 139 -35 139 -57 q 152 -6 139 -12 q 208 0 165 0 q 265 -6 251 0 q 278 -35 278 -12 q 265 -63 278 -57 q 208 -69 251 -69 q 152 -63 165 -69 m 152 76 q 145 79 152 76 q 139 104 139 82 q 152 133 139 126 q 208 139 165 139 q 265 133 251 139 q 278 104 278 126 q 265 76 278 82 q 208 69 251 69 q 152 76 165 69 m 152 215 q 145 218 152 215 q 139 243 139 221 q 152 272 139 265 q 208 278 165 278 q 265 272 251 278 q 278 243 278 265 q 265 215 278 221 q 208 208 251 208 q 152 215 165 208 m 0 382 q 21 410 0 404 q 208 417 47 417 q 407 404 388 417 q 417 382 417 399 q 396 354 417 360 q 208 347 369 347 q 10 360 29 347 q 0 382 0 365 m 222 492 q 215 495 222 492 q 208 521 208 499 q 222 549 208 543 q 278 556 235 556 q 334 549 321 556 q 347 521 347 543 q 334 492 347 499 q 278 486 321 486 q 222 492 235 486 m 13 492 q 7 495 13 492 q 0 521 0 499 q 13 549 0 543 q 69 556 26 556 q 126 549 113 556 q 139 521 139 543 q 126 492 139 499 q 69 486 113 486 q 13 492 26 486 m 222 631 q 215 634 222 631 q 208 660 208 638 q 222 688 208 682 q 278 694 235 694 q 334 688 321 694 q 347 660 347 682 q 334 631 347 638 q 278 625 321 625 q 222 631 235 625 m 13 631 q 7 634 13 631 q 0 660 0 638 q 13 688 0 682 q 69 694 26 694 q 126 688 113 694 q 139 660 139 682 q 126 631 139 638 q 69 625 113 625 q 13 631 26 625 m 222 770 q 215 773 222 770 q 208 799 208 776 q 222 827 208 821 q 278 833 235 833 q 334 827 321 833 q 347 799 347 821 q 334 770 347 776 q 278 764 321 764 q 222 770 235 764 m 13 770 q 7 773 13 770 q 0 799 0 776 q 13 827 0 821 q 69 833 26 833 q 126 827 113 833 q 139 799 139 821 q 126 770 139 776 q 69 764 113 764 q 13 770 26 764 m 22 908 q 11 911 22 908 q 0 938 0 914 q 22 967 0 961 q 139 972 44 972 q 256 967 233 972 q 278 938 278 961 q 256 908 278 914 q 139 903 233 903 q 22 908 44 903 z "},"":{"ha":694,"x_min":0,"x_max":556,"o":"m 296 -203 q 287 -200 296 -203 q 278 -174 278 -197 q 296 -144 278 -150 q 382 -139 314 -139 q 468 -144 450 -139 q 486 -174 486 -150 q 468 -203 486 -197 q 382 -208 450 -208 q 296 -203 314 -208 m 430 -63 q 423 -60 430 -63 q 417 -35 417 -57 q 430 -6 417 -12 q 486 0 443 0 q 542 -6 529 0 q 556 -35 556 -12 q 542 -63 556 -57 q 486 -69 529 -69 q 430 -63 443 -69 m 222 -63 q 215 -60 222 -63 q 208 -35 208 -57 q 222 -6 208 -12 q 278 0 235 0 q 334 -6 321 0 q 347 -35 347 -12 q 334 -63 347 -57 q 278 -69 321 -69 q 222 -63 235 -69 m 430 76 q 423 79 430 76 q 417 104 417 82 q 430 133 417 126 q 486 139 443 139 q 542 133 529 139 q 556 104 556 126 q 542 76 556 82 q 486 69 529 69 q 430 76 443 69 m 222 76 q 215 79 222 76 q 208 104 208 82 q 222 133 208 126 q 278 139 235 139 q 334 133 321 139 q 347 104 347 126 q 334 76 347 82 q 278 69 321 69 q 222 76 235 69 m 430 215 q 423 218 430 215 q 417 243 417 221 q 430 272 417 265 q 486 278 443 278 q 542 272 529 278 q 556 243 556 265 q 542 215 556 221 q 486 208 529 208 q 430 215 443 208 m 222 215 q 215 218 222 215 q 208 243 208 221 q 222 272 208 265 q 278 278 235 278 q 334 272 321 278 q 347 243 347 265 q 334 215 347 221 q 278 208 321 208 q 222 215 235 208 m 69 382 q 90 410 69 404 q 278 417 117 417 q 476 404 457 417 q 486 382 486 399 q 465 354 486 360 q 278 347 439 347 q 79 360 99 347 q 69 382 69 365 m 222 492 q 215 495 222 492 q 208 521 208 499 q 222 549 208 543 q 278 556 235 556 q 334 549 321 556 q 347 521 347 543 q 334 492 347 499 q 278 486 321 486 q 222 492 235 486 m 13 492 q 7 495 13 492 q 0 521 0 499 q 13 549 0 543 q 69 556 26 556 q 126 549 113 556 q 139 521 139 543 q 126 492 139 499 q 69 486 113 486 q 13 492 26 486 m 88 631 q 78 633 88 631 q 69 660 69 636 q 88 689 69 683 q 174 694 106 694 q 260 689 242 694 q 278 660 278 683 q 260 631 278 636 q 174 625 242 625 q 88 631 106 625 m 222 770 q 215 773 222 770 q 208 799 208 776 q 222 827 208 821 q 278 833 235 833 q 334 827 321 833 q 347 799 347 821 q 334 770 347 776 q 278 764 321 764 q 222 770 235 764 m 13 770 q 7 773 13 770 q 0 799 0 776 q 13 827 0 821 q 69 833 26 833 q 126 827 113 833 q 139 799 139 821 q 126 770 139 776 q 69 764 113 764 q 13 770 26 764 m 88 908 q 78 911 88 908 q 69 938 69 914 q 88 967 69 961 q 174 972 106 972 q 260 967 242 972 q 278 938 278 961 q 260 908 278 914 q 174 903 242 903 q 88 908 106 903 z "},"":{"ha":694,"x_min":0,"x_max":556,"o":"m 300 -203 q 289 -200 300 -203 q 278 -174 278 -197 q 300 -144 278 -150 q 417 -139 322 -139 q 533 -144 511 -139 q 556 -174 556 -150 q 533 -203 556 -197 q 417 -208 511 -208 q 300 -203 322 -208 m 360 -63 q 354 -60 360 -63 q 347 -35 347 -57 q 360 -6 347 -12 q 417 0 374 0 q 473 -6 460 0 q 486 -35 486 -12 q 473 -63 486 -57 q 417 -69 460 -69 q 360 -63 374 -69 m 360 76 q 354 79 360 76 q 347 104 347 82 q 360 133 347 126 q 417 139 374 139 q 473 133 460 139 q 486 104 486 126 q 473 76 486 82 q 417 69 460 69 q 360 76 374 69 m 296 214 q 287 217 296 214 q 278 243 278 219 q 296 272 278 267 q 382 278 314 278 q 468 272 450 278 q 486 243 486 267 q 468 214 486 219 q 382 208 450 208 q 296 214 314 208 m 360 353 q 354 357 360 353 q 347 382 347 360 q 360 410 347 404 q 417 417 374 417 q 473 410 460 417 q 486 382 486 404 q 473 353 486 360 q 417 347 460 347 q 360 353 374 347 m 88 353 q 78 356 88 353 q 69 382 69 358 q 88 411 69 406 q 174 417 106 417 q 260 411 242 417 q 278 382 278 406 q 260 353 278 358 q 174 347 242 347 q 88 353 106 347 m 222 492 q 215 495 222 492 q 208 521 208 499 q 222 549 208 543 q 278 556 235 556 q 334 549 321 556 q 347 521 347 543 q 334 492 347 499 q 278 486 321 486 q 222 492 235 486 m 13 492 q 7 495 13 492 q 0 521 0 499 q 13 549 0 543 q 69 556 26 556 q 126 549 113 556 q 139 521 139 543 q 126 492 139 499 q 69 486 113 486 q 13 492 26 486 m 88 631 q 78 633 88 631 q 69 660 69 636 q 88 689 69 683 q 174 694 106 694 q 260 689 242 694 q 278 660 278 683 q 260 631 278 636 q 174 625 242 625 q 88 631 106 625 m 222 770 q 215 773 222 770 q 208 799 208 776 q 222 827 208 821 q 278 833 235 833 q 334 827 321 833 q 347 799 347 821 q 334 770 347 776 q 278 764 321 764 q 222 770 235 764 m 13 770 q 7 773 13 770 q 0 799 0 776 q 13 827 0 821 q 69 833 26 833 q 126 827 113 833 q 139 799 139 821 q 126 770 139 776 q 69 764 113 764 q 13 770 26 764 m 88 908 q 78 911 88 908 q 69 938 69 914 q 88 967 69 961 q 174 972 106 972 q 260 967 242 972 q 278 938 278 961 q 260 908 278 914 q 174 903 242 903 q 88 908 106 903 z "},"":{"ha":694,"x_min":0,"x_max":556,"o":"m 212 -192 q 210 -189 212 -192 q 208 -174 208 -186 q 212 -155 208 -161 q 235 -144 215 -149 q 286 -140 256 -140 q 382 -139 317 -139 q 478 -140 447 -139 q 528 -144 508 -140 q 552 -155 549 -149 q 556 -174 556 -161 q 552 -192 556 -186 q 528 -203 549 -199 q 478 -208 508 -207 q 382 -208 447 -208 q 286 -208 317 -208 q 235 -203 256 -207 q 212 -192 215 -199 m 291 -63 q 284 -60 291 -63 q 278 -35 278 -57 q 291 -6 278 -12 q 347 0 304 0 q 403 -6 390 0 q 417 -35 417 -12 q 403 -63 417 -57 q 347 -69 390 -69 q 291 -63 304 -69 m 360 76 q 354 79 360 76 q 347 104 347 82 q 360 133 347 126 q 417 139 374 139 q 473 133 460 139 q 486 104 486 126 q 473 76 486 82 q 417 69 460 69 q 360 76 374 69 m 430 215 q 423 218 430 215 q 417 243 417 221 q 430 272 417 265 q 486 278 443 278 q 542 272 529 278 q 556 243 556 265 q 542 215 556 221 q 486 208 529 208 q 430 215 443 208 m 222 215 q 215 218 222 215 q 208 243 208 221 q 222 272 208 265 q 278 278 235 278 q 334 272 321 278 q 347 243 347 265 q 334 215 347 221 q 278 208 321 208 q 222 215 235 208 m 69 382 q 90 410 69 404 q 278 417 117 417 q 476 404 457 417 q 486 382 486 399 q 465 354 486 360 q 278 347 439 347 q 79 360 99 347 q 69 382 69 365 m 222 492 q 215 495 222 492 q 208 521 208 499 q 222 549 208 543 q 278 556 235 556 q 334 549 321 556 q 347 521 347 543 q 334 492 347 499 q 278 486 321 486 q 222 492 235 486 m 13 492 q 7 495 13 492 q 0 521 0 499 q 13 549 0 543 q 69 556 26 556 q 126 549 113 556 q 139 521 139 543 q 126 492 139 499 q 69 486 113 486 q 13 492 26 486 m 88 631 q 78 633 88 631 q 69 660 69 636 q 88 689 69 683 q 174 694 106 694 q 260 689 242 694 q 278 660 278 683 q 260 631 278 636 q 174 625 242 625 q 88 631 106 625 m 222 770 q 215 773 222 770 q 208 799 208 776 q 222 827 208 821 q 278 833 235 833 q 334 827 321 833 q 347 799 347 821 q 334 770 347 776 q 278 764 321 764 q 222 770 235 764 m 13 770 q 7 773 13 770 q 0 799 0 776 q 13 827 0 821 q 69 833 26 833 q 126 827 113 833 q 139 799 139 821 q 126 770 139 776 q 69 764 113 764 q 13 770 26 764 m 88 908 q 78 911 88 908 q 69 938 69 914 q 88 967 69 961 q 174 972 106 972 q 260 967 242 972 q 278 938 278 961 q 260 908 278 914 q 174 903 242 903 q 88 908 106 903 z "},"":{"ha":694,"x_min":0,"x_max":556,"o":"m 231 -203 q 219 -200 231 -203 q 208 -174 208 -197 q 231 -144 208 -150 q 347 -139 253 -139 q 464 -144 442 -139 q 486 -174 486 -150 q 464 -203 486 -197 q 347 -208 442 -208 q 231 -203 253 -208 m 430 -63 q 423 -60 430 -63 q 417 -35 417 -57 q 430 -6 417 -12 q 486 0 443 0 q 542 -6 529 0 q 556 -35 556 -12 q 542 -63 556 -57 q 486 -69 529 -69 q 430 -63 443 -69 m 296 75 q 287 78 296 75 q 278 104 278 81 q 296 133 278 128 q 382 139 314 139 q 468 133 450 139 q 486 104 486 128 q 468 75 486 81 q 382 69 450 69 q 296 75 314 69 m 430 215 q 423 218 430 215 q 417 243 417 221 q 430 272 417 265 q 486 278 443 278 q 542 272 529 278 q 556 243 556 265 q 542 215 556 221 q 486 208 529 208 q 430 215 443 208 m 69 382 q 90 408 69 403 q 313 417 121 417 q 544 404 522 417 q 556 382 556 399 q 535 356 556 361 q 313 347 504 347 q 81 360 103 347 q 69 382 69 365 m 222 492 q 215 495 222 492 q 208 521 208 499 q 222 549 208 543 q 278 556 235 556 q 334 549 321 556 q 347 521 347 543 q 334 492 347 499 q 278 486 321 486 q 222 492 235 486 m 13 492 q 7 495 13 492 q 0 521 0 499 q 13 549 0 543 q 69 556 26 556 q 126 549 113 556 q 139 521 139 543 q 126 492 139 499 q 69 486 113 486 q 13 492 26 486 m 88 631 q 78 633 88 631 q 69 660 69 636 q 88 689 69 683 q 174 694 106 694 q 260 689 242 694 q 278 660 278 683 q 260 631 278 636 q 174 625 242 625 q 88 631 106 625 m 222 770 q 215 773 222 770 q 208 799 208 776 q 222 827 208 821 q 278 833 235 833 q 334 827 321 833 q 347 799 347 821 q 334 770 347 776 q 278 764 321 764 q 222 770 235 764 m 13 770 q 7 773 13 770 q 0 799 0 776 q 13 827 0 821 q 69 833 26 833 q 126 827 113 833 q 139 799 139 821 q 126 770 139 776 q 69 764 113 764 q 13 770 26 764 m 88 908 q 78 911 88 908 q 69 938 69 914 q 88 967 69 961 q 174 972 106 972 q 260 967 242 972 q 278 938 278 961 q 260 908 278 914 q 174 903 242 903 q 88 908 106 903 z "},"":{"ha":694,"x_min":0,"x_max":556,"o":"m 360 -202 q 354 -199 360 -202 q 347 -174 347 -196 q 360 -145 347 -151 q 417 -139 374 -139 q 473 -145 460 -139 q 486 -174 486 -151 q 473 -202 486 -196 q 417 -208 460 -208 q 360 -202 374 -208 m 139 -35 q 160 -7 139 -12 q 347 0 186 0 q 546 -12 526 0 q 556 -35 556 -18 q 535 -62 556 -57 q 347 -69 508 -69 q 149 -57 168 -69 q 139 -35 139 -51 m 231 75 q 219 78 231 75 q 208 104 208 81 q 231 133 208 128 q 347 139 253 139 q 464 133 442 139 q 486 104 486 128 q 464 75 486 81 q 347 69 442 69 q 231 75 253 69 m 296 214 q 287 217 296 214 q 278 243 278 219 q 296 272 278 267 q 382 278 314 278 q 468 272 450 278 q 486 243 486 267 q 468 214 486 219 q 382 208 450 208 q 296 214 314 208 m 360 353 q 354 357 360 353 q 347 382 347 360 q 360 410 347 404 q 417 417 374 417 q 473 410 460 417 q 486 382 486 404 q 473 353 486 360 q 417 347 460 347 q 360 353 374 347 m 88 353 q 78 356 88 353 q 69 382 69 358 q 88 411 69 406 q 174 417 106 417 q 260 411 242 417 q 278 382 278 406 q 260 353 278 358 q 174 347 242 347 q 88 353 106 347 m 222 492 q 215 495 222 492 q 208 521 208 499 q 222 549 208 543 q 278 556 235 556 q 334 549 321 556 q 347 521 347 543 q 334 492 347 499 q 278 486 321 486 q 222 492 235 486 m 13 492 q 7 495 13 492 q 0 521 0 499 q 13 549 0 543 q 69 556 26 556 q 126 549 113 556 q 139 521 139 543 q 126 492 139 499 q 69 486 113 486 q 13 492 26 486 m 88 631 q 78 633 88 631 q 69 660 69 636 q 88 689 69 683 q 174 694 106 694 q 260 689 242 694 q 278 660 278 683 q 260 631 278 636 q 174 625 242 625 q 88 631 106 625 m 222 770 q 215 773 222 770 q 208 799 208 776 q 222 827 208 821 q 278 833 235 833 q 334 827 321 833 q 347 799 347 821 q 334 770 347 776 q 278 764 321 764 q 222 770 235 764 m 13 770 q 7 773 13 770 q 0 799 0 776 q 13 827 0 821 q 69 833 26 833 q 126 827 113 833 q 139 799 139 821 q 126 770 139 776 q 69 764 113 764 q 13 770 26 764 m 88 908 q 78 911 88 908 q 69 938 69 914 q 88 967 69 961 q 174 972 106 972 q 260 967 242 972 q 278 938 278 961 q 260 908 278 914 q 174 903 242 903 q 88 908 106 903 z "},"":{"ha":694,"x_min":0,"x_max":556,"o":"m 231 -203 q 219 -200 231 -203 q 208 -174 208 -197 q 231 -144 208 -150 q 347 -139 253 -139 q 464 -144 442 -139 q 486 -174 486 -150 q 464 -203 486 -197 q 347 -208 442 -208 q 231 -203 253 -208 m 430 -63 q 423 -60 430 -63 q 417 -35 417 -57 q 430 -6 417 -12 q 486 0 443 0 q 542 -6 529 0 q 556 -35 556 -12 q 542 -63 556 -57 q 486 -69 529 -69 q 430 -63 443 -69 m 231 75 q 219 78 231 75 q 208 104 208 81 q 231 133 208 128 q 347 139 253 139 q 464 133 442 139 q 486 104 486 128 q 464 75 486 81 q 347 69 442 69 q 231 75 253 69 m 222 215 q 215 218 222 215 q 208 243 208 221 q 222 272 208 265 q 278 278 235 278 q 334 272 321 278 q 347 243 347 265 q 334 215 347 221 q 278 208 321 208 q 222 215 235 208 m 69 382 q 90 408 69 403 q 313 417 121 417 q 544 404 522 417 q 556 382 556 399 q 535 356 556 361 q 313 347 504 347 q 81 360 103 347 q 69 382 69 365 m 222 492 q 215 495 222 492 q 208 521 208 499 q 222 549 208 543 q 278 556 235 556 q 334 549 321 556 q 347 521 347 543 q 334 492 347 499 q 278 486 321 486 q 222 492 235 486 m 13 492 q 7 495 13 492 q 0 521 0 499 q 13 549 0 543 q 69 556 26 556 q 126 549 113 556 q 139 521 139 543 q 126 492 139 499 q 69 486 113 486 q 13 492 26 486 m 88 631 q 78 633 88 631 q 69 660 69 636 q 88 689 69 683 q 174 694 106 694 q 260 689 242 694 q 278 660 278 683 q 260 631 278 636 q 174 625 242 625 q 88 631 106 625 m 222 770 q 215 773 222 770 q 208 799 208 776 q 222 827 208 821 q 278 833 235 833 q 334 827 321 833 q 347 799 347 821 q 334 770 347 776 q 278 764 321 764 q 222 770 235 764 m 13 770 q 7 773 13 770 q 0 799 0 776 q 13 827 0 821 q 69 833 26 833 q 126 827 113 833 q 139 799 139 821 q 126 770 139 776 q 69 764 113 764 q 13 770 26 764 m 88 908 q 78 911 88 908 q 69 938 69 914 q 88 967 69 961 q 174 972 106 972 q 260 967 242 972 q 278 938 278 961 q 260 908 278 914 q 174 903 242 903 q 88 908 106 903 z "},"":{"ha":694,"x_min":0,"x_max":556,"o":"m 296 -203 q 287 -200 296 -203 q 278 -174 278 -197 q 296 -144 278 -150 q 382 -139 314 -139 q 468 -144 450 -139 q 486 -174 486 -150 q 468 -203 486 -197 q 382 -208 450 -208 q 296 -203 314 -208 m 430 -63 q 423 -60 430 -63 q 417 -35 417 -57 q 430 -6 417 -12 q 486 0 443 0 q 542 -6 529 0 q 556 -35 556 -12 q 542 -63 556 -57 q 486 -69 529 -69 q 430 -63 443 -69 m 222 -63 q 215 -60 222 -63 q 208 -35 208 -57 q 222 -6 208 -12 q 278 0 235 0 q 334 -6 321 0 q 347 -35 347 -12 q 334 -63 347 -57 q 278 -69 321 -69 q 222 -63 235 -69 m 231 75 q 219 78 231 75 q 208 104 208 81 q 231 133 208 128 q 347 139 253 139 q 464 133 442 139 q 486 104 486 128 q 464 75 486 81 q 347 69 442 69 q 231 75 253 69 m 291 215 q 284 218 291 215 q 278 243 278 221 q 291 272 278 265 q 347 278 304 278 q 403 272 390 278 q 417 243 417 265 q 403 215 417 221 q 347 208 390 208 q 291 215 304 208 m 365 353 q 356 356 365 353 q 347 382 347 358 q 365 411 347 406 q 451 417 383 417 q 538 411 521 417 q 556 382 556 406 q 538 353 556 358 q 451 347 521 347 q 365 353 383 347 m 88 353 q 78 356 88 353 q 69 382 69 358 q 88 411 69 406 q 174 417 106 417 q 260 411 242 417 q 278 382 278 406 q 260 353 278 358 q 174 347 242 347 q 88 353 106 347 m 222 492 q 215 495 222 492 q 208 521 208 499 q 222 549 208 543 q 278 556 235 556 q 334 549 321 556 q 347 521 347 543 q 334 492 347 499 q 278 486 321 486 q 222 492 235 486 m 13 492 q 7 495 13 492 q 0 521 0 499 q 13 549 0 543 q 69 556 26 556 q 126 549 113 556 q 139 521 139 543 q 126 492 139 499 q 69 486 113 486 q 13 492 26 486 m 88 631 q 78 633 88 631 q 69 660 69 636 q 88 689 69 683 q 174 694 106 694 q 260 689 242 694 q 278 660 278 683 q 260 631 278 636 q 174 625 242 625 q 88 631 106 625 m 222 770 q 215 773 222 770 q 208 799 208 776 q 222 827 208 821 q 278 833 235 833 q 334 827 321 833 q 347 799 347 821 q 334 770 347 776 q 278 764 321 764 q 222 770 235 764 m 13 770 q 7 773 13 770 q 0 799 0 776 q 13 827 0 821 q 69 833 26 833 q 126 827 113 833 q 139 799 139 821 q 126 770 139 776 q 69 764 113 764 q 13 770 26 764 m 88 908 q 78 911 88 908 q 69 938 69 914 q 88 967 69 961 q 174 972 106 972 q 260 967 242 972 q 278 938 278 961 q 260 908 278 914 q 174 903 242 903 q 88 908 106 903 z "},"":{"ha":694,"x_min":0,"x_max":556,"o":"m 291 -202 q 284 -199 291 -202 q 278 -174 278 -196 q 291 -145 278 -151 q 347 -139 304 -139 q 403 -145 390 -139 q 417 -174 417 -151 q 403 -202 417 -196 q 347 -208 390 -208 q 291 -202 304 -208 m 291 -63 q 284 -60 291 -63 q 278 -35 278 -57 q 291 -6 278 -12 q 347 0 304 0 q 403 -6 390 0 q 417 -35 417 -12 q 403 -63 417 -57 q 347 -69 390 -69 q 291 -63 304 -69 m 360 76 q 354 79 360 76 q 347 104 347 82 q 360 133 347 126 q 417 139 374 139 q 473 133 460 139 q 486 104 486 126 q 473 76 486 82 q 417 69 460 69 q 360 76 374 69 m 430 215 q 423 218 430 215 q 417 243 417 221 q 430 272 417 265 q 486 278 443 278 q 542 272 529 278 q 556 243 556 265 q 542 215 556 221 q 486 208 529 208 q 430 215 443 208 m 69 382 q 90 408 69 403 q 313 417 121 417 q 544 404 522 417 q 556 382 556 399 q 535 356 556 361 q 313 347 504 347 q 81 360 103 347 q 69 382 69 365 m 222 492 q 215 495 222 492 q 208 521 208 499 q 222 549 208 543 q 278 556 235 556 q 334 549 321 556 q 347 521 347 543 q 334 492 347 499 q 278 486 321 486 q 222 492 235 486 m 13 492 q 7 495 13 492 q 0 521 0 499 q 13 549 0 543 q 69 556 26 556 q 126 549 113 556 q 139 521 139 543 q 126 492 139 499 q 69 486 113 486 q 13 492 26 486 m 88 631 q 78 633 88 631 q 69 660 69 636 q 88 689 69 683 q 174 694 106 694 q 260 689 242 694 q 278 660 278 683 q 260 631 278 636 q 174 625 242 625 q 88 631 106 625 m 222 770 q 215 773 222 770 q 208 799 208 776 q 222 827 208 821 q 278 833 235 833 q 334 827 321 833 q 347 799 347 821 q 334 770 347 776 q 278 764 321 764 q 222 770 235 764 m 13 770 q 7 773 13 770 q 0 799 0 776 q 13 827 0 821 q 69 833 26 833 q 126 827 113 833 q 139 799 139 821 q 126 770 139 776 q 69 764 113 764 q 13 770 26 764 m 88 908 q 78 911 88 908 q 69 938 69 914 q 88 967 69 961 q 174 972 106 972 q 260 967 242 972 q 278 938 278 961 q 260 908 278 914 q 174 903 242 903 q 88 908 106 903 z "},"":{"ha":694,"x_min":0,"x_max":556,"o":"m 296 -203 q 287 -200 296 -203 q 278 -174 278 -197 q 296 -144 278 -150 q 382 -139 314 -139 q 468 -144 450 -139 q 486 -174 486 -150 q 468 -203 486 -197 q 382 -208 450 -208 q 296 -203 314 -208 m 430 -63 q 423 -60 430 -63 q 417 -35 417 -57 q 430 -6 417 -12 q 486 0 443 0 q 542 -6 529 0 q 556 -35 556 -12 q 542 -63 556 -57 q 486 -69 529 -69 q 430 -63 443 -69 m 222 -63 q 215 -60 222 -63 q 208 -35 208 -57 q 222 -6 208 -12 q 278 0 235 0 q 334 -6 321 0 q 347 -35 347 -12 q 334 -63 347 -57 q 278 -69 321 -69 q 222 -63 235 -69 m 296 75 q 287 78 296 75 q 278 104 278 81 q 296 133 278 128 q 382 139 314 139 q 468 133 450 139 q 486 104 486 128 q 468 75 486 81 q 382 69 450 69 q 296 75 314 69 m 430 215 q 423 218 430 215 q 417 243 417 221 q 430 272 417 265 q 486 278 443 278 q 542 272 529 278 q 556 243 556 265 q 542 215 556 221 q 486 208 529 208 q 430 215 443 208 m 222 215 q 215 218 222 215 q 208 243 208 221 q 222 272 208 265 q 278 278 235 278 q 334 272 321 278 q 347 243 347 265 q 334 215 347 221 q 278 208 321 208 q 222 215 235 208 m 69 382 q 90 410 69 404 q 278 417 117 417 q 476 404 457 417 q 486 382 486 399 q 465 354 486 360 q 278 347 439 347 q 79 360 99 347 q 69 382 69 365 m 222 492 q 215 495 222 492 q 208 521 208 499 q 222 549 208 543 q 278 556 235 556 q 334 549 321 556 q 347 521 347 543 q 334 492 347 499 q 278 486 321 486 q 222 492 235 486 m 13 492 q 7 495 13 492 q 0 521 0 499 q 13 549 0 543 q 69 556 26 556 q 126 549 113 556 q 139 521 139 543 q 126 492 139 499 q 69 486 113 486 q 13 492 26 486 m 88 631 q 78 633 88 631 q 69 660 69 636 q 88 689 69 683 q 174 694 106 694 q 260 689 242 694 q 278 660 278 683 q 260 631 278 636 q 174 625 242 625 q 88 631 106 625 m 222 770 q 215 773 222 770 q 208 799 208 776 q 222 827 208 821 q 278 833 235 833 q 334 827 321 833 q 347 799 347 821 q 334 770 347 776 q 278 764 321 764 q 222 770 235 764 m 13 770 q 7 773 13 770 q 0 799 0 776 q 13 827 0 821 q 69 833 26 833 q 126 827 113 833 q 139 799 139 821 q 126 770 139 776 q 69 764 113 764 q 13 770 26 764 m 88 908 q 78 911 88 908 q 69 938 69 914 q 88 967 69 961 q 174 972 106 972 q 260 967 242 972 q 278 938 278 961 q 260 908 278 914 q 174 903 242 903 q 88 908 106 903 z "},"":{"ha":694,"x_min":0,"x_max":556,"o":"m 226 -203 q 217 -200 226 -203 q 208 -174 208 -197 q 226 -144 208 -150 q 313 -139 244 -139 q 399 -144 381 -139 q 417 -174 417 -150 q 399 -203 417 -197 q 313 -208 381 -208 q 226 -203 244 -208 m 360 -63 q 354 -60 360 -63 q 347 -35 347 -57 q 360 -6 347 -12 q 417 0 374 0 q 473 -6 460 0 q 486 -35 486 -12 q 473 -63 486 -57 q 417 -69 460 -69 q 360 -63 374 -69 m 300 75 q 289 78 300 75 q 278 104 278 81 q 300 133 278 128 q 417 139 322 139 q 533 133 511 139 q 556 104 556 128 q 533 75 556 81 q 417 69 511 69 q 300 75 322 69 m 430 215 q 423 218 430 215 q 417 243 417 221 q 430 272 417 265 q 486 278 443 278 q 542 272 529 278 q 556 243 556 265 q 542 215 556 221 q 486 208 529 208 q 430 215 443 208 m 222 215 q 215 218 222 215 q 208 243 208 221 q 222 272 208 265 q 278 278 235 278 q 334 272 321 278 q 347 243 347 265 q 334 215 347 221 q 278 208 321 208 q 222 215 235 208 m 69 382 q 90 410 69 404 q 278 417 117 417 q 476 404 457 417 q 486 382 486 399 q 465 354 486 360 q 278 347 439 347 q 79 360 99 347 q 69 382 69 365 m 222 492 q 215 495 222 492 q 208 521 208 499 q 222 549 208 543 q 278 556 235 556 q 334 549 321 556 q 347 521 347 543 q 334 492 347 499 q 278 486 321 486 q 222 492 235 486 m 13 492 q 7 495 13 492 q 0 521 0 499 q 13 549 0 543 q 69 556 26 556 q 126 549 113 556 q 139 521 139 543 q 126 492 139 499 q 69 486 113 486 q 13 492 26 486 m 88 631 q 78 633 88 631 q 69 660 69 636 q 88 689 69 683 q 174 694 106 694 q 260 689 242 694 q 278 660 278 683 q 260 631 278 636 q 174 625 242 625 q 88 631 106 625 m 222 770 q 215 773 222 770 q 208 799 208 776 q 222 827 208 821 q 278 833 235 833 q 334 827 321 833 q 347 799 347 821 q 334 770 347 776 q 278 764 321 764 q 222 770 235 764 m 13 770 q 7 773 13 770 q 0 799 0 776 q 13 827 0 821 q 69 833 26 833 q 126 827 113 833 q 139 799 139 821 q 126 770 139 776 q 69 764 113 764 q 13 770 26 764 m 88 908 q 78 911 88 908 q 69 938 69 914 q 88 967 69 961 q 174 972 106 972 q 260 967 242 972 q 278 938 278 961 q 260 908 278 914 q 174 903 242 903 q 88 908 106 903 z "},"":{"ha":694,"x_min":0,"x_max":556,"o":"m 430 -202 q 423 -199 430 -202 q 417 -174 417 -196 q 430 -145 417 -151 q 486 -139 443 -139 q 542 -145 529 -139 q 556 -174 556 -151 q 542 -202 556 -196 q 486 -208 529 -208 q 430 -202 443 -208 m 222 -202 q 215 -199 222 -202 q 208 -174 208 -196 q 222 -145 208 -151 q 278 -139 235 -139 q 334 -145 321 -139 q 347 -174 347 -151 q 334 -202 347 -196 q 278 -208 321 -208 q 222 -202 235 -208 m 430 -63 q 423 -60 430 -63 q 417 -35 417 -57 q 430 -6 417 -12 q 486 0 443 0 q 542 -6 529 0 q 556 -35 556 -12 q 542 -63 556 -57 q 486 -69 529 -69 q 430 -63 443 -69 m 222 -63 q 215 -60 222 -63 q 208 -35 208 -57 q 222 -6 208 -12 q 278 0 235 0 q 334 -6 321 0 q 347 -35 347 -12 q 334 -63 347 -57 q 278 -69 321 -69 q 222 -63 235 -69 m 212 85 q 210 89 212 85 q 208 104 208 92 q 212 123 208 117 q 235 133 215 129 q 286 138 256 138 q 382 139 317 139 q 478 138 447 139 q 528 133 508 138 q 552 123 549 129 q 556 104 556 117 q 552 85 556 92 q 528 75 549 79 q 478 70 508 71 q 382 69 447 69 q 286 70 317 69 q 235 75 256 71 q 212 85 215 79 m 430 215 q 423 218 430 215 q 417 243 417 221 q 430 272 417 265 q 486 278 443 278 q 542 272 529 278 q 556 243 556 265 q 542 215 556 221 q 486 208 529 208 q 430 215 443 208 m 222 215 q 215 218 222 215 q 208 243 208 221 q 222 272 208 265 q 278 278 235 278 q 334 272 321 278 q 347 243 347 265 q 334 215 347 221 q 278 208 321 208 q 222 215 235 208 m 69 382 q 90 410 69 404 q 278 417 117 417 q 476 404 457 417 q 486 382 486 399 q 465 354 486 360 q 278 347 439 347 q 79 360 99 347 q 69 382 69 365 m 222 492 q 215 495 222 492 q 208 521 208 499 q 222 549 208 543 q 278 556 235 556 q 334 549 321 556 q 347 521 347 543 q 334 492 347 499 q 278 486 321 486 q 222 492 235 486 m 13 492 q 7 495 13 492 q 0 521 0 499 q 13 549 0 543 q 69 556 26 556 q 126 549 113 556 q 139 521 139 543 q 126 492 139 499 q 69 486 113 486 q 13 492 26 486 m 88 631 q 78 633 88 631 q 69 660 69 636 q 88 689 69 683 q 174 694 106 694 q 260 689 242 694 q 278 660 278 683 q 260 631 278 636 q 174 625 242 625 q 88 631 106 625 m 222 770 q 215 773 222 770 q 208 799 208 776 q 222 827 208 821 q 278 833 235 833 q 334 827 321 833 q 347 799 347 821 q 334 770 347 776 q 278 764 321 764 q 222 770 235 764 m 13 770 q 7 773 13 770 q 0 799 0 776 q 13 827 0 821 q 69 833 26 833 q 126 827 113 833 q 139 799 139 821 q 126 770 139 776 q 69 764 113 764 q 13 770 26 764 m 88 908 q 78 911 88 908 q 69 938 69 914 q 88 967 69 961 q 174 972 106 972 q 260 967 242 972 q 278 938 278 961 q 260 908 278 914 q 174 903 242 903 q 88 908 106 903 z "}}}
